<svg width="390" height="442" viewBox="0 0 390 442" fill="none" xmlns="http://www.w3.org/2000/svg">
<path d="M222.882 401.378C314.567 401.378 388.893 396.31 388.893 390.058C388.893 383.806 314.567 378.738 222.882 378.738C131.197 378.738 56.8716 383.806 56.8716 390.058C56.8716 396.31 131.197 401.378 222.882 401.378Z" fill="#F5F5F5"/>
<path d="M139.01 385.915L146.54 383.135L140.77 365.385L133.24 368.165L139.01 385.915Z" fill="#FFC3BD"/>
<path d="M145.26 377.705L137 380.605C136.855 380.656 136.732 380.758 136.657 380.892C136.581 381.027 136.558 381.184 136.59 381.335L138.14 388.395C138.184 388.571 138.263 388.737 138.373 388.88C138.483 389.024 138.622 389.144 138.781 389.231C138.94 389.319 139.115 389.372 139.296 389.388C139.477 389.405 139.659 389.383 139.83 389.325C142.83 388.225 147.02 386.545 150.76 385.235C155.14 383.695 156.46 383.805 161.38 381.525C164.38 380.155 163.47 376.845 162.07 377.165C155.7 378.585 153.89 378.915 147.35 377.645C146.661 377.48 145.939 377.5 145.26 377.705Z" fill="#263238"/>
<path opacity="0.2" d="M140.77 365.385L143.75 374.535L136.21 377.315L133.23 368.165L140.77 365.385Z" fill="black"/>
<path d="M146.861 377.935C146.826 377.935 146.792 377.925 146.763 377.905C146.735 377.886 146.713 377.858 146.701 377.825C146.678 377.793 146.666 377.755 146.666 377.715C146.666 377.676 146.678 377.637 146.701 377.605C146.991 377.305 149.581 374.655 150.701 374.855C150.802 374.875 150.896 374.922 150.974 374.99C151.051 375.059 151.109 375.147 151.141 375.245C151.208 375.406 151.235 375.581 151.221 375.755C151.207 375.929 151.152 376.097 151.061 376.245C150.451 377.245 148.181 377.745 146.891 377.925L146.861 377.935ZM150.541 375.235C149.911 375.235 148.441 376.455 147.411 377.455C149.171 377.155 150.411 376.645 150.741 376.055C150.792 375.953 150.819 375.84 150.819 375.725C150.819 375.611 150.792 375.497 150.741 375.395C150.727 375.355 150.704 375.319 150.672 375.291C150.641 375.263 150.602 375.244 150.561 375.235H150.541Z" fill="url(#paint0_linear_33_1220)"/>
<path d="M146.861 377.935H146.811C146.779 377.925 146.75 377.907 146.727 377.883C146.704 377.858 146.688 377.828 146.681 377.795C146.681 377.705 146.261 375.555 146.981 374.405C147.185 374.073 147.512 373.836 147.891 373.745C148.401 373.625 148.621 373.825 148.711 374.025C149.111 374.845 147.781 377.145 146.991 377.885C146.973 377.902 146.953 377.915 146.931 377.923C146.908 377.932 146.885 377.936 146.861 377.935ZM148.161 374.085H147.961C147.822 374.115 147.692 374.175 147.578 374.259C147.464 374.344 147.37 374.451 147.301 374.575C146.932 375.435 146.827 376.386 147.001 377.305C147.761 376.405 148.611 374.655 148.371 374.165C148.401 374.165 148.321 374.085 148.161 374.085Z" fill="url(#paint1_linear_33_1220)"/>
<path d="M104.511 295.495C87.0106 257.085 73.6706 240.665 75.0206 220.015L103.231 217.125C103.231 217.125 119.791 267.025 124.501 290.775C129.401 315.455 144.401 368.625 144.401 368.625L131.931 372.115C131.931 372.115 107.521 323.165 104.511 295.495Z" fill="url(#paint2_linear_33_1220)"/>
<path opacity="0.2" d="M77.8306 239.205C80.8306 248.275 86.1006 258.145 92.6706 271.055C93.0106 271.695 93.3506 272.335 93.6706 272.995C92.4906 257.325 91.5006 244.135 77.8306 239.205Z" fill="black"/>
<path d="M144.87 364.835L145.82 370.405L132.59 375.695L130.2 370.995L144.87 364.835Z" fill="#263238"/>
<path d="M63.7506 375.685L63.1206 394.335L72.0406 394.215L72.6806 375.555L63.7506 375.685Z" fill="#FFC3BD"/>
<path d="M71.9305 390.175L63.1605 390.315C63.0066 390.317 62.8586 390.375 62.7443 390.478C62.6301 390.581 62.5576 390.722 62.5405 390.875L61.7805 398.045C61.7652 398.227 61.788 398.41 61.8476 398.583C61.9071 398.755 62.0021 398.914 62.1264 399.047C62.2507 399.181 62.4015 399.287 62.5693 399.359C62.737 399.431 62.918 399.467 63.1005 399.465C66.2505 399.355 67.2505 399.105 71.2205 399.035C75.8705 398.965 77.3005 399.155 82.7505 399.035C86.0505 398.975 86.5805 395.645 85.1705 395.345C80.7005 394.415 75.9505 392.635 73.9405 390.735C73.3658 390.3 72.6473 390.1 71.9305 390.175Z" fill="#263238"/>
<path opacity="0.2" d="M63.7504 375.685L63.4204 385.305L72.3504 385.175L72.6804 375.565L63.7504 375.685Z" fill="black"/>
<path d="M70.3405 390.785C70.3055 390.787 70.2708 390.778 70.2406 390.761C70.2104 390.743 70.186 390.717 70.1705 390.685C70.1485 390.655 70.1367 390.618 70.1367 390.58C70.1367 390.542 70.1485 390.506 70.1705 390.475C70.4505 390.165 72.8805 387.475 73.9905 387.635C74.0933 387.649 74.1906 387.69 74.273 387.753C74.3554 387.816 74.42 387.9 74.4605 387.995C74.5411 388.15 74.5832 388.321 74.5832 388.495C74.5832 388.669 74.5411 388.841 74.4605 388.995C73.9205 390.045 71.6505 390.575 70.3505 390.795L70.3405 390.785ZM73.8805 388.005C73.2305 388.005 71.8805 389.275 70.8805 390.305C72.6505 389.945 73.8805 389.395 74.1605 388.815C74.2148 388.714 74.2432 388.6 74.2432 388.485C74.2432 388.37 74.2148 388.257 74.1605 388.155C74.1444 388.117 74.1183 388.084 74.0848 388.059C74.0514 388.034 74.0119 388.019 73.9705 388.015L73.8805 388.005Z" fill="url(#paint3_linear_33_1220)"/>
<path d="M70.3406 390.785H70.2906C70.2571 390.776 70.2266 390.758 70.2021 390.734C70.1775 390.709 70.1598 390.679 70.1506 390.645C70.1506 390.555 69.5506 388.455 70.2106 387.305C70.301 387.138 70.4249 386.991 70.5746 386.874C70.7244 386.757 70.8966 386.673 71.0806 386.625C71.2277 386.558 71.3941 386.544 71.5499 386.588C71.7057 386.632 71.8407 386.731 71.9306 386.865C72.3906 387.665 71.2206 389.975 70.4706 390.735C70.4352 390.768 70.3887 390.786 70.3406 390.785ZM71.3406 386.955H71.1506C71.0149 386.989 70.8878 387.051 70.7776 387.137C70.6673 387.223 70.5764 387.332 70.5106 387.455C70.2002 388.324 70.1653 389.266 70.4106 390.155C71.1206 389.245 71.8506 387.495 71.5706 387.015C71.5234 386.975 71.4628 386.953 71.4006 386.955H71.3406Z" fill="url(#paint4_linear_33_1220)"/>
<path d="M63.8606 301.815C61.3306 273.055 53.3006 242.545 57.3206 221.585L86.7806 219.025C86.7806 219.025 90.0206 278.235 86.7806 302.735C83.4506 328.215 74.7806 379.405 74.7806 379.405L61.7806 379.595C61.7806 379.595 60.4006 330.025 63.8606 301.815Z" fill="url(#paint5_linear_33_1220)"/>
<path d="M76.7205 376.515L75.8705 382.055L61.3305 382.315L60.5105 377.075L76.7205 376.515Z" fill="#263238"/>
<path d="M130.27 132.915C130.294 132.521 130.24 132.126 130.111 131.753C129.982 131.38 129.781 131.036 129.519 130.741C129.257 130.446 128.94 130.205 128.585 130.032C128.23 129.86 127.844 129.759 127.45 129.735C126.655 129.687 125.873 129.958 125.276 130.487C124.68 131.015 124.318 131.76 124.27 132.555V132.705C123.81 134.705 123.27 136.915 122.78 138.975C122.29 141.035 121.64 143.085 120.93 144.975C120.317 146.79 119.523 148.539 118.56 150.195C118.202 150.817 117.776 151.397 117.29 151.925C115.482 151.666 113.69 151.309 111.92 150.855C109.47 150.215 106.92 149.445 104.46 148.615C102 147.785 99.4604 146.885 96.9404 145.945C94.4204 145.005 91.9404 144.015 89.5104 143.085H89.4004C87.9246 142.544 86.2968 142.593 84.8566 143.223C83.4163 143.853 82.2747 145.014 81.6699 146.465C81.065 147.916 81.0436 149.544 81.6101 151.011C82.1765 152.477 83.2872 153.668 84.7104 154.335C87.4204 155.555 90.0204 156.515 92.7104 157.525C95.4004 158.535 98.1104 159.395 100.89 160.195C103.67 160.995 106.49 161.705 109.44 162.255C112.584 162.904 115.792 163.186 119 163.095H119.31C120.128 163.056 120.922 162.812 121.62 162.385C123.172 161.424 124.512 160.159 125.56 158.665C126.419 157.444 127.144 156.133 127.72 154.755C128.256 153.529 128.691 152.262 129.02 150.965C129.35 149.725 129.62 148.495 129.82 147.285C130.214 144.9 130.448 142.491 130.52 140.075C130.597 137.686 130.513 135.294 130.27 132.915Z" fill="#FFC3BD"/>
<path d="M128.28 137.025L136.1 133.675L129.57 126.415C129.57 126.415 122.26 130.065 124.09 134.415L128.28 137.025Z" fill="#FFC3BD"/>
<path d="M139.191 128.145L136.401 124.795C136.053 124.382 135.574 124.102 135.044 124.001C134.513 123.901 133.965 123.987 133.491 124.245L129.621 126.365L136.151 133.625L138.881 131.505C139.128 131.309 139.333 131.066 139.484 130.788C139.634 130.511 139.727 130.206 139.756 129.892C139.785 129.577 139.749 129.261 139.652 128.96C139.555 128.66 139.398 128.383 139.191 128.145Z" fill="#FFC3BD"/>
<path d="M84.4505 140.165C92.3805 139.605 108.1 148.715 108.1 148.715L100.401 165.085C95.6398 164.077 91.0981 162.224 86.9905 159.615C84.7405 158.225 75.0505 140.835 84.4505 140.165Z" fill="#263238"/>
<path d="M85.4004 140.145C74.8303 140.514 64.3469 142.194 54.1904 145.145C49.3904 146.655 45.1904 151.145 46.0904 156.085C48.1804 168.085 52.7404 188.135 55.0904 222.895C59.3704 224.135 73.5404 222.945 83.4504 221.965C84.5304 221.865 87.1004 219.265 87.1004 219.265C87.1004 219.265 89.5304 221.265 90.9004 221.065C97.4604 220.065 102.66 218.825 103.84 217.495C102.84 207.635 100.22 186.015 98.7204 171.975C98.5204 166.435 97.6604 156.225 95.3804 150.435C93.2104 144.945 91.2404 140.025 85.4004 140.145Z" fill="#263238"/>
<path d="M65.0405 128.485C66.3505 134.375 65.9105 140.675 62.5505 144.935C65.0205 148.605 70.7705 151.485 76.4805 152.935C80.1105 148.585 79.9105 144.035 78.2705 141.635C78.2705 138.285 77.9005 135.945 78.0205 133.435L65.0405 128.485Z" fill="#FFC3BD"/>
<path d="M76.4805 152.915C77.2177 151.914 77.6953 150.746 77.8705 149.515C78.0205 147.715 81.1705 148.905 81.1705 148.905C79.9776 150.623 78.3623 152.004 76.4805 152.915Z" fill="#E0E0E0"/>
<path d="M76.4804 152.915C76.298 152.268 75.9228 151.692 75.4048 151.263C74.8867 150.834 74.2503 150.573 73.5804 150.515C72.0064 150.309 70.4062 150.463 68.9004 150.965C68.9004 150.965 73.4004 153.025 76.4804 152.915Z" fill="#E0E0E0"/>
<path opacity="0.2" d="M69.2206 126.855H69.1206C69.1706 126.935 69.2106 126.915 69.2206 126.855Z" fill="black"/>
<path opacity="0.2" d="M78.0304 133.425L67.8104 128.895C66.8104 134.285 72.1504 136.955 78.1604 137.975C78.039 136.462 77.9956 134.943 78.0304 133.425Z" fill="black"/>
<path d="M78.1406 108.675C85.6506 107.815 87.3506 113.075 84.0306 119.875C82.2349 118.605 80.7652 116.929 79.7415 114.982C78.7178 113.035 78.1693 110.874 78.1406 108.675Z" fill="#263238"/>
<path d="M62.6406 118.515C64.1406 126.345 64.1706 131.375 69.2206 134.025C80.4106 139.905 85.2206 134.845 86.0706 126.705C86.8606 119.375 84.2806 107.795 76.1506 105.705C74.3489 105.245 72.4599 105.249 70.6602 105.717C68.8605 106.185 67.2087 107.101 65.8593 108.381C64.51 109.66 63.5069 111.261 62.944 113.033C62.3812 114.806 62.2767 116.692 62.6406 118.515Z" fill="#FFC3BD"/>
<path d="M64.8406 124.025C67.8406 124.755 69.0606 123.605 69.1706 123.165C68.3959 123.053 67.6436 122.82 66.9406 122.475C66.9406 122.475 68.6206 121.945 68.7906 120.765C67.4406 120.765 64.8906 118.765 65.7006 116.635C66.5106 114.505 66.2106 113.965 64.8406 113.405C62.2919 112.741 59.6349 112.602 57.0306 112.995C57.4927 113.406 58.0155 113.744 58.5806 113.995C58.5806 113.995 55.5806 115.515 57.0306 117.995C58.4806 120.475 61.4706 122.555 61.2306 124.055C63.6306 124.945 64.8406 124.025 64.8406 124.025Z" fill="#263238"/>
<path d="M83.4006 105.835C86.1206 105.835 87.6406 104.275 87.8306 102.525C85.5006 103.845 82.1306 103.175 75.9406 101.045C70.2906 99.0452 66.2806 100.225 63.5806 102.335C63.6306 101.135 65.8906 99.2652 65.8906 99.2652C65.8906 99.2652 60.5406 99.2652 57.9606 103.485C55.9006 106.855 58.0706 108.635 58.0706 108.635C58.0706 108.635 53.6406 108.575 52.3406 112.125C55.2306 110.825 56.7706 112.365 56.7706 112.365C56.1195 112.87 55.3943 113.272 54.6206 113.555C55.5506 115.125 58.1806 114.315 58.1806 114.315C62.7606 117.025 76.5006 113.025 78.6706 112.025C77.4876 111.864 76.3309 111.548 75.2306 111.085C75.2306 111.085 84.0706 108.335 87.7306 110.425C88.4006 108.765 85.7406 106.495 83.4006 105.835Z" fill="url(#paint6_linear_33_1220)"/>
<path d="M83.0304 127.535C83.0304 127.535 80.6204 126.925 73.9204 126.795C74.3319 127.986 75.1258 129.008 76.1786 129.701C77.2313 130.393 78.4836 130.719 79.7404 130.625C80.1657 130.667 80.595 130.617 80.9996 130.479C81.4041 130.341 81.7745 130.119 82.086 129.826C82.3975 129.534 82.6429 129.178 82.8058 128.783C82.9687 128.388 83.0453 127.962 83.0304 127.535Z" fill="#263238"/>
<path d="M78.0905 129.025C79.4287 128.974 80.7486 129.349 81.8605 130.095C81.2369 130.517 80.4917 130.72 79.7404 130.675C78.403 130.72 77.0849 130.346 75.9705 129.605C76.5947 129.185 77.3394 128.981 78.0905 129.025Z" fill="#ED847E"/>
<path d="M82.7205 127.475C82.5505 127.905 82.3805 128.345 81.7205 128.475C79.7227 128.436 77.732 128.226 75.7704 127.845C75.4508 127.815 75.1431 127.709 74.8733 127.535C74.6035 127.361 74.3796 127.124 74.2205 126.845C77.0661 126.827 79.9085 127.038 82.7205 127.475Z" fill="white"/>
<path opacity="0.2" d="M73.6805 125.615C73.6805 125.615 71.8305 125.415 72.1405 126.895C72.4005 126.265 73.6805 125.615 73.6805 125.615Z" fill="black"/>
<path opacity="0.2" d="M72.5004 119.295C71.4366 118.86 70.2442 118.86 69.1804 119.295C70.2767 119.51 71.4041 119.51 72.5004 119.295Z" fill="black"/>
<path opacity="0.2" d="M72.4005 120.095C71.8898 119.993 71.363 120.003 70.8568 120.126C70.3507 120.248 69.8775 120.48 69.4705 120.805C70.4862 120.777 71.4845 120.535 72.4005 120.095Z" fill="black"/>
<path opacity="0.2" d="M83.5505 117.865C83.5505 117.865 84.3905 116.925 85.0305 117.225C84.6097 117.578 84.0955 117.8 83.5505 117.865Z" fill="black"/>
<path opacity="0.2" d="M83.5505 118.455C83.5505 118.455 84.3605 117.845 84.8305 118.455C84.6278 118.54 84.4103 118.584 84.1905 118.584C83.9708 118.584 83.7533 118.54 83.5505 118.455Z" fill="black"/>
<path d="M59.9606 125.225C60.5847 126.934 61.8614 128.326 63.5106 129.095C65.7106 130.095 67.1906 128.215 66.9106 125.945C66.6506 123.945 65.2006 120.945 62.8406 120.885C62.3244 120.884 61.8159 121.011 61.3607 121.254C60.9056 121.497 60.5179 121.85 60.2325 122.28C59.9471 122.71 59.7728 123.204 59.7254 123.718C59.6779 124.232 59.7587 124.75 59.9606 125.225Z" fill="#FFC3BD"/>
<path d="M73.6704 119.615C73.7604 120.255 74.1604 120.735 74.5804 120.675C75.0004 120.615 75.2804 120.055 75.2004 119.405C75.1204 118.755 74.7104 118.285 74.2904 118.345C73.8704 118.405 73.5904 119.025 73.6704 119.615Z" fill="#263238"/>
<path d="M81.7005 118.535C81.7805 119.175 82.1905 119.655 82.6105 119.595C83.0305 119.535 83.3005 118.965 83.2205 118.325C83.1405 117.685 82.7305 117.205 82.3105 117.265C81.8905 117.325 81.6105 117.885 81.7005 118.535Z" fill="#263238"/>
<path d="M79.0405 118.925C80.1409 120.745 81.4869 122.404 83.0405 123.855C82.652 124.248 82.1821 124.551 81.6637 124.743C81.1454 124.935 80.5913 125.011 80.0405 124.965L79.0405 118.925Z" fill="#ED847E"/>
<path d="M71.6406 116.695C71.5813 116.709 71.5198 116.709 71.4606 116.695C71.4162 116.671 71.3771 116.639 71.3457 116.599C71.3144 116.56 71.2915 116.514 71.2783 116.465C71.2652 116.417 71.2622 116.366 71.2695 116.316C71.2767 116.266 71.2941 116.218 71.3206 116.175C71.6051 115.637 72.014 115.175 72.5132 114.827C73.0124 114.48 73.5875 114.256 74.1906 114.175C74.2405 114.173 74.2905 114.18 74.3376 114.196C74.3847 114.213 74.4281 114.239 74.4653 114.272C74.5024 114.306 74.5326 114.346 74.5541 114.391C74.5756 114.436 74.588 114.485 74.5906 114.535C74.5947 114.585 74.5888 114.634 74.5733 114.681C74.5578 114.729 74.5329 114.772 74.5003 114.809C74.4677 114.847 74.4278 114.877 74.3832 114.899C74.3386 114.92 74.2901 114.933 74.2406 114.935C73.7658 115.005 73.3141 115.185 72.9216 115.462C72.5291 115.738 72.2068 116.102 71.9806 116.525C71.9438 116.581 71.8931 116.626 71.8334 116.656C71.7737 116.686 71.7072 116.699 71.6406 116.695Z" fill="#263238"/>
<path d="M83.9005 114.365C83.8401 114.382 83.7765 114.383 83.7155 114.369C83.6544 114.355 83.5977 114.326 83.5505 114.285C83.2087 113.953 82.7928 113.708 82.3372 113.569C81.8816 113.43 81.3994 113.401 80.9305 113.485C80.8819 113.499 80.8311 113.502 80.7811 113.495C80.7312 113.488 80.6832 113.471 80.6401 113.444C80.597 113.418 80.5598 113.384 80.5306 113.342C80.5014 113.301 80.481 113.255 80.4705 113.205C80.4461 113.108 80.4607 113.006 80.5113 112.92C80.5618 112.834 80.6441 112.771 80.7405 112.745C81.3351 112.63 81.9487 112.661 82.5288 112.835C83.1088 113.009 83.6379 113.321 84.0705 113.745C84.1402 113.818 84.1791 113.915 84.1791 114.015C84.1791 114.116 84.1402 114.213 84.0705 114.285C84.0235 114.329 83.9641 114.357 83.9005 114.365Z" fill="#263238"/>
<path d="M63.6505 194.305H63.4805C61.3105 193.825 58.9605 193.305 56.7805 192.625C54.6344 192.017 52.5328 191.262 50.4905 190.365C48.6832 189.621 46.9978 188.61 45.4905 187.365C44.9448 186.908 44.4785 186.364 44.1105 185.755C44.0052 185.559 43.915 185.355 43.8405 185.145C43.8405 185.085 43.9205 184.845 43.9505 184.675L44.1505 184.005L44.4005 183.245C44.7805 182.185 45.2405 181.015 45.7505 179.855C46.7505 177.535 47.9405 175.145 49.1405 172.765C50.3405 170.385 51.5905 167.995 52.8505 165.615L56.6605 158.495C57.4192 157.089 57.5963 155.442 57.1536 153.907C56.7109 152.373 55.6839 151.073 54.2931 150.287C52.9023 149.501 51.2588 149.292 49.7157 149.705C48.1726 150.118 46.853 151.12 46.0405 152.495C44.5605 154.975 43.2705 157.425 41.9505 159.925C40.6305 162.425 39.4005 164.925 38.2305 167.565C37.0605 170.205 35.9205 172.805 34.9105 175.565C34.4105 176.975 33.9105 178.405 33.5005 179.985L33.2105 181.215C33.1205 181.665 33.0305 182.085 32.9505 182.565C32.864 183.088 32.8039 183.616 32.7705 184.145C32.7705 184.465 32.7705 184.675 32.7705 185.075C32.7705 185.475 32.7705 185.825 32.8305 186.195V186.275C32.8502 186.492 32.8904 186.706 32.9505 186.915C33.4508 188.823 34.3507 190.602 35.5905 192.135C36.6962 193.475 37.9935 194.644 39.4405 195.605C41.9268 197.192 44.6563 198.361 47.5205 199.065C50.104 199.725 52.741 200.153 55.4005 200.345C58.0063 200.555 60.6247 200.555 63.2305 200.345C64.0262 200.398 64.8103 200.133 65.4104 199.608C66.0105 199.083 66.3775 198.341 66.4305 197.545C66.4835 196.75 66.2183 195.965 65.6932 195.365C65.1681 194.765 64.4262 194.398 63.6305 194.345L63.6505 194.305Z" fill="#FFC3BD"/>
<path d="M53.6504 145.295C44.7104 147.735 35.6504 170.565 35.6504 170.565L49.2004 181.345C49.2004 181.345 57.5604 174.085 59.4104 165.505C60.8004 158.925 62.7404 142.805 53.6504 145.295Z" fill="#263238"/>
<path d="M58.9304 193.895L66.4704 190.835L67.4704 200.545C67.4704 200.545 60.3104 202.485 58.6604 198.845L58.9304 193.895Z" fill="#FFC3BD"/>
<path d="M74.2805 194.025L74.0605 197.485C74.0162 198.152 73.7366 198.782 73.2713 199.261C72.8061 199.741 72.1856 200.04 71.5204 200.105L67.4604 200.505L66.4604 190.795L71.5804 191.025C71.9567 191.039 72.3263 191.128 72.6673 191.288C73.0083 191.447 73.3138 191.674 73.5657 191.954C73.8175 192.233 74.0106 192.561 74.1333 192.917C74.2561 193.273 74.3062 193.65 74.2805 194.025Z" fill="#FFC3BD"/>
<path d="M64.0704 141.535C64.3004 143.375 65.4704 149.535 73.5804 150.535C70.7004 151.225 70.6705 155.905 70.6705 155.905C70.6705 155.905 60.1104 150.395 61.6704 142.985C62.2693 142.228 63.1217 141.713 64.0704 141.535Z" fill="white"/>
<path d="M78.3106 139.705C78.1106 141.645 78.6706 144.275 77.8706 149.515C80.7606 148.875 82.3506 152.915 82.3506 152.915C82.3506 152.915 84.5406 145.685 80.0506 140.055C79.4869 139.868 78.9026 139.751 78.3106 139.705Z" fill="white"/>
<path d="M224.031 121.465C228.261 115.945 236.031 109.405 243.151 115.755C249.751 121.665 249.511 139.755 241.821 144.665C242.071 136.185 228.691 135.855 231.381 125.505C230.003 127.328 228.309 128.889 226.381 130.115L224.031 121.465Z" fill="#263238"/>
<path d="M222.201 119.155C225.791 118.155 226.721 117.725 228.201 118.365C229.681 119.005 229.131 121.855 230.451 123.985C231.771 126.115 233.511 127.835 229.231 129.905C227.341 128.74 225.732 127.172 224.517 125.314C223.302 123.456 222.511 121.353 222.201 119.155Z" fill="url(#paint7_linear_33_1220)"/>
<path d="M207.841 117.135C191.761 112.715 191.471 136.135 194.411 150.135C195.427 147.125 197.055 144.357 199.191 142.005L212.971 152.075C222.701 149.075 239.601 137.885 225.971 123.945C220.821 107.805 207.841 117.135 207.841 117.135Z" fill="#263238"/>
<path d="M229.021 370.635L238.901 371.355C237.541 379.225 236.251 391.655 236.251 391.655H228.401C228.401 391.655 229.311 376.025 229.021 370.635Z" fill="#B55B52"/>
<path d="M177.141 370.635L186.951 371.355C184.741 379.225 182.141 391.655 182.141 391.655H174.301C174.301 391.655 176.861 376.025 177.141 370.635Z" fill="#B55B52"/>
<path d="M219.921 399.425C226.731 399.425 226.251 399.315 230.091 399.185C233.371 399.075 234.091 399.485 236.771 399.425C238.971 399.425 239.041 397.265 238.541 394.845C238.351 393.915 238.061 392.845 237.791 391.495C237.718 391.12 237.516 390.783 237.22 390.541C236.924 390.3 236.553 390.171 236.171 390.175H228.171C227.879 390.176 227.591 390.245 227.331 390.377C227.07 390.509 226.844 390.7 226.671 390.935C225.724 392.178 224.533 393.213 223.171 393.978C221.809 394.744 220.305 395.222 218.751 395.385C215.081 395.875 217.211 399.425 219.921 399.425Z" fill="url(#paint8_linear_33_1220)"/>
<path d="M162.471 396.355C169.031 397.475 169.781 397.175 173.471 397.685C176.681 398.125 176.941 398.865 180.151 399.425C182.271 399.795 183.491 397.515 183.401 395.635C183.401 394.505 183.121 393.185 183.131 391.795C183.145 391.436 183.026 391.085 182.797 390.808C182.568 390.532 182.246 390.349 181.891 390.295L175.061 389.115C174.792 389.07 174.516 389.081 174.252 389.146C173.987 389.211 173.738 389.33 173.521 389.495C172.003 390.699 170.258 391.585 168.391 392.1C166.523 392.616 164.571 392.75 162.651 392.495C159.031 392.165 159.841 395.895 162.471 396.355Z" fill="url(#paint9_linear_33_1220)"/>
<path d="M187.791 216.945C187.791 216.945 181.601 265.105 182.141 295.695C179.791 324.415 176.011 379.345 176.011 379.345C176.131 380.805 183.871 380.225 185.241 379.345C185.241 379.345 202.981 342.275 200.091 295.695C219.801 247.115 218.621 216.945 218.621 216.945H187.791Z" fill="url(#paint10_linear_33_1220)"/>
<path opacity="0.2" d="M213.131 255.835C211.601 262.115 209.641 269.065 207.131 276.635C206.391 261.385 202.271 240.975 202.131 240.285L213.131 255.835Z" fill="black"/>
<path d="M196.181 216.945C196.181 216.945 210.271 271.305 215.851 298.005C221.711 326.005 229.921 360.715 228.291 379.345C229.861 380.265 235.471 380.345 238.641 379.345C238.641 379.345 250.701 326.235 235.361 299.245C240.911 232.825 223.361 216.945 223.361 216.945H196.181Z" fill="url(#paint11_linear_33_1220)"/>
<path d="M227.621 375.465C227.554 376.748 227.397 378.025 227.151 379.285C227.126 379.389 227.123 379.497 227.143 379.603C227.162 379.708 227.203 379.808 227.264 379.896C227.324 379.985 227.402 380.06 227.493 380.116C227.583 380.173 227.685 380.21 227.791 380.225C231.561 380.835 237.071 379.955 238.791 379.645C238.954 379.615 239.103 379.535 239.22 379.417C239.336 379.299 239.413 379.148 239.441 378.985L240.111 375.405C240.133 375.292 240.13 375.176 240.102 375.064C240.073 374.953 240.02 374.849 239.946 374.761C239.872 374.673 239.78 374.602 239.675 374.554C239.57 374.507 239.456 374.483 239.341 374.485L228.341 374.695C228.15 374.718 227.972 374.808 227.841 374.949C227.709 375.09 227.631 375.273 227.621 375.465Z" fill="#263238"/>
<path opacity="0.1" d="M227.621 375.465C227.554 376.748 227.397 378.025 227.151 379.285C227.126 379.389 227.123 379.497 227.143 379.603C227.162 379.708 227.203 379.808 227.264 379.896C227.324 379.985 227.402 380.06 227.493 380.116C227.583 380.173 227.685 380.21 227.791 380.225C231.561 380.835 237.071 379.955 238.791 379.645C238.954 379.615 239.103 379.535 239.22 379.417C239.336 379.299 239.413 379.148 239.441 378.985L240.111 375.405C240.133 375.292 240.13 375.176 240.102 375.064C240.073 374.953 240.02 374.849 239.946 374.761C239.872 374.673 239.78 374.602 239.675 374.554C239.57 374.507 239.456 374.483 239.341 374.485L228.341 374.695C228.15 374.718 227.972 374.808 227.841 374.949C227.709 375.09 227.631 375.273 227.621 375.465Z" fill="white"/>
<path d="M175.261 375.295C175.161 376.295 174.971 378.065 174.781 379.385C174.765 379.486 174.77 379.59 174.795 379.689C174.82 379.789 174.865 379.882 174.926 379.964C174.987 380.046 175.065 380.115 175.153 380.166C175.241 380.218 175.339 380.252 175.441 380.265C178.834 380.543 182.245 380.503 185.631 380.145C185.799 380.13 185.959 380.063 186.087 379.954C186.216 379.845 186.308 379.699 186.351 379.535L187.351 375.965C187.387 375.851 187.395 375.73 187.376 375.612C187.357 375.494 187.311 375.382 187.241 375.285C187.171 375.188 187.08 375.109 186.974 375.053C186.868 374.998 186.75 374.968 186.631 374.965L176.151 374.545C176.043 374.536 175.935 374.547 175.831 374.58C175.728 374.613 175.632 374.665 175.55 374.735C175.467 374.805 175.399 374.89 175.349 374.986C175.3 375.082 175.27 375.187 175.261 375.295Z" fill="#263238"/>
<path opacity="0.1" d="M175.261 375.295C175.161 376.295 174.971 378.065 174.781 379.385C174.765 379.486 174.77 379.59 174.795 379.689C174.82 379.789 174.865 379.882 174.926 379.964C174.987 380.046 175.065 380.115 175.153 380.166C175.241 380.218 175.339 380.252 175.441 380.265C178.834 380.543 182.245 380.503 185.631 380.145C185.799 380.13 185.959 380.063 186.087 379.954C186.216 379.845 186.308 379.699 186.351 379.535L187.351 375.965C187.387 375.851 187.395 375.73 187.376 375.612C187.357 375.494 187.311 375.382 187.241 375.285C187.171 375.188 187.08 375.109 186.974 375.053C186.868 374.998 186.75 374.968 186.631 374.965L176.151 374.545C176.043 374.536 175.935 374.547 175.831 374.58C175.728 374.613 175.632 374.665 175.55 374.735C175.467 374.805 175.399 374.89 175.349 374.986C175.3 375.082 175.27 375.187 175.261 375.295Z" fill="white"/>
<path d="M196.231 166.595C195.61 166.211 194.92 165.952 194.199 165.835C193.478 165.718 192.741 165.744 192.03 165.912C191.32 166.08 190.649 166.387 190.057 166.815C189.465 167.243 188.964 167.783 188.581 168.405C187.161 170.705 185.811 173.065 184.411 175.405C183.011 177.745 181.671 180.085 180.331 182.405C178.141 186.215 175.991 190.045 173.851 193.875C173.401 193.775 172.951 193.665 172.481 193.515C170.793 192.972 169.149 192.304 167.561 191.515C165.891 190.715 164.231 189.795 162.561 188.815C160.891 187.835 159.231 186.815 157.671 185.765L157.531 185.685C156.979 185.324 156.315 185.172 155.66 185.256C155.006 185.341 154.403 185.656 153.96 186.146C153.517 186.636 153.264 187.267 153.246 187.927C153.228 188.587 153.446 189.232 153.861 189.745C154.571 190.645 155.251 191.415 155.991 192.195C156.731 192.975 157.451 193.745 158.221 194.485C159.801 195.976 161.471 197.369 163.221 198.655C165.054 200.002 167.009 201.173 169.061 202.155C171.392 203.298 173.915 203.996 176.501 204.215C177.321 204.273 178.141 204.112 178.878 203.75C179.616 203.389 180.245 202.838 180.701 202.155L180.931 201.815C183.964 197.262 186.924 192.672 189.811 188.045C191.261 185.735 192.681 183.395 194.081 181.045C195.481 178.695 196.881 176.365 198.211 173.965C198.881 172.716 199.049 171.257 198.681 169.888C198.314 168.518 197.437 167.341 196.231 166.595Z" fill="#B55B52"/>
<path d="M145.731 189.295L147.601 191.295C147.947 191.669 148.377 191.954 148.855 192.128C149.333 192.302 149.846 192.359 150.351 192.295L155.131 191.665C156.072 191.539 156.97 191.191 157.75 190.651C158.531 190.11 159.172 189.392 159.621 188.555L160.181 187.555C157.311 184.015 151.601 182.295 151.601 182.295L150.021 181.625C149.702 181.477 149.357 181.394 149.006 181.381C148.655 181.367 148.305 181.424 147.976 181.548C147.648 181.672 147.347 181.86 147.092 182.102C146.837 182.344 146.632 182.634 146.491 182.955L145.121 186.055C144.903 186.597 144.844 187.19 144.952 187.764C145.06 188.339 145.331 188.87 145.731 189.295Z" fill="#B55B52"/>
<path d="M195.251 160.815C188.461 162.095 184.861 167.815 178.181 179.875C179.731 184.365 190.271 188.655 190.271 188.655C190.271 188.655 206.401 169.575 195.251 160.815Z" fill="#263238"/>
<path d="M221.401 208.465C221.564 211.309 221.898 214.141 222.401 216.945H188.151L187.791 208.205C187.791 208.205 214.251 206.705 221.401 208.465Z" fill="#B55B52"/>
<path d="M184.491 172.825C184.287 178.099 184.368 183.38 184.731 188.645C185.021 195.515 183.731 197.205 184.731 208.465C188.491 210.675 213.251 210.585 225.431 209.015C224.691 199.265 223.781 192.695 230.381 170.775C231.911 165.695 228.501 160.775 223.051 160.285C221.591 160.155 220.051 160.035 218.461 159.965C212.901 159.59 207.321 159.59 201.761 159.965C199.951 160.115 198.071 160.335 196.271 160.565C189.811 161.415 184.691 166.735 184.491 172.825Z" fill="#263238"/>
<path d="M217.321 141.185C215.871 146.555 214.081 156.395 217.571 159.985C217.571 159.985 220.251 164.985 204.411 164.205C193.321 163.635 200.881 159.985 200.881 159.985C206.971 158.555 207.151 154.105 206.421 149.935L217.321 141.185Z" fill="#B55B52"/>
<path opacity="0.2" d="M212.871 144.755L206.401 149.925C206.591 150.914 206.691 151.918 206.701 152.925C209.011 152.595 212.341 150.075 212.761 147.685C212.981 146.724 213.018 145.73 212.871 144.755Z" fill="black"/>
<path d="M221.991 131.555C220.461 139.725 219.991 143.205 215.321 147.115C208.321 153.015 198.681 149.895 197.761 141.565C196.931 134.075 199.581 121.975 207.991 119.275C209.78 118.635 211.707 118.484 213.573 118.839C215.439 119.194 217.177 120.042 218.605 121.295C220.033 122.548 221.1 124.16 221.696 125.964C222.291 127.768 222.393 129.698 221.991 131.555Z" fill="#B55B52"/>
<path d="M219.011 131.025C215.821 136.135 219.011 138.675 219.011 138.675L222.701 135.025L219.011 131.025Z" fill="#263238"/>
<path d="M201.241 140.595C201.241 140.595 205.741 140.095 210.241 139.645C208.081 142.715 202.261 143.885 201.241 140.595Z" fill="white"/>
<path d="M209.051 132.915C208.951 133.605 208.511 134.135 208.051 134.105C207.591 134.075 207.331 133.485 207.431 132.795C207.531 132.105 207.971 131.575 208.431 131.605C208.891 131.635 209.151 132.225 209.051 132.915Z" fill="#263238"/>
<path d="M200.711 132.425C200.611 133.115 200.171 133.645 199.711 133.615C199.251 133.585 198.991 132.995 199.091 132.305C199.191 131.615 199.631 131.075 200.091 131.115C200.551 131.155 200.811 131.735 200.711 132.425Z" fill="#263238"/>
<path d="M200.281 131.165L198.721 130.565C198.721 130.565 199.401 131.925 200.281 131.165Z" fill="#263238"/>
<path d="M202.871 133.725C202.038 135.259 201.013 136.681 199.821 137.955C200.138 138.234 200.514 138.436 200.922 138.547C201.329 138.658 201.756 138.675 202.171 138.595L202.871 133.725Z" fill="#A02724"/>
<path d="M223.151 138.525C222.888 139.276 222.473 139.964 221.93 140.545C221.388 141.127 220.731 141.59 220.001 141.905C218.161 142.595 217.121 140.515 217.531 138.285C217.901 136.285 219.301 133.495 221.201 133.785C223.101 134.075 223.911 136.525 223.151 138.525Z" fill="#B55B52"/>
<path d="M207.841 118.315C205.511 124.135 222.561 133.315 223.431 140.485C227.681 133.345 223.581 112.865 207.841 118.315Z" fill="#263238"/>
<path d="M208.871 118.025C202.931 119.635 201.241 124.025 201.241 124.025C201.241 124.025 213.511 120.915 208.871 118.025Z" fill="#263238"/>
<path d="M211.401 129.205C211.347 129.206 211.294 129.195 211.246 129.173C211.197 129.15 211.155 129.117 211.121 129.075C210.796 128.703 210.384 128.417 209.921 128.243C209.459 128.068 208.961 128.011 208.471 128.075C208.421 128.085 208.369 128.085 208.319 128.074C208.269 128.063 208.222 128.042 208.181 128.012C208.139 127.982 208.105 127.943 208.079 127.899C208.053 127.855 208.037 127.806 208.031 127.755C208.016 127.647 208.043 127.537 208.106 127.448C208.169 127.359 208.264 127.297 208.371 127.275C208.99 127.187 209.621 127.254 210.208 127.471C210.794 127.687 211.318 128.046 211.731 128.515C211.799 128.6 211.832 128.707 211.823 128.815C211.813 128.923 211.763 129.024 211.681 129.095C211.601 129.16 211.503 129.198 211.401 129.205Z" fill="#263238"/>
<path d="M199.131 127.025C199.08 127.032 199.029 127.028 198.981 127.012C198.932 126.996 198.888 126.97 198.851 126.935C198.813 126.898 198.783 126.854 198.762 126.805C198.742 126.756 198.731 126.703 198.731 126.65C198.731 126.597 198.742 126.545 198.762 126.496C198.783 126.447 198.813 126.402 198.851 126.365C199.27 125.86 199.801 125.458 200.401 125.191C201.001 124.924 201.654 124.798 202.311 124.825C202.362 124.832 202.411 124.85 202.455 124.877C202.499 124.904 202.538 124.939 202.568 124.981C202.598 125.023 202.619 125.071 202.63 125.122C202.64 125.172 202.641 125.224 202.631 125.275C202.609 125.382 202.55 125.477 202.463 125.543C202.377 125.61 202.269 125.642 202.161 125.635C201.642 125.621 201.127 125.727 200.655 125.944C200.184 126.16 199.768 126.483 199.441 126.885C199.401 126.928 199.353 126.962 199.3 126.986C199.247 127.01 199.189 127.024 199.131 127.025Z" fill="#263238"/>
<path d="M208.621 131.655L207.061 131.055C207.061 131.055 207.711 132.415 208.621 131.655Z" fill="#263238"/>
<path d="M214.431 194.375H204.841L204.041 178.675H215.231L214.431 194.375Z" fill="url(#paint12_linear_33_1220)"/>
<path d="M211.451 190.405H204.601L204.241 182.695H211.451V190.405Z" fill="white"/>
<path d="M215.831 177.925H214.601L214.401 177.125H204.861L204.661 177.925H203.441L203.051 179.435H216.211L215.831 177.925Z" fill="white"/>
<path d="M211.401 182.025L214.131 181.795C214.638 181.752 215.149 181.83 215.62 182.023C216.091 182.216 216.51 182.518 216.841 182.905L219.961 186.585C220.578 187.308 221.012 188.169 221.226 189.095C221.44 190.021 221.428 190.985 221.191 191.905L220.901 193.055C216.391 193.755 211.011 191.185 211.011 191.185L209.401 190.625C209.066 190.52 208.755 190.349 208.487 190.122C208.219 189.895 207.998 189.618 207.838 189.305C207.678 188.992 207.582 188.651 207.555 188.301C207.528 187.951 207.571 187.599 207.681 187.265L208.751 184.045C208.951 183.489 209.308 183.003 209.778 182.644C210.248 182.286 210.812 182.071 211.401 182.025Z" fill="#B55B52"/>
<path d="M238.681 191.845C238.516 189.336 238.182 186.84 237.681 184.375C237.198 181.942 236.577 179.538 235.821 177.175C235.431 176.005 235.021 174.835 234.581 173.675C234.351 173.095 234.131 172.505 233.881 171.925C233.631 171.345 233.391 170.805 233.051 170.105C232.453 168.766 231.349 167.717 229.981 167.189C228.612 166.661 227.091 166.696 225.748 167.287C224.405 167.878 223.351 168.976 222.816 170.342C222.28 171.707 222.307 173.229 222.891 174.575L223.001 174.865L223.541 176.195L224.111 177.655C224.491 178.655 224.831 179.655 225.161 180.655C225.831 182.655 226.411 184.705 226.931 186.745C227.451 188.785 227.821 190.845 228.121 192.885C228.181 193.275 228.221 193.655 228.271 194.045L228.171 193.975C226.891 193.025 225.611 191.975 224.331 190.885L220.481 187.585L220.411 187.525C219.914 187.106 219.287 186.873 218.637 186.866C217.987 186.859 217.355 187.078 216.849 187.486C216.343 187.894 215.994 188.465 215.863 189.102C215.732 189.738 215.827 190.401 216.131 190.975C217.008 192.587 217.973 194.149 219.021 195.655C220.065 197.174 221.194 198.633 222.401 200.025C223.031 200.745 223.711 201.445 224.401 202.155C225.208 202.935 226.089 203.635 227.031 204.245C227.638 204.639 228.281 204.974 228.951 205.245C229.98 205.668 231.091 205.853 232.201 205.785C233.026 205.734 233.833 205.527 234.581 205.175C235.338 204.8 236.016 204.284 236.581 203.655C237.378 202.764 237.962 201.704 238.291 200.555C238.373 200.313 238.423 200.061 238.441 199.805V199.505C238.725 196.962 238.805 194.401 238.681 191.845Z" fill="#B55B52"/>
<path d="M223.401 160.375C229.401 161.295 231.791 163.115 236.681 175.145C234.461 179.635 224.061 183.925 224.061 183.925C224.061 183.925 217.201 168.345 223.401 160.375Z" fill="#263238"/>
<path d="M187.721 219.565C199.991 220.922 212.375 220.899 224.641 219.495C224.77 219.476 224.892 219.427 224.999 219.352C225.105 219.278 225.193 219.179 225.255 219.065C225.317 218.95 225.352 218.823 225.356 218.693C225.361 218.563 225.335 218.434 225.281 218.315C224.981 217.615 224.681 216.905 224.391 216.195C224.329 216.038 224.217 215.905 224.073 215.817C223.928 215.728 223.759 215.689 223.591 215.705C211.797 217.01 199.895 217.01 188.101 215.705C187.995 215.696 187.889 215.707 187.788 215.74C187.688 215.772 187.594 215.824 187.514 215.893C187.434 215.962 187.368 216.047 187.321 216.141C187.274 216.236 187.247 216.34 187.241 216.445C187.171 217.185 187.091 217.915 187.021 218.645C186.992 218.86 187.05 219.077 187.181 219.25C187.312 219.422 187.506 219.535 187.721 219.565Z" fill="#263238"/>
<path d="M279.021 395.745C286.181 395.195 291.021 390.275 290.501 385.075C290.221 382.195 299.401 381.945 299.401 381.945C297.951 390.845 299.771 392.115 300.401 394.415C301.031 396.715 300.851 399.255 298.951 399.305C296.681 399.365 295.621 398.925 292.791 399.035C289.491 399.165 285.921 399.295 280.051 399.305C277.671 399.315 275.841 396.025 279.021 395.745Z" fill="url(#paint13_linear_33_1220)"/>
<path d="M268.561 228.025C268.561 228.025 269.841 269.745 275.921 301.175C277.361 327.775 289.921 386.255 289.921 386.255C293.055 386.995 296.321 386.964 299.441 386.165C299.441 386.165 305.791 343.445 299.441 300.725C304.081 255.945 302.501 228.025 302.501 228.025H268.561Z" fill="#263238"/>
<path opacity="0.2" d="M302.731 248.815C302.511 261.335 301.731 279.065 299.481 300.755C299.951 303.955 300.331 307.175 300.621 310.365C285.061 284.615 281.401 243.915 302.731 248.815Z" fill="black"/>
<path d="M354.041 382.025C351.423 379.222 349.202 376.073 347.441 372.665C347.441 372.665 339.251 374.665 340.861 377.045C343.781 381.335 345.201 390.135 341.441 394.865C339.291 397.555 342.691 398.005 344.931 396.865C348.501 395.025 348.351 394.345 350.211 391.315C351.791 388.715 352.421 387.695 354.601 386.585C356.401 385.615 355.541 383.815 354.041 382.025Z" fill="url(#paint14_linear_33_1220)"/>
<path d="M280.931 228.025C280.931 228.025 294.731 286.025 303.431 310.765C312.571 336.765 339.431 376.895 340.431 378.625C344.021 377.625 347.221 376.415 349.351 374.325C349.351 374.325 339.121 332.695 327.571 304.455C323.171 245.545 308.341 228.025 308.341 228.025H280.931Z" fill="#263238"/>
<path d="M240.531 174.025L239.881 170.625C239.64 169.393 239.081 168.245 238.261 167.295L236.721 165.495C236.224 164.918 235.541 164.534 234.79 164.408C234.04 164.282 233.269 164.422 232.611 164.805L230.611 165.995C230.238 166.212 229.912 166.501 229.651 166.845C229.391 167.189 229.202 167.581 229.095 167.999C228.988 168.417 228.965 168.852 229.028 169.279C229.091 169.706 229.238 170.116 229.461 170.485L230.461 172.215C230.461 172.215 232.751 177.345 236.681 179.485L237.681 178.775C238.495 178.263 239.178 177.566 239.673 176.74C240.168 175.915 240.462 174.985 240.531 174.025Z" fill="#7F3E3B"/>
<path d="M276.751 179.135C276.039 178.743 275.257 178.495 274.45 178.406C273.642 178.316 272.825 178.387 272.045 178.613C271.265 178.84 270.537 179.218 269.903 179.727C269.269 180.235 268.742 180.863 268.351 181.575C268.351 181.515 268.301 181.645 268.261 181.695L268.101 181.935L267.731 182.455C267.481 182.805 267.221 183.165 266.941 183.515C266.381 184.215 265.801 184.915 265.191 185.515C264.015 186.787 262.704 187.927 261.281 188.915C259.948 189.838 258.49 190.565 256.951 191.075C256.191 191.313 255.416 191.501 254.631 191.635C254.488 191.645 254.344 191.645 254.201 191.635C253.849 191.393 253.515 191.125 253.201 190.835C252.5 190.183 251.832 189.495 251.201 188.775C249.861 187.275 248.571 185.575 247.271 183.865C244.691 180.425 242.161 176.765 239.631 173.185L239.581 173.115C239.148 172.518 238.516 172.095 237.799 171.923C237.082 171.75 236.327 171.838 235.669 172.171C235.012 172.505 234.495 173.062 234.211 173.743C233.927 174.424 233.895 175.183 234.121 175.885C235.597 180.275 237.395 184.55 239.501 188.675C240.582 190.811 241.777 192.887 243.081 194.895C243.771 195.895 244.511 196.955 245.381 198.015C246.382 199.256 247.55 200.353 248.851 201.275C249.963 202.043 251.229 202.558 252.561 202.785C252.799 202.825 253.039 202.849 253.281 202.855H253.651H254.401C254.761 202.855 255.121 202.855 255.481 202.855C256.927 202.803 258.366 202.626 259.781 202.325C262.582 201.717 265.265 200.653 267.721 199.175C270.085 197.774 272.251 196.062 274.161 194.085C275.092 193.134 275.97 192.133 276.791 191.085C277.201 190.555 277.591 190.005 277.981 189.435L278.541 188.545L278.821 188.075L279.151 187.485C279.927 186.057 280.111 184.381 279.662 182.818C279.213 181.256 278.167 179.933 276.751 179.135Z" fill="#7F3E3B"/>
<path d="M266.931 187.435C267.081 190.825 261.721 198.675 268.331 203.225C267.101 205.985 266.051 224.705 268.561 228.055C272.211 230.735 291.961 230.215 308.341 228.055C309.031 221.285 305.341 207.265 309.871 185.395C310.123 184.198 310.119 182.962 309.862 181.766C309.604 180.571 309.097 179.443 308.375 178.456C307.652 177.469 306.73 176.646 305.668 176.039C304.606 175.433 303.428 175.056 302.211 174.935C300.831 174.795 299.381 174.675 297.881 174.605C292.664 174.23 287.427 174.23 282.211 174.605C280.521 174.755 278.771 174.975 277.101 175.205C274.191 175.619 271.538 177.1 269.659 179.36C267.78 181.62 266.807 184.498 266.931 187.435Z" fill="url(#paint15_linear_33_1220)"/>
<path d="M298.401 156.965C297.151 161.965 295.931 170.225 297.921 174.605C297.921 174.605 289.401 175.755 279.921 183.345C278.311 175.725 281.701 174.655 281.701 174.655C285.701 173.735 286.281 168.925 286.281 165.175L298.401 156.965Z" fill="#7F3E3B"/>
<path opacity="0.2" d="M286.211 165.175L293.121 160.505C293.184 161.562 292.97 162.616 292.501 163.565C291.047 166.291 288.678 168.416 285.811 169.565C286.096 168.12 286.23 166.648 286.211 165.175Z" fill="black"/>
<path d="M301.651 147.715C299.651 155.915 299.021 159.425 294.161 162.955C286.851 168.255 277.411 164.075 276.941 155.455C276.511 147.695 279.801 135.595 288.341 133.705C296.881 131.815 303.611 139.515 301.651 147.715Z" fill="#7F3E3B"/>
<path d="M299.881 152.555C296.351 147.795 298.081 144.015 299.881 142.665C292.661 140.335 284.061 142.025 282.101 137.665C283.411 131.475 285.431 125.665 288.871 120.775C293.281 114.535 312.271 124.985 315.821 137.125C317.031 141.175 301.991 157.325 299.881 152.555Z" fill="#263238"/>
<path d="M288.401 148.595C288.281 149.275 287.821 149.755 287.401 149.675C286.981 149.595 286.701 148.985 286.821 148.315C286.941 147.645 287.391 147.155 287.821 147.235C288.251 147.315 288.551 147.925 288.401 148.595Z" fill="#263238"/>
<path d="M280.111 147.245C279.991 147.915 279.531 148.405 279.111 148.325C278.691 148.245 278.411 147.635 278.531 146.965C278.651 146.295 279.111 145.805 279.531 145.885C279.951 145.965 280.231 146.575 280.111 147.245Z" fill="#263238"/>
<path d="M279.711 145.955L278.181 145.195C278.181 145.195 278.781 146.615 279.711 145.955Z" fill="#263238"/>
<path d="M282.121 147.795C281.248 149.226 280.185 150.531 278.961 151.675C279.26 151.982 279.623 152.22 280.024 152.372C280.424 152.524 280.853 152.587 281.281 152.555L282.121 147.795Z" fill="#630F0F"/>
<path d="M302.251 155.355C301.942 156.062 301.486 156.695 300.914 157.212C300.341 157.73 299.665 158.119 298.931 158.355C297.051 158.875 296.131 156.815 296.661 154.735C297.141 152.865 298.661 150.335 300.561 150.735C302.461 151.135 303.111 153.515 302.251 155.355Z" fill="#7F3E3B"/>
<path d="M301.521 160.075C301.521 160.587 301.369 161.088 301.084 161.514C300.8 161.94 300.395 162.272 299.922 162.468C299.449 162.664 298.928 162.715 298.426 162.615C297.923 162.516 297.462 162.269 297.099 161.907C296.737 161.544 296.491 161.083 296.391 160.581C296.291 160.078 296.342 159.557 296.538 159.084C296.734 158.611 297.066 158.206 297.492 157.922C297.918 157.637 298.419 157.485 298.931 157.485C299.618 157.485 300.277 157.758 300.762 158.244C301.248 158.73 301.521 159.388 301.521 160.075Z" fill="url(#paint16_linear_33_1220)"/>
<path d="M290.691 146.025C290.638 146.01 290.589 145.983 290.548 145.947C290.506 145.91 290.473 145.865 290.451 145.815C290.235 145.358 289.916 144.958 289.518 144.645C289.121 144.333 288.656 144.117 288.161 144.015C288.056 144.003 287.961 143.949 287.896 143.867C287.83 143.785 287.8 143.68 287.811 143.575C287.826 143.469 287.881 143.373 287.964 143.306C288.048 143.239 288.154 143.206 288.261 143.215C288.891 143.33 289.484 143.594 289.99 143.986C290.496 144.377 290.901 144.885 291.171 145.465C291.195 145.512 291.209 145.562 291.213 145.614C291.216 145.667 291.21 145.719 291.193 145.768C291.176 145.818 291.15 145.863 291.115 145.902C291.08 145.941 291.038 145.973 290.991 145.995C290.899 146.044 290.791 146.055 290.691 146.025Z" fill="#263238"/>
<path d="M277.631 142.815C277.581 142.81 277.533 142.793 277.489 142.767C277.446 142.742 277.409 142.707 277.381 142.665C277.316 142.582 277.287 142.476 277.3 142.371C277.313 142.266 277.367 142.17 277.451 142.105C277.951 141.705 278.54 141.431 279.168 141.305C279.796 141.18 280.445 141.207 281.061 141.385C281.162 141.421 281.244 141.495 281.29 141.592C281.336 141.689 281.342 141.799 281.306 141.9C281.27 142.001 281.196 142.083 281.099 142.129C281.002 142.175 280.892 142.181 280.791 142.145C280.302 142.011 279.789 141.995 279.293 142.1C278.797 142.204 278.334 142.425 277.941 142.745C277.897 142.779 277.847 142.802 277.793 142.814C277.74 142.826 277.684 142.827 277.631 142.815Z" fill="#263238"/>
<path d="M288.031 147.305L286.501 146.555C286.501 146.555 287.101 147.965 288.031 147.305Z" fill="#263238"/>
<path opacity="0.2" d="M309.081 189.635C308.285 194.284 307.8 198.981 307.631 203.695C303.861 198.465 299.581 188.985 299.821 184.555L309.081 189.635Z" fill="black"/>
<path d="M285.761 203.915L282.361 199.345L276.111 206.285C276.111 206.285 280.271 210.035 284.631 210.415L285.261 209.355C285.762 208.55 286.068 207.639 286.155 206.694C286.242 205.75 286.107 204.798 285.761 203.915Z" fill="#7F3E3B"/>
<path d="M276.091 199.025L274.241 201.715C273.838 202.304 273.683 203.028 273.81 203.73C273.938 204.432 274.337 205.056 274.921 205.465L276.111 206.295L282.361 199.355L279.401 198.025C278.819 197.782 278.17 197.749 277.567 197.932C276.963 198.114 276.441 198.501 276.091 199.025Z" fill="#7F3E3B"/>
<path d="M313.861 197.405C313.422 194.609 312.817 191.84 312.051 189.115C311.671 187.765 311.261 186.435 310.821 185.115C310.601 184.445 310.381 183.785 310.141 183.115C309.901 182.445 309.651 181.835 309.331 181.055C308.753 179.521 307.589 178.279 306.095 177.603C304.601 176.927 302.9 176.872 301.366 177.45C299.832 178.028 298.59 179.192 297.914 180.686C297.238 182.18 297.183 183.881 297.761 185.415L297.841 185.635L298.401 187.265L298.981 188.995C299.361 190.155 299.721 191.325 300.051 192.505C300.731 194.845 301.301 197.195 301.781 199.505C302.235 201.731 302.529 203.987 302.661 206.255C302.705 207.343 302.671 208.432 302.561 209.515H302.401C300.607 209.219 298.838 208.784 297.111 208.215C295.251 207.645 293.361 206.955 291.461 206.215C289.561 205.475 287.631 204.725 285.761 204.005H285.641C284.96 203.748 284.211 203.738 283.524 203.977C282.836 204.216 282.255 204.69 281.882 205.315C281.509 205.939 281.367 206.676 281.482 207.394C281.597 208.113 281.961 208.768 282.511 209.245C284.186 210.67 285.935 212.005 287.751 213.245C289.583 214.509 291.478 215.678 293.431 216.745C295.53 217.908 297.741 218.857 300.031 219.575C301.449 220.015 302.918 220.27 304.401 220.335C305.429 220.379 306.458 220.265 307.451 219.995C308.866 219.616 310.162 218.887 311.221 217.875C311.672 217.427 312.035 216.898 312.291 216.315L312.381 216.125C313.714 213.007 314.417 209.656 314.451 206.265C314.522 203.3 314.324 200.335 313.861 197.405Z" fill="#7F3E3B"/>
<path d="M279.701 154.575C282.612 154.364 285.535 154.391 288.441 154.655C287.541 156.245 286.031 157.495 282.741 157.275C279.451 157.055 279.701 154.575 279.701 154.575Z" fill="#263238"/>
<path d="M284.401 156.075C283.154 155.933 281.892 156.133 280.751 156.655C281.349 157.038 282.041 157.249 282.751 157.265C283.994 157.41 285.252 157.213 286.391 156.695C285.796 156.313 285.108 156.099 284.401 156.075Z" fill="#630F0F"/>
<path d="M279.991 154.545C280.052 154.763 280.173 154.959 280.339 155.112C280.504 155.266 280.709 155.371 280.931 155.415C282.833 155.533 284.741 155.513 286.641 155.355C286.932 155.363 287.221 155.303 287.485 155.18C287.749 155.057 287.98 154.874 288.161 154.645C285.443 154.431 282.713 154.398 279.991 154.545Z" fill="white"/>
<path d="M279.111 175.275C279.021 175.274 278.935 175.238 278.871 175.175C278.842 175.142 278.818 175.105 278.801 175.065C278.791 175.026 278.791 174.985 278.801 174.945C278.8 174.857 278.832 174.771 278.891 174.705C278.923 174.676 278.961 174.653 279.001 174.635C279.081 174.605 279.17 174.605 279.251 174.635C279.291 174.653 279.328 174.676 279.361 174.705C279.393 174.735 279.417 174.773 279.431 174.815C279.441 174.858 279.441 174.902 279.431 174.945C279.44 174.985 279.44 175.026 279.431 175.065C279.417 175.107 279.393 175.145 279.361 175.175C279.328 175.208 279.29 175.235 279.246 175.252C279.203 175.269 279.157 175.277 279.111 175.275Z" fill="white"/>
<path d="M276.401 193.025C276.401 192.937 276.435 192.852 276.497 192.788C276.558 192.725 276.642 192.688 276.731 192.685C276.818 192.685 276.902 192.72 276.964 192.782C277.026 192.844 277.061 192.928 277.061 193.015C277.061 193.104 277.026 193.189 276.965 193.252C276.903 193.316 276.819 193.353 276.731 193.355C276.643 193.355 276.559 193.32 276.497 193.259C276.436 193.197 276.401 193.113 276.401 193.025ZM278.161 192.885C278.15 192.842 278.149 192.798 278.156 192.755C278.163 192.711 278.178 192.67 278.202 192.633C278.225 192.595 278.255 192.563 278.291 192.538C278.327 192.512 278.368 192.495 278.411 192.485C278.497 192.47 278.585 192.486 278.659 192.533C278.733 192.579 278.787 192.651 278.811 192.735C278.826 192.822 278.808 192.912 278.759 192.986C278.711 193.061 278.637 193.114 278.551 193.135H278.401C278.334 193.13 278.27 193.103 278.218 193.061C278.166 193.018 278.129 192.96 278.111 192.895L278.161 192.885ZM274.891 193.065C274.849 193.052 274.811 193.03 274.778 193.001C274.745 192.973 274.718 192.938 274.698 192.899C274.678 192.86 274.667 192.817 274.664 192.774C274.661 192.73 274.667 192.687 274.681 192.645C274.694 192.602 274.716 192.563 274.745 192.529C274.775 192.495 274.81 192.468 274.851 192.448C274.891 192.428 274.935 192.417 274.979 192.415C275.024 192.413 275.069 192.42 275.111 192.435C275.193 192.465 275.26 192.525 275.297 192.604C275.335 192.683 275.34 192.773 275.311 192.855C275.288 192.92 275.247 192.977 275.192 193.018C275.136 193.06 275.07 193.083 275.001 193.085L274.891 193.065ZM279.891 192.395C279.858 192.314 279.858 192.224 279.892 192.143C279.926 192.062 279.99 191.998 280.071 191.965C280.152 191.932 280.242 191.933 280.323 191.966C280.404 192 280.468 192.064 280.501 192.145C280.534 192.225 280.535 192.315 280.504 192.395C280.472 192.475 280.41 192.54 280.331 192.575H280.201C280.125 192.596 280.044 192.591 279.971 192.56C279.899 192.529 279.839 192.474 279.801 192.405L279.891 192.395ZM273.321 192.055C273.29 192.024 273.265 191.988 273.248 191.948C273.231 191.907 273.222 191.864 273.222 191.82C273.222 191.776 273.231 191.733 273.248 191.693C273.265 191.652 273.29 191.616 273.321 191.585C273.351 191.554 273.388 191.529 273.428 191.512C273.469 191.496 273.512 191.487 273.556 191.487C273.599 191.487 273.643 191.496 273.683 191.512C273.723 191.529 273.76 191.554 273.791 191.585C273.823 191.615 273.849 191.651 273.867 191.692C273.884 191.732 273.894 191.776 273.894 191.82C273.894 191.864 273.884 191.908 273.867 191.948C273.849 191.989 273.823 192.025 273.791 192.055C273.762 192.088 273.727 192.114 273.687 192.131C273.647 192.149 273.604 192.157 273.561 192.155C273.499 192.171 273.434 192.168 273.374 192.144C273.315 192.121 273.265 192.079 273.231 192.025L273.321 192.055ZM281.481 191.625C281.457 191.589 281.442 191.548 281.435 191.505C281.427 191.462 281.429 191.419 281.439 191.377C281.45 191.335 281.468 191.295 281.494 191.26C281.52 191.226 281.553 191.197 281.591 191.175C281.627 191.152 281.668 191.136 281.711 191.129C281.754 191.122 281.797 191.124 281.839 191.134C281.881 191.144 281.921 191.163 281.956 191.189C281.99 191.215 282.019 191.248 282.041 191.285C282.064 191.322 282.08 191.362 282.087 191.405C282.094 191.448 282.092 191.492 282.082 191.534C282.072 191.576 282.053 191.615 282.027 191.65C282.001 191.685 281.968 191.714 281.931 191.735C281.88 191.767 281.821 191.784 281.761 191.785C281.693 191.805 281.62 191.801 281.554 191.774C281.489 191.747 281.435 191.698 281.401 191.635L281.481 191.625ZM282.941 190.625C282.888 190.554 282.864 190.466 282.875 190.378C282.887 190.29 282.932 190.21 283.001 190.155C283.034 190.128 283.073 190.108 283.115 190.096C283.157 190.084 283.201 190.081 283.244 190.086C283.287 190.092 283.328 190.106 283.365 190.129C283.403 190.151 283.435 190.18 283.461 190.215C283.514 190.283 283.539 190.369 283.53 190.455C283.521 190.541 283.478 190.62 283.411 190.675C283.351 190.722 283.277 190.747 283.201 190.745C283.14 190.765 283.075 190.766 283.013 190.751C282.951 190.735 282.895 190.702 282.851 190.655L282.941 190.625ZM272.301 190.445C272.264 190.375 272.254 190.294 272.273 190.217C272.291 190.139 272.336 190.072 272.401 190.025C272.441 190.009 272.485 190.001 272.529 190.002C272.572 190.003 272.616 190.013 272.656 190.03C272.696 190.048 272.732 190.073 272.762 190.105C272.792 190.137 272.815 190.174 272.831 190.215C272.861 190.298 272.857 190.388 272.822 190.468C272.787 190.548 272.722 190.612 272.641 190.645H272.521C272.458 190.648 272.397 190.634 272.342 190.604C272.287 190.574 272.242 190.529 272.211 190.475L272.301 190.445ZM284.301 189.445C284.24 189.382 284.206 189.298 284.206 189.21C284.206 189.123 284.24 189.038 284.301 188.975C284.364 188.915 284.448 188.881 284.536 188.881C284.623 188.881 284.707 188.915 284.771 188.975C284.802 189.006 284.827 189.042 284.844 189.083C284.86 189.123 284.869 189.166 284.869 189.21C284.869 189.254 284.86 189.297 284.844 189.338C284.827 189.378 284.802 189.414 284.771 189.445C284.74 189.475 284.704 189.498 284.665 189.513C284.625 189.529 284.583 189.536 284.541 189.535C284.487 189.562 284.428 189.574 284.368 189.571C284.308 189.567 284.251 189.548 284.201 189.515L284.301 189.445ZM271.891 188.605C271.882 188.517 271.909 188.428 271.965 188.359C272.021 188.29 272.102 188.245 272.191 188.235C272.278 188.229 272.364 188.257 272.431 188.313C272.498 188.369 272.541 188.449 272.551 188.535C272.556 188.579 272.553 188.623 272.541 188.665C272.528 188.708 272.507 188.747 272.479 188.781C272.451 188.814 272.416 188.842 272.377 188.862C272.338 188.881 272.295 188.893 272.251 188.895C272.207 188.916 272.158 188.926 272.11 188.926C272.061 188.926 272.013 188.915 271.969 188.894C271.925 188.873 271.886 188.842 271.855 188.804C271.824 188.767 271.802 188.723 271.791 188.675L271.891 188.605ZM285.561 188.205C285.53 188.174 285.505 188.138 285.488 188.098C285.471 188.057 285.462 188.014 285.462 187.97C285.462 187.926 285.471 187.883 285.488 187.843C285.505 187.802 285.53 187.766 285.561 187.735C285.591 187.704 285.628 187.679 285.668 187.662C285.709 187.646 285.752 187.637 285.796 187.637C285.839 187.637 285.883 187.646 285.923 187.662C285.963 187.679 286 187.704 286.031 187.735C286.062 187.766 286.087 187.802 286.104 187.843C286.12 187.883 286.129 187.926 286.129 187.97C286.129 188.014 286.12 188.057 286.104 188.098C286.087 188.138 286.062 188.174 286.031 188.205C286 188.238 285.963 188.264 285.922 188.282C285.88 188.299 285.836 188.307 285.791 188.305C285.738 188.328 285.68 188.337 285.622 188.332C285.564 188.326 285.509 188.307 285.461 188.275L285.561 188.205ZM272.201 187.135C272.115 187.125 272.036 187.082 271.982 187.014C271.928 186.947 271.902 186.861 271.911 186.775C271.913 186.731 271.925 186.688 271.944 186.649C271.964 186.61 271.992 186.575 272.025 186.547C272.059 186.519 272.098 186.498 272.141 186.485C272.183 186.473 272.227 186.47 272.271 186.475C272.357 186.485 272.435 186.529 272.489 186.596C272.544 186.663 272.569 186.749 272.561 186.835C272.553 186.917 272.515 186.994 272.454 187.049C272.393 187.105 272.313 187.136 272.231 187.135H272.201ZM286.761 186.895C286.73 186.865 286.705 186.83 286.689 186.79C286.672 186.751 286.663 186.708 286.663 186.665C286.663 186.622 286.672 186.58 286.689 186.54C286.705 186.501 286.73 186.465 286.761 186.435C286.824 186.375 286.908 186.341 286.996 186.341C287.083 186.341 287.167 186.375 287.231 186.435C287.262 186.466 287.287 186.502 287.303 186.543C287.32 186.583 287.329 186.626 287.329 186.67C287.329 186.714 287.32 186.757 287.303 186.798C287.287 186.838 287.262 186.874 287.231 186.905C287.202 186.944 287.164 186.975 287.12 186.996C287.077 187.017 287.029 187.027 286.981 187.025C286.927 187.047 286.869 187.053 286.812 187.042C286.755 187.032 286.703 187.005 286.661 186.965L286.761 186.895ZM287.911 185.555C287.876 185.528 287.847 185.494 287.826 185.456C287.805 185.417 287.791 185.375 287.787 185.331C287.782 185.287 287.786 185.243 287.799 185.2C287.812 185.158 287.833 185.119 287.861 185.085C287.891 185.054 287.928 185.029 287.968 185.012C288.009 184.996 288.052 184.987 288.096 184.987C288.139 184.987 288.183 184.996 288.223 185.012C288.263 185.029 288.3 185.054 288.331 185.085C288.362 185.116 288.387 185.152 288.404 185.193C288.42 185.233 288.429 185.276 288.429 185.32C288.429 185.364 288.42 185.407 288.404 185.448C288.387 185.488 288.362 185.524 288.331 185.555C288.301 185.593 288.263 185.623 288.219 185.644C288.176 185.664 288.129 185.675 288.081 185.675C288.035 185.687 287.987 185.689 287.94 185.681C287.893 185.672 287.849 185.653 287.811 185.625L287.911 185.555ZM272.401 185.455C272.358 185.446 272.318 185.428 272.282 185.403C272.247 185.377 272.217 185.345 272.194 185.307C272.172 185.27 272.157 185.228 272.151 185.185C272.146 185.141 272.149 185.097 272.161 185.055C272.17 185.012 272.188 184.972 272.213 184.937C272.239 184.901 272.271 184.871 272.309 184.849C272.346 184.826 272.388 184.812 272.431 184.806C272.475 184.8 272.519 184.803 272.561 184.815C272.646 184.836 272.719 184.891 272.764 184.966C272.809 185.041 272.822 185.13 272.801 185.215C272.783 185.287 272.742 185.35 272.684 185.395C272.626 185.441 272.554 185.465 272.481 185.465H272.401V185.455ZM288.971 184.265C288.91 184.202 288.876 184.118 288.876 184.03C288.876 183.943 288.91 183.858 288.971 183.795C289.027 183.728 289.108 183.684 289.196 183.675C289.283 183.666 289.371 183.691 289.441 183.745C289.472 183.776 289.497 183.812 289.514 183.853C289.53 183.893 289.539 183.936 289.539 183.98C289.539 184.024 289.53 184.067 289.514 184.108C289.497 184.148 289.472 184.184 289.441 184.215C289.411 184.253 289.373 184.283 289.329 184.304C289.286 184.324 289.239 184.335 289.191 184.335C289.145 184.342 289.098 184.34 289.053 184.328C289.008 184.316 288.967 184.294 288.931 184.265H288.971ZM272.891 183.755C272.849 183.742 272.811 183.72 272.778 183.691C272.746 183.663 272.719 183.628 272.7 183.588C272.682 183.549 272.671 183.506 272.669 183.463C272.668 183.419 272.675 183.376 272.691 183.335C272.705 183.293 272.728 183.255 272.758 183.222C272.787 183.189 272.823 183.163 272.863 183.144C272.903 183.125 272.947 183.115 272.991 183.113C273.035 183.112 273.079 183.119 273.121 183.135C273.162 183.151 273.199 183.174 273.231 183.204C273.263 183.234 273.288 183.27 273.306 183.31C273.323 183.35 273.333 183.394 273.334 183.437C273.335 183.481 273.327 183.525 273.311 183.565C273.286 183.627 273.244 183.681 273.188 183.718C273.133 183.756 273.068 183.776 273.001 183.775C272.95 183.788 272.896 183.781 272.851 183.755H272.891ZM290.091 182.895C290.06 182.864 290.035 182.828 290.018 182.788C290.001 182.747 289.992 182.704 289.992 182.66C289.992 182.616 290.001 182.573 290.018 182.533C290.035 182.492 290.06 182.456 290.091 182.425C290.147 182.358 290.228 182.314 290.316 182.305C290.403 182.296 290.491 182.321 290.561 182.375C290.592 182.406 290.617 182.442 290.634 182.483C290.65 182.523 290.659 182.566 290.659 182.61C290.659 182.654 290.65 182.697 290.634 182.738C290.617 182.778 290.592 182.814 290.561 182.845C290.531 182.883 290.493 182.913 290.449 182.934C290.406 182.954 290.359 182.965 290.311 182.965C290.265 182.974 290.218 182.972 290.173 182.96C290.128 182.948 290.086 182.926 290.051 182.895H290.091ZM273.561 182.125C273.52 182.107 273.483 182.081 273.453 182.048C273.423 182.015 273.4 181.976 273.386 181.933C273.372 181.891 273.367 181.846 273.371 181.802C273.375 181.757 273.389 181.714 273.411 181.675C273.449 181.597 273.517 181.538 273.6 181.51C273.682 181.481 273.772 181.487 273.851 181.525C273.929 181.566 273.989 181.636 274.017 181.72C274.045 181.804 274.039 181.895 274.001 181.975C273.971 182.029 273.928 182.074 273.875 182.105C273.822 182.137 273.762 182.154 273.701 182.155C273.639 182.163 273.577 182.152 273.521 182.125H273.561ZM291.221 181.535C291.19 181.504 291.165 181.468 291.148 181.428C291.131 181.387 291.122 181.344 291.122 181.3C291.122 181.256 291.131 181.213 291.148 181.173C291.165 181.132 291.19 181.096 291.221 181.065C291.251 181.034 291.288 181.009 291.328 180.992C291.369 180.976 291.412 180.967 291.456 180.967C291.499 180.967 291.543 180.976 291.583 180.992C291.623 181.009 291.66 181.034 291.691 181.065C291.722 181.096 291.747 181.132 291.764 181.173C291.78 181.213 291.789 181.256 291.789 181.3C291.789 181.344 291.78 181.387 291.764 181.428C291.747 181.468 291.722 181.504 291.691 181.535C291.659 181.573 291.619 181.603 291.574 181.624C291.529 181.645 291.48 181.655 291.431 181.655C291.383 181.654 291.336 181.643 291.293 181.622C291.25 181.601 291.212 181.572 291.181 181.535H291.221ZM274.381 180.535C274.308 180.486 274.257 180.412 274.236 180.327C274.216 180.241 274.228 180.152 274.271 180.075C274.32 180.003 274.394 179.951 274.479 179.931C274.565 179.91 274.654 179.923 274.731 179.965C274.803 180.014 274.855 180.089 274.875 180.174C274.896 180.259 274.883 180.349 274.841 180.425C274.812 180.474 274.771 180.514 274.722 180.542C274.673 180.57 274.617 180.585 274.561 180.585C274.487 180.599 274.411 180.592 274.341 180.565L274.381 180.535ZM292.381 180.175C292.35 180.144 292.325 180.108 292.308 180.068C292.291 180.027 292.282 179.984 292.282 179.94C292.282 179.896 292.291 179.853 292.308 179.813C292.325 179.772 292.35 179.736 292.381 179.705C292.411 179.673 292.447 179.647 292.488 179.629C292.528 179.612 292.572 179.602 292.616 179.602C292.66 179.602 292.704 179.612 292.744 179.629C292.784 179.647 292.821 179.673 292.851 179.705C292.911 179.767 292.944 179.849 292.944 179.935C292.944 180.021 292.911 180.104 292.851 180.165C292.82 180.201 292.781 180.229 292.738 180.248C292.695 180.267 292.648 180.276 292.601 180.275C292.555 180.281 292.508 180.278 292.464 180.266C292.419 180.254 292.377 180.233 292.341 180.205L292.381 180.175ZM275.381 179.045C275.345 179.02 275.315 178.989 275.292 178.952C275.268 178.915 275.253 178.873 275.247 178.83C275.24 178.787 275.242 178.743 275.253 178.701C275.264 178.659 275.284 178.62 275.311 178.585C275.364 178.514 275.444 178.468 275.531 178.454C275.619 178.441 275.709 178.463 275.781 178.515C275.849 178.569 275.894 178.646 275.907 178.731C275.92 178.817 275.9 178.904 275.851 178.975C275.819 179.017 275.778 179.052 275.732 179.076C275.685 179.1 275.633 179.114 275.581 179.115C275.534 179.131 275.485 179.136 275.436 179.129C275.387 179.122 275.341 179.104 275.301 179.075L275.381 179.045ZM293.631 178.885C293.6 178.854 293.575 178.818 293.558 178.778C293.541 178.737 293.532 178.694 293.532 178.65C293.532 178.606 293.541 178.563 293.558 178.523C293.575 178.482 293.6 178.446 293.631 178.415C293.661 178.384 293.698 178.359 293.738 178.342C293.779 178.326 293.822 178.317 293.866 178.317C293.909 178.317 293.953 178.326 293.993 178.342C294.033 178.359 294.07 178.384 294.101 178.415C294.132 178.446 294.157 178.482 294.173 178.523C294.19 178.563 294.199 178.606 294.199 178.65C294.199 178.694 294.19 178.737 294.173 178.778C294.157 178.818 294.132 178.854 294.101 178.885C294.039 178.944 293.956 178.976 293.871 178.975C293.816 178.991 293.759 178.994 293.704 178.983C293.648 178.973 293.596 178.95 293.551 178.915L293.631 178.885ZM294.911 177.665C294.85 177.602 294.816 177.518 294.816 177.43C294.816 177.343 294.85 177.258 294.911 177.195C294.941 177.164 294.978 177.139 295.018 177.122C295.059 177.106 295.102 177.097 295.146 177.097C295.189 177.097 295.233 177.106 295.273 177.122C295.313 177.139 295.35 177.164 295.381 177.195C295.412 177.226 295.437 177.262 295.454 177.303C295.47 177.343 295.479 177.386 295.479 177.43C295.479 177.474 295.47 177.517 295.454 177.558C295.437 177.598 295.412 177.634 295.381 177.665C295.319 177.716 295.241 177.745 295.161 177.745C295.106 177.764 295.047 177.769 294.99 177.761C294.932 177.752 294.878 177.73 294.831 177.695L294.911 177.665ZM276.461 177.665C276.43 177.634 276.405 177.598 276.388 177.558C276.371 177.517 276.362 177.474 276.362 177.43C276.362 177.386 276.371 177.343 276.388 177.303C276.405 177.262 276.43 177.226 276.461 177.195C276.491 177.164 276.528 177.139 276.568 177.122C276.609 177.106 276.652 177.097 276.696 177.097C276.74 177.097 276.783 177.106 276.823 177.122C276.863 177.139 276.9 177.164 276.931 177.195C276.991 177.258 277.025 177.343 277.025 177.43C277.025 177.518 276.991 177.602 276.931 177.665C276.901 177.703 276.863 177.733 276.819 177.754C276.776 177.774 276.729 177.785 276.681 177.785C276.63 177.789 276.578 177.782 276.53 177.765C276.482 177.747 276.438 177.72 276.401 177.685L276.461 177.665ZM296.271 176.545C296.246 176.51 296.228 176.47 296.219 176.427C296.209 176.385 296.208 176.341 296.215 176.299C296.223 176.256 296.239 176.215 296.262 176.178C296.285 176.142 296.315 176.11 296.351 176.085C296.421 176.034 296.509 176.012 296.595 176.025C296.681 176.038 296.759 176.085 296.811 176.155C296.863 176.227 296.885 176.317 296.871 176.404C296.858 176.492 296.811 176.572 296.741 176.625C296.681 176.665 296.612 176.685 296.541 176.685C296.477 176.7 296.41 176.696 296.349 176.675C296.287 176.654 296.232 176.616 296.191 176.565L296.271 176.545ZM277.651 176.355C277.62 176.324 277.595 176.288 277.578 176.248C277.561 176.207 277.552 176.164 277.552 176.12C277.552 176.076 277.561 176.033 277.578 175.993C277.595 175.952 277.62 175.916 277.651 175.885C277.681 175.854 277.718 175.829 277.758 175.812C277.799 175.796 277.842 175.787 277.886 175.787C277.929 175.787 277.973 175.796 278.013 175.812C278.053 175.829 278.09 175.854 278.121 175.885C278.152 175.916 278.177 175.952 278.194 175.993C278.21 176.033 278.219 176.076 278.219 176.12C278.219 176.164 278.21 176.207 278.194 176.248C278.177 176.288 278.152 176.324 278.121 176.355C278.058 176.412 277.976 176.444 277.891 176.445C277.836 176.46 277.778 176.461 277.722 176.449C277.667 176.437 277.615 176.411 277.571 176.375L277.651 176.355ZM297.741 175.565C297.718 175.527 297.702 175.485 297.696 175.441C297.689 175.397 297.692 175.353 297.703 175.31C297.714 175.267 297.734 175.226 297.761 175.191C297.788 175.156 297.822 175.127 297.861 175.105C297.899 175.084 297.941 175.071 297.984 175.066C298.027 175.061 298.071 175.064 298.113 175.077C298.155 175.089 298.194 175.109 298.228 175.136C298.262 175.163 298.29 175.197 298.311 175.235C298.354 175.311 298.366 175.401 298.344 175.485C298.321 175.569 298.266 175.641 298.191 175.685C298.135 175.7 298.076 175.7 298.021 175.685C297.958 175.707 297.89 175.709 297.825 175.691C297.761 175.673 297.704 175.636 297.661 175.585L297.741 175.565Z" fill="white"/>
<path d="M299.561 174.955C299.521 174.966 299.48 174.966 299.441 174.955C299.401 174.938 299.363 174.914 299.331 174.885C299.299 174.853 299.272 174.816 299.251 174.775C299.245 174.732 299.245 174.688 299.251 174.645C299.254 174.559 299.289 174.476 299.351 174.415C299.379 174.381 299.418 174.356 299.461 174.345C299.521 174.321 299.587 174.315 299.651 174.328C299.715 174.34 299.774 174.37 299.821 174.415C299.879 174.477 299.912 174.56 299.911 174.645C299.921 174.688 299.921 174.733 299.911 174.775C299.893 174.815 299.87 174.853 299.841 174.885C299.801 174.916 299.756 174.937 299.708 174.949C299.66 174.962 299.61 174.963 299.561 174.955Z" fill="white"/>
<path d="M267.401 223.905C265.931 226.535 266.541 234.975 269.051 238.565C283.901 239.255 304.671 229.925 310.711 231.645C311.931 228.595 309.781 227.295 309.711 225.065C309.641 222.835 309.381 220.285 306.391 221.465C303.401 222.645 282.851 225.935 267.401 223.905Z" fill="#407BFF"/>
<path opacity="0.5" d="M267.401 223.905C265.931 226.535 266.541 234.975 269.051 238.565C283.901 239.255 304.671 229.925 310.711 231.645C311.931 228.595 309.781 227.295 309.711 225.065C309.641 222.835 309.381 220.285 306.391 221.465C303.401 222.645 282.851 225.935 267.401 223.905Z" fill="white"/>
<path d="M256.47 20.3552C279.39 26.8352 296.25 50.7552 294.13 73.7652C292.76 88.5552 283.9 99.3552 271.66 103.485C271.535 105.734 272.126 107.965 273.35 109.855C273.35 109.855 267.49 108.025 265.4 105.025C259.829 105.764 254.165 105.331 248.77 103.755C225.84 97.2752 208.98 73.3552 211.11 50.3352C213.24 27.3152 233.54 13.8652 256.47 20.3552Z" fill="#407BFF"/>
<path opacity="0.7" d="M256.47 20.3552C279.39 26.8352 296.25 50.7552 294.13 73.7652C292.76 88.5552 283.9 99.3552 271.66 103.485C271.535 105.734 272.126 107.965 273.35 109.855C273.35 109.855 267.49 108.025 265.4 105.025C259.829 105.764 254.165 105.331 248.77 103.755C225.84 97.2752 208.98 73.3552 211.11 50.3352C213.24 27.3152 233.54 13.8652 256.47 20.3552Z" fill="url(#paint17_linear_33_1220)"/>
<path d="M86.4903 57.2452C86.9818 55.1005 87.9244 53.0852 89.2556 51.3333C90.5867 49.5815 92.2758 48.1333 94.2103 47.0852C93.1166 45.4498 92.5416 43.5225 92.5603 41.5552C92.6503 35.2152 98.9903 30.1752 106.71 30.2852C109.995 30.3109 113.19 31.3595 115.85 33.2852C118.92 26.6352 127.94 24.1552 136.15 27.7452C143.01 30.7452 147.15 37.0452 146.68 42.9752C148.1 42.7347 149.542 42.6509 150.98 42.7252C159.98 43.2252 166.98 49.6352 166.61 57.0452C166.36 61.5552 163.42 65.3852 159.13 67.5852C162.13 73.2652 162.24 79.6852 158.91 84.5852C155.58 89.4852 149.91 91.6552 143.72 91.2252C138.92 95.9152 131.06 98.1452 122.91 96.4452C121.333 96.1157 119.79 95.6404 118.3 95.0252C115.47 98.6952 109.43 98.7352 109.43 98.7352C111.336 97.0311 112.688 94.7949 113.31 92.3152C110.511 90.3972 108.214 87.8355 106.61 84.8452C103 84.9552 97.6103 84.0752 94.5003 81.0152C92.0003 78.5552 90.6703 74.5752 91.5003 71.9152C87.4003 67.8752 85.4003 62.5352 86.4903 57.2452Z" fill="#407BFF"/>
<path opacity="0.66" d="M86.4903 57.2452C86.9818 55.1005 87.9244 53.0852 89.2556 51.3333C90.5867 49.5815 92.2758 48.1333 94.2103 47.0852C93.1166 45.4498 92.5416 43.5225 92.5603 41.5552C92.6503 35.2152 98.9903 30.1752 106.71 30.2852C109.995 30.3109 113.19 31.3595 115.85 33.2852C118.92 26.6352 127.94 24.1552 136.15 27.7452C143.01 30.7452 147.15 37.0452 146.68 42.9752C148.1 42.7347 149.542 42.6509 150.98 42.7252C159.98 43.2252 166.98 49.6352 166.61 57.0452C166.36 61.5552 163.42 65.3852 159.13 67.5852C162.13 73.2652 162.24 79.6852 158.91 84.5852C155.58 89.4852 149.91 91.6552 143.72 91.2252C138.92 95.9152 131.06 98.1452 122.91 96.4452C121.333 96.1157 119.79 95.6404 118.3 95.0252C115.47 98.6952 109.43 98.7352 109.43 98.7352C111.336 97.0311 112.688 94.7949 113.31 92.3152C110.511 90.3972 108.214 87.8355 106.61 84.8452C103 84.9552 97.6103 84.0752 94.5003 81.0152C92.0003 78.5552 90.6703 74.5752 91.5003 71.9152C87.4003 67.8752 85.4003 62.5352 86.4903 57.2452Z" fill="url(#paint18_linear_33_1220)"/>
<path d="M207.95 105.605L207.74 104.605C212.628 103.61 217.44 102.273 222.14 100.605L222.49 101.545C217.744 103.237 212.886 104.593 207.95 105.605Z" fill="url(#paint19_linear_33_1220)"/>
<path d="M196.45 107.615L196.31 106.615C198.21 106.345 200.11 106.055 201.93 105.735L202.1 106.735C200.27 107.025 198.4 107.345 196.45 107.615Z" fill="url(#paint20_linear_33_1220)"/>
<path d="M228.4 60.5652C228.301 58.9134 227.62 57.3502 226.477 56.153C225.335 54.9557 223.806 54.2019 222.16 54.0252C198.7 51.5752 165.86 57.0252 152.76 59.5652C151.11 59.8812 149.627 60.7763 148.578 62.089C147.53 63.4018 146.984 65.0459 147.04 66.7252C147.51 82.2252 151.54 92.3952 157.98 102.625C158.604 103.603 159.458 104.412 160.468 104.982C161.477 105.552 162.611 105.866 163.77 105.895C168.39 106.025 172.94 105.985 177.36 105.805C179.671 109.022 182.706 111.649 186.22 113.475C185.797 110.745 185.797 107.966 186.22 105.235C200.4 104.005 212.79 101.355 221.28 98.2352C222.319 97.8472 223.254 97.2222 224.009 96.4097C224.764 95.5973 225.319 94.6199 225.63 93.5552C228.89 82.6352 228.93 68.9152 228.4 60.5652Z" fill="url(#paint21_linear_33_1220)"/>
<defs>
<linearGradient id="paint0_linear_33_1220" x1="146.926" y1="374.675" x2="150.214" y2="378.751" gradientUnits="userSpaceOnUse">
<stop stop-color="#ED237F"/>
<stop offset="0.302083" stop-color="#E93068"/>
<stop offset="0.578125" stop-color="#F14272"/>
<stop offset="0.848958" stop-color="#DF5775"/>
</linearGradient>
<linearGradient id="paint1_linear_33_1220" x1="146.686" y1="373.477" x2="150.09" y2="374.983" gradientUnits="userSpaceOnUse">
<stop stop-color="#ED237F"/>
<stop offset="0.302083" stop-color="#E93068"/>
<stop offset="0.578125" stop-color="#F14272"/>
<stop offset="0.848958" stop-color="#DF5775"/>
</linearGradient>
<linearGradient id="paint2_linear_33_1220" x1="78.8965" y1="208.609" x2="190.2" y2="250.538" gradientUnits="userSpaceOnUse">
<stop stop-color="#ED237F"/>
<stop offset="0.302083" stop-color="#E93068"/>
<stop offset="0.578125" stop-color="#F14272"/>
<stop offset="0.848958" stop-color="#DF5775"/>
</linearGradient>
<linearGradient id="paint3_linear_33_1220" x1="70.3908" y1="387.454" x2="73.791" y2="391.467" gradientUnits="userSpaceOnUse">
<stop stop-color="#ED237F"/>
<stop offset="0.302083" stop-color="#E93068"/>
<stop offset="0.578125" stop-color="#F14272"/>
<stop offset="0.848958" stop-color="#DF5775"/>
</linearGradient>
<linearGradient id="paint4_linear_33_1220" x1="70.0228" y1="386.331" x2="73.33" y2="387.735" gradientUnits="userSpaceOnUse">
<stop stop-color="#ED237F"/>
<stop offset="0.302083" stop-color="#E93068"/>
<stop offset="0.578125" stop-color="#F14272"/>
<stop offset="0.848958" stop-color="#DF5775"/>
</linearGradient>
<linearGradient id="paint5_linear_33_1220" x1="58.0424" y1="210.203" x2="114.999" y2="219.744" gradientUnits="userSpaceOnUse">
<stop stop-color="#ED237F"/>
<stop offset="0.302083" stop-color="#E93068"/>
<stop offset="0.578125" stop-color="#F14272"/>
<stop offset="0.848958" stop-color="#DF5775"/>
</linearGradient>
<linearGradient id="paint6_linear_33_1220" x1="54.3689" y1="98.3874" x2="68.8433" y2="125.413" gradientUnits="userSpaceOnUse">
<stop stop-color="#ED237F"/>
<stop offset="0.302083" stop-color="#E93068"/>
<stop offset="0.578125" stop-color="#F14272"/>
<stop offset="0.848958" stop-color="#DF5775"/>
</linearGradient>
<linearGradient id="paint7_linear_33_1220" x1="222.758" y1="117.412" x2="234.817" y2="125.752" gradientUnits="userSpaceOnUse">
<stop stop-color="#ED237F"/>
<stop offset="0.302083" stop-color="#E93068"/>
<stop offset="0.578125" stop-color="#F14272"/>
<stop offset="0.848958" stop-color="#DF5775"/>
</linearGradient>
<linearGradient id="paint8_linear_33_1220" x1="218.05" y1="389.666" x2="226.116" y2="405.778" gradientUnits="userSpaceOnUse">
<stop stop-color="#ED237F"/>
<stop offset="0.302083" stop-color="#E93068"/>
<stop offset="0.578125" stop-color="#F14272"/>
<stop offset="0.848958" stop-color="#DF5775"/>
</linearGradient>
<linearGradient id="paint9_linear_33_1220" x1="161.537" y1="388.518" x2="170.907" y2="406.119" gradientUnits="userSpaceOnUse">
<stop stop-color="#ED237F"/>
<stop offset="0.302083" stop-color="#E93068"/>
<stop offset="0.578125" stop-color="#F14272"/>
<stop offset="0.848958" stop-color="#DF5775"/>
</linearGradient>
<linearGradient id="paint10_linear_33_1220" x1="178.447" y1="207.973" x2="252.843" y2="224.294" gradientUnits="userSpaceOnUse">
<stop stop-color="#ED237F"/>
<stop offset="0.302083" stop-color="#E93068"/>
<stop offset="0.578125" stop-color="#F14272"/>
<stop offset="0.848958" stop-color="#DF5775"/>
</linearGradient>
<linearGradient id="paint11_linear_33_1220" x1="198.864" y1="207.983" x2="280.033" y2="227.623" gradientUnits="userSpaceOnUse">
<stop stop-color="#ED237F"/>
<stop offset="0.302083" stop-color="#E93068"/>
<stop offset="0.578125" stop-color="#F14272"/>
<stop offset="0.848958" stop-color="#DF5775"/>
</linearGradient>
<linearGradient id="paint12_linear_33_1220" x1="204.68" y1="177.813" x2="219.746" y2="186.837" gradientUnits="userSpaceOnUse">
<stop stop-color="#ED237F"/>
<stop offset="0.302083" stop-color="#E93068"/>
<stop offset="0.578125" stop-color="#F14272"/>
<stop offset="0.848958" stop-color="#DF5775"/>
</linearGradient>
<linearGradient id="paint13_linear_33_1220" x1="278.659" y1="380.991" x2="297.414" y2="402.236" gradientUnits="userSpaceOnUse">
<stop stop-color="#ED237F"/>
<stop offset="0.302083" stop-color="#E93068"/>
<stop offset="0.578125" stop-color="#F14272"/>
<stop offset="0.848958" stop-color="#DF5775"/>
</linearGradient>
<linearGradient id="paint14_linear_33_1220" x1="341.506" y1="371.303" x2="363.276" y2="382.347" gradientUnits="userSpaceOnUse">
<stop stop-color="#ED237F"/>
<stop offset="0.302083" stop-color="#E93068"/>
<stop offset="0.578125" stop-color="#F14272"/>
<stop offset="0.848958" stop-color="#DF5775"/>
</linearGradient>
<linearGradient id="paint15_linear_33_1220" x1="267.595" y1="171.271" x2="323.865" y2="209.609" gradientUnits="userSpaceOnUse">
<stop stop-color="#ED237F"/>
<stop offset="0.302083" stop-color="#E93068"/>
<stop offset="0.578125" stop-color="#F14272"/>
<stop offset="0.848958" stop-color="#DF5775"/>
</linearGradient>
<linearGradient id="paint16_linear_33_1220" x1="296.637" y1="157.201" x2="302.191" y2="161.868" gradientUnits="userSpaceOnUse">
<stop stop-color="#ED237F"/>
<stop offset="0.302083" stop-color="#E93068"/>
<stop offset="0.578125" stop-color="#F14272"/>
<stop offset="0.848958" stop-color="#DF5775"/>
</linearGradient>
<linearGradient id="paint17_linear_33_1220" x1="215.693" y1="13.7159" x2="311.556" y2="87.4272" gradientUnits="userSpaceOnUse">
<stop stop-color="#ED237F"/>
<stop offset="0.302083" stop-color="#E93068"/>
<stop offset="0.578125" stop-color="#F14272"/>
<stop offset="0.848958" stop-color="#DF5775"/>
</linearGradient>
<linearGradient id="paint18_linear_33_1220" x1="90.7922" y1="22.1089" x2="169.646" y2="95.4878" gradientUnits="userSpaceOnUse">
<stop stop-color="#ED237F"/>
<stop offset="0.302083" stop-color="#E93068"/>
<stop offset="0.578125" stop-color="#F14272"/>
<stop offset="0.848958" stop-color="#DF5775"/>
</linearGradient>
<linearGradient id="paint19_linear_33_1220" x1="208.583" y1="100.33" x2="212.359" y2="109.692" gradientUnits="userSpaceOnUse">
<stop stop-color="#ED237F"/>
<stop offset="0.302083" stop-color="#E93068"/>
<stop offset="0.578125" stop-color="#F14272"/>
<stop offset="0.848958" stop-color="#DF5775"/>
</linearGradient>
<linearGradient id="paint20_linear_33_1220" x1="196.641" y1="105.632" x2="198.017" y2="109.193" gradientUnits="userSpaceOnUse">
<stop stop-color="#ED237F"/>
<stop offset="0.302083" stop-color="#E93068"/>
<stop offset="0.578125" stop-color="#F14272"/>
<stop offset="0.848958" stop-color="#DF5775"/>
</linearGradient>
<linearGradient id="paint21_linear_33_1220" x1="151.7" y1="50.1063" x2="216.509" y2="124.11" gradientUnits="userSpaceOnUse">
<stop stop-color="#ED237F"/>
<stop offset="0.302083" stop-color="#E93068"/>
<stop offset="0.578125" stop-color="#F14272"/>
<stop offset="0.848958" stop-color="#DF5775"/>
</linearGradient>
</defs>
</svg>
