<svg width="226" height="298" viewBox="0 0 226 298" fill="none" xmlns="http://www.w3.org/2000/svg">
<path d="M152.802 50.2263L145.166 68.4968C143.886 71.4952 142.577 74.4936 141.258 77.4921C140.598 78.9613 139.909 80.4106 139.259 81.7998C138.609 83.1891 137.87 84.5684 137.2 85.6878C137.025 86.0076 136.828 86.3148 136.61 86.6073L135.611 87.0771L134.521 87.5668L132.302 88.5663L123.127 92.4143C116.98 95.023 110.824 97.7116 104.727 100.54L106.886 107.257C113.532 105.987 120.089 104.508 126.635 102.839C129.904 101.979 133.172 101.13 136.45 100.14L138.939 99.3907L140.208 98.9909L141.548 98.5211L142.057 98.3412L142.287 98.2413L143.207 97.8415L143.687 97.6216L144.246 97.2718L144.726 96.942C145.155 96.6124 145.563 96.2552 145.945 95.8725C146.345 95.4627 146.675 95.0929 146.945 94.7431C147.485 94.0934 147.884 93.5337 148.284 92.974C148.954 91.9745 149.543 91.055 150.093 90.1355C150.503 89.4658 150.883 88.8162 151.253 88.1365C152.122 86.5674 152.942 85.0182 153.731 83.479C155.33 80.3906 156.78 77.3022 158.199 74.2038C161.018 67.997 163.646 61.8002 166.035 55.4036L152.802 50.2263Z" fill="#263238"/>
<path d="M106.405 101.28C105.324 100.159 103.885 99.4523 102.337 99.2808C100.109 99.2808 98.3395 98.6011 96.6803 98.6711C95.0212 98.741 96.7803 100.14 97.8697 100.67C98.9591 101.2 100.188 101.849 99.6488 102.599C99.1091 103.349 91.8328 106.597 91.2032 107.746C90.5735 108.896 91.9128 108.746 91.9128 108.746C91.9128 108.746 90.2837 109.495 90.3136 110.365C90.3436 111.235 91.503 111.085 91.503 111.085C91.503 111.085 90.4236 111.624 90.8933 112.334C91.3631 113.044 97.6198 111.334 97.9497 111.414C97.9497 111.414 94.2416 111.624 94.0717 112.714C93.9018 113.803 96.3105 113.443 98.2295 113.194C100.214 112.969 102.058 112.061 103.447 110.625C104.776 109.166 107.785 107.417 107.445 105.158C107.247 103.83 106.898 102.529 106.405 101.28Z" fill="#CE7A63"/>
<g opacity="0.2">
<path d="M91.8132 111.115C93.6722 110.275 95.5512 109.499 97.4502 108.786C97.6504 109.279 97.8876 109.757 98.1599 110.215C98.2998 110.445 98.5896 110.145 98.4597 109.925C97.6279 108.49 97.1197 106.89 96.9705 105.238C96.9705 104.958 96.5807 105.058 96.6107 105.328C96.648 105.748 96.7114 106.165 96.8006 106.577C96.7832 106.569 96.7645 106.566 96.7456 106.566C96.7267 106.566 96.708 106.569 96.6906 106.577C95.1474 107.022 93.664 107.653 92.2729 108.456C92.063 108.576 92.2029 108.966 92.4328 108.836C93.7927 108.054 95.2426 107.439 96.7506 107.007C96.7753 106.997 96.7978 106.982 96.8167 106.963C96.8356 106.944 96.8505 106.921 96.8605 106.897C96.9786 107.412 97.1289 107.919 97.3103 108.416C95.4113 109.082 93.5289 109.859 91.6632 110.745C91.4334 110.835 91.5833 111.214 91.8132 111.115Z" fill="black"/>
</g>
<g opacity="0.2">
<path d="M98.9403 106.807C99.5267 105.901 100.4 105.218 101.419 104.867C102.439 104.516 103.548 104.516 104.567 104.868C104.797 104.958 104.937 104.548 104.707 104.458C103.606 104.081 102.41 104.083 101.31 104.466C100.21 104.848 99.2704 105.588 98.6405 106.567C98.6087 106.607 98.5939 106.657 98.5996 106.708C98.6052 106.759 98.6307 106.805 98.6704 106.837C98.7102 106.869 98.761 106.883 98.8116 106.878C98.8622 106.872 98.9085 106.847 98.9403 106.807Z" fill="black"/>
</g>
<path opacity="0.2" d="M169.993 52.4352C169.993 52.5696 169.953 52.701 169.878 52.8128C169.803 52.9246 169.697 53.0117 169.573 53.0631C169.449 53.1145 169.312 53.128 169.18 53.1018C169.049 53.0756 168.927 53.0108 168.832 52.9158C168.737 52.8207 168.673 52.6996 168.646 52.5678C168.62 52.4359 168.634 52.2993 168.685 52.1751C168.736 52.0509 168.824 51.9448 168.935 51.8701C169.047 51.7954 169.179 51.7556 169.313 51.7556C169.493 51.7556 169.666 51.8271 169.794 51.9546C169.921 52.0821 169.993 52.2549 169.993 52.4352Z" fill="black"/>
<path opacity="0.2" d="M169.993 56.9429C169.991 57.0768 169.949 57.2073 169.873 57.3177C169.797 57.4281 169.69 57.5137 169.566 57.5636C169.442 57.6135 169.305 57.6256 169.174 57.5982C169.043 57.5709 168.923 57.5054 168.829 57.4099C168.735 57.3145 168.671 57.1934 168.646 57.0618C168.62 56.9303 168.634 56.7941 168.686 56.6705C168.738 56.5469 168.825 56.4414 168.936 56.3671C169.048 56.2929 169.179 56.2532 169.313 56.2532C169.403 56.2532 169.492 56.2711 169.575 56.3059C169.658 56.3407 169.734 56.3916 169.797 56.4558C169.86 56.52 169.91 56.5961 169.944 56.6797C169.977 56.7633 169.994 56.8528 169.993 56.9429Z" fill="black"/>
<path opacity="0.2" d="M169.993 61.4304C169.993 61.5649 169.953 61.6963 169.878 61.808C169.803 61.9198 169.697 62.0069 169.573 62.0583C169.449 62.1098 169.312 62.1232 169.18 62.097C169.049 62.0708 168.927 62.0061 168.832 61.911C168.737 61.816 168.673 61.6949 168.646 61.563C168.62 61.4312 168.634 61.2945 168.685 61.1703C168.736 61.0462 168.824 60.94 168.935 60.8653C169.047 60.7906 169.179 60.7508 169.313 60.7508C169.493 60.7508 169.666 60.8224 169.794 60.9498C169.921 61.0773 169.993 61.2502 169.993 61.4304Z" fill="black"/>
<path d="M153.301 279.177L150.752 289.682H145.225L144.975 279.177H153.301Z" fill="#FF8B7B"/>
<path d="M129.174 297.098C129.474 293.68 130.973 292.66 132.832 292.54C134.691 292.42 141.648 290.111 141.648 290.111C141.648 290.111 143.087 287.943 144.356 287.503C145.626 287.063 146.855 288.352 146.855 288.352L150.323 287.933C150.323 287.933 151.323 286.373 152.082 287.733C153.182 289.862 153.082 295.729 152.952 297.098H129.174Z" fill="#263238"/>
<path d="M129.624 296.208H133.931L152.791 296.108C153.031 296.108 152.981 295.749 152.741 295.749H151.462C151.467 295.732 151.467 295.715 151.462 295.699C151.197 295.292 151.02 294.834 150.942 294.355C150.863 293.876 150.885 293.386 151.006 292.916C151.128 292.446 151.346 292.006 151.646 291.625C151.946 291.244 152.323 290.929 152.751 290.701C152.951 290.591 152.751 290.271 152.522 290.381C152.069 290.63 151.672 290.968 151.354 291.374C151.035 291.781 150.803 292.247 150.67 292.746C150.538 293.245 150.508 293.766 150.582 294.277C150.656 294.788 150.833 295.278 151.102 295.719H148.444L129.594 295.819C129.334 295.849 129.384 296.218 129.624 296.208Z" fill="#407BFF"/>
<path d="M176.17 141.669C174.54 155.759 172.09 169.742 168.834 183.547C167.674 188.664 166.341 194.121 164.836 199.918C168.903 233.521 152.982 282.066 152.982 282.066L144.456 281.876C144.456 281.876 143.387 227.624 144.386 199.219C146.035 152.683 151.702 108.356 151.702 108.356L174.93 108.266C174.93 108.266 178.988 115.262 176.17 141.669Z" fill="url(#paint0_linear_33_956)"/>
<path opacity="0.2" d="M176.17 141.669C174.54 155.759 172.09 169.742 168.834 183.547C163.946 164.937 172.832 125.217 172.832 125.217L176.17 141.669Z" fill="black"/>
<path d="M143.506 283.885L143.236 280.227H154.61L153.971 283.885H143.506Z" fill="#263238"/>
<path d="M188.663 279.177L186.115 289.682H180.588L180.338 279.177H188.663Z" fill="#FF8B7B"/>
<path d="M164.536 297.098C164.836 293.68 166.335 292.66 168.194 292.54C170.053 292.42 176.99 290.111 176.99 290.111C176.99 290.111 178.429 287.943 179.698 287.503C180.968 287.063 182.197 288.352 182.197 288.352L185.665 287.933C185.665 287.933 186.665 286.373 187.424 287.733C188.534 289.862 188.424 295.729 188.294 297.098H164.536Z" fill="#263238"/>
<path d="M164.995 296.208H169.303L188.163 296.108C188.403 296.108 188.353 295.749 188.113 295.749H186.844V295.699C186.577 295.293 186.398 294.836 186.318 294.357C186.238 293.878 186.259 293.388 186.379 292.917C186.499 292.447 186.717 292.007 187.017 291.625C187.317 291.244 187.694 290.929 188.123 290.701C188.323 290.591 188.123 290.271 187.903 290.381C187.45 290.629 187.052 290.966 186.732 291.372C186.413 291.778 186.18 292.245 186.046 292.744C185.912 293.243 185.881 293.764 185.955 294.275C186.028 294.786 186.205 295.277 186.474 295.719H183.785L164.935 295.819C164.695 295.849 164.745 296.218 164.995 296.208Z" fill="#407BFF"/>
<path d="M168.173 110.155C168.173 110.155 172.511 174.382 173.93 199.918C175.56 229.083 179.208 278.797 179.697 282.056H188.513C187.513 283.055 199.827 238.418 194.859 202.097C199.517 167.355 205.184 141.909 197.858 109.146L168.173 110.155Z" fill="url(#paint1_linear_33_956)"/>
<path d="M178.658 283.885L178.388 280.227H189.773L189.123 283.885H178.658Z" fill="#263238"/>
<path d="M200.526 111.704C182.006 117.821 150.872 115.812 150.872 111.564C150.872 99.6206 155.1 86.1776 153.97 78.3917C145.205 72.2649 152.052 66.7278 151.292 57.6525C151.03 54.3025 152.03 50.9757 154.096 48.3255C156.161 45.6753 159.143 43.8934 162.456 43.3299C164.035 43.0601 165.674 42.7902 167.294 42.5803L168.293 42.4604C172.605 41.9655 176.946 41.7618 181.286 41.8507C182.875 41.8507 184.515 41.8507 186.224 41.9007C187.933 41.9507 189.602 42.0006 191.221 42.1206C192.612 42.2229 193.967 42.6153 195.198 43.2727C196.428 43.93 197.507 44.8377 198.366 45.9373C199.225 47.0369 199.844 48.3041 200.183 49.6573C200.522 51.0106 200.574 52.4198 200.336 53.7945C198.912 61.7662 198.011 69.8226 197.638 77.9119C197.558 79.5811 197.508 81.1902 197.488 82.7694C197.376 88.307 197.626 93.8459 198.237 99.3508C198.237 99.4607 198.237 99.5607 198.237 99.6606C198.497 101.849 198.827 103.868 199.237 105.717C199.347 106.297 199.477 106.847 199.607 107.397C199.777 108.546 200.226 110.555 200.526 111.704Z" fill="#263238"/>
<path opacity="0.2" d="M188.793 56.4331L198.038 70.3559C198.178 68.6867 198.348 66.9776 198.548 65.2485L188.793 56.4331Z" fill="black"/>
<path d="M167.284 57.7424C167.284 57.8988 167.222 58.0488 167.111 58.1594C167.001 58.27 166.851 58.3321 166.694 58.3321C166.538 58.3321 166.388 58.27 166.277 58.1594C166.167 58.0488 166.105 57.8988 166.105 57.7424C166.105 57.586 166.167 57.436 166.277 57.3254C166.388 57.2148 166.538 57.1527 166.694 57.1527C166.851 57.1527 167.001 57.2148 167.111 57.3254C167.222 57.436 167.284 57.586 167.284 57.7424Z" fill="url(#paint2_linear_33_956)"/>
<path d="M166.924 63.0796C166.926 63.1579 166.911 63.2356 166.882 63.3083C166.853 63.381 166.81 63.4472 166.755 63.503C166.7 63.5589 166.635 63.6032 166.563 63.6334C166.49 63.6637 166.413 63.6793 166.335 63.6793C166.176 63.6793 166.023 63.6161 165.911 63.5036C165.798 63.3912 165.735 63.2386 165.735 63.0796C165.735 63.0013 165.75 62.9238 165.781 62.8516C165.811 62.7794 165.855 62.7139 165.911 62.659C165.967 62.6042 166.033 62.5609 166.106 62.5319C166.179 62.5028 166.256 62.4886 166.335 62.4899C166.412 62.4885 166.49 62.5029 166.562 62.532C166.634 62.5612 166.7 62.6046 166.755 62.6596C166.81 62.7146 166.853 62.7802 166.882 62.8523C166.911 62.9245 166.926 63.0018 166.924 63.0796Z" fill="url(#paint3_linear_33_956)"/>
<path d="M166.335 69.1064C166.661 69.1064 166.925 68.8424 166.925 68.5168C166.925 68.1911 166.661 67.9271 166.335 67.9271C166.01 67.9271 165.746 68.1911 165.746 68.5168C165.746 68.8424 166.01 69.1064 166.335 69.1064Z" fill="url(#paint4_linear_33_956)"/>
<path d="M181.218 41.8506C176.84 49.5566 166.515 54.1742 166.515 54.1742C165.126 50.716 165.516 45.1789 167.295 42.5802L168.294 42.4603C172.584 41.9685 176.901 41.7648 181.218 41.8506Z" fill="#FF8B7B"/>
<path d="M174.99 11.6064C174.99 11.6064 182.896 19.1625 179.258 27.728C177.669 31.6469 174.593 34.7769 170.702 36.4335L174.99 11.6064Z" fill="#263238"/>
<path d="M162.326 9.71737C162.326 9.71737 154.561 8.41806 152.901 16.9736C151.242 25.5292 151.652 28.6475 153.901 30.7764C156.899 33.575 161.607 30.5266 161.607 30.5266L162.326 9.71737Z" fill="#263238"/>
<path d="M167.174 44.879C167.131 45.0001 167.078 45.1172 167.014 45.2288C165.515 47.5775 167.144 49.7364 169.703 49.5465C169.951 49.5286 170.198 49.4952 170.442 49.4466C171.369 49.258 172.214 48.7865 172.861 48.0973C174.834 45.9784 176.969 44.0168 179.248 42.2303C175.38 40.1614 173.971 32.8152 173.621 28.2376L167.624 35.8636L166.504 37.5228C167.053 38.4507 167.489 39.4405 167.804 40.4712C168.066 41.2016 168.146 41.985 168.036 42.7533C167.927 43.5216 167.631 44.2513 167.174 44.879Z" fill="#FF8B7B"/>
<path d="M178.658 41.8406C180.765 41.3194 182.968 41.3194 185.075 41.8406L179.258 51.8354C176.189 49.6065 172.681 52.505 166.514 54.1642C171.618 51.25 175.819 46.9861 178.658 41.8406Z" fill="#407BFF"/>
<path d="M178.658 41.8406C180.765 41.3194 182.968 41.3194 185.075 41.8406L179.258 51.8354C176.189 49.6065 172.681 52.505 166.514 54.1642C171.618 51.25 175.819 46.9861 178.658 41.8406Z" fill="url(#paint5_linear_33_956)"/>
<path d="M168.075 42.3005C168.075 42.3005 164.516 41.6508 162.457 43.3C161.712 45.8776 161.157 48.5067 160.798 51.1659C160.798 51.1659 164.217 49.4567 166.515 54.1643C166.515 54.1743 165.346 46.7082 168.075 42.3005Z" fill="#407BFF"/>
<path d="M168.075 42.3005C168.075 42.3005 164.516 41.6508 162.457 43.3C161.712 45.8776 161.157 48.5067 160.798 51.1659C160.798 51.1659 164.217 49.4567 166.515 54.1643C166.515 54.1743 165.346 46.7082 168.075 42.3005Z" fill="url(#paint6_linear_33_956)"/>
<g opacity="0.2">
<path d="M167.814 40.4414C167.499 39.4106 167.063 38.4209 166.514 37.4929L167.634 35.8338L171.412 35.9138C170.749 37.7809 169.483 39.3739 167.814 40.4414Z" fill="black"/>
</g>
<path d="M174.72 20.042C175.32 27.578 175.72 30.7564 172.571 35.1141C167.814 41.6707 158.579 40.7212 155.8 33.505C153.281 27.0083 152.722 15.7642 159.478 11.7863C166.235 7.80833 174.12 12.4959 174.72 20.042Z" fill="#FF8B7B"/>
<path d="M173.061 24.9694C176.849 23.9699 175.36 20.062 175.36 20.062L169.793 20.9215C169.793 20.9215 169.283 25.9689 173.061 24.9694Z" fill="#263238"/>
<path d="M157 12.4558C157 12.4558 157.87 16.6137 162.997 16.8336C168.124 17.0535 167.664 24.6195 173.391 23.4201C179.118 22.2208 177.389 13.4253 174.971 11.5663C172.552 9.70728 162.717 5.60941 157 12.4558Z" fill="#263238"/>
<path d="M168.993 8.64793C168.993 8.64793 172.711 -2.34635 181.347 2.00139C189.982 6.34912 182.406 17.6632 176.929 16.194C171.452 14.7248 168.993 8.64793 168.993 8.64793Z" fill="#263238"/>
<path d="M158.939 31.6559C160.545 30.7356 162.047 29.643 163.416 28.3976C163.416 28.3976 163.956 31.2561 162.037 32.3155C161.533 32.6167 160.933 32.716 160.358 32.5937C159.784 32.4714 159.277 32.1364 158.939 31.6559Z" fill="white"/>
<path d="M162.317 23.4502C162.397 24.0599 162.147 24.5996 161.747 24.6496C161.347 24.6995 160.957 24.2598 160.877 23.6501C160.797 23.0404 161.037 22.5007 161.437 22.4507C161.837 22.4007 162.227 22.8405 162.317 23.4502Z" fill="#263238"/>
<path d="M156.129 24.4498C156.209 25.0595 155.959 25.5892 155.56 25.6492C155.16 25.7091 154.77 25.2594 154.69 24.6497C154.61 24.04 154.85 23.5003 155.25 23.4403C155.65 23.3804 156.039 23.8401 156.129 24.4398" fill="#263238"/>
<path d="M155.431 23.4501L153.912 23.2402C153.912 23.2402 154.821 24.2397 155.431 23.4501Z" fill="#263238"/>
<path d="M158.399 24.2798C158.399 24.2798 157.58 26.0389 156.64 27.5981C156.566 27.7155 156.52 27.848 156.505 27.9858C156.489 28.1236 156.505 28.263 156.551 28.3937C156.598 28.5245 156.673 28.6431 156.771 28.7407C156.87 28.8383 156.989 28.9124 157.12 28.9574C157.77 29.1599 158.44 29.2873 159.119 29.3372L158.399 24.2798Z" fill="#FF5652"/>
<path d="M178.108 24.8394C177.92 25.5016 177.594 26.1164 177.151 26.6436C176.708 27.1707 176.159 27.5981 175.539 27.8978C173.94 28.5874 172.861 26.8983 173.06 24.9693C173.25 23.2502 174.3 20.8015 176.059 20.9714C177.818 21.1413 178.687 23.1403 178.148 24.8794" fill="#FF8B7B"/>
<path d="M163.995 20.9615C163.895 20.9612 163.798 20.9218 163.726 20.8516C163.428 20.5049 163.053 20.2336 162.631 20.0599C162.209 19.8861 161.752 19.8149 161.297 19.8521C161.25 19.8606 161.202 19.8599 161.156 19.85C161.11 19.84 161.066 19.821 161.027 19.7941C160.988 19.7672 160.955 19.7329 160.929 19.6931C160.903 19.6533 160.886 19.6089 160.877 19.5623C160.868 19.5157 160.869 19.4679 160.879 19.4215C160.889 19.3752 160.908 19.3313 160.935 19.2923C160.962 19.2534 160.996 19.2201 161.036 19.1944C161.076 19.1686 161.12 19.151 161.167 19.1425C161.737 19.0755 162.314 19.1457 162.852 19.3474C163.389 19.5491 163.87 19.8764 164.255 20.3019C164.29 20.3346 164.318 20.3741 164.337 20.4179C164.356 20.4618 164.365 20.509 164.365 20.5568C164.365 20.6045 164.356 20.6518 164.337 20.6956C164.318 20.7394 164.29 20.7789 164.255 20.8116C164.224 20.8437 164.187 20.869 164.146 20.8862C164.104 20.9034 164.06 20.912 164.015 20.9116" fill="#263238"/>
<path d="M153.292 22.061C153.218 22.0676 153.145 22.0516 153.081 22.0152C153.017 21.9787 152.966 21.9236 152.934 21.8571C152.903 21.7907 152.892 21.7162 152.904 21.6436C152.916 21.5711 152.95 21.504 153.002 21.4513C153.352 20.9939 153.807 20.6279 154.33 20.3843C154.852 20.1406 155.425 20.0267 156 20.0521C156.096 20.0613 156.183 20.1081 156.244 20.1822C156.305 20.2562 156.334 20.3514 156.325 20.4468C156.316 20.5423 156.269 20.6301 156.195 20.691C156.121 20.7519 156.026 20.781 155.93 20.7717C155.477 20.7611 155.028 20.8579 154.62 21.0542C154.212 21.2505 153.856 21.5407 153.581 21.9011C153.52 21.9785 153.43 22.0288 153.332 22.041" fill="#263238"/>
<path d="M161.617 22.4507L160.098 22.2308C160.098 22.2308 161.007 23.2303 161.617 22.4507Z" fill="#263238"/>
<path d="M207.863 89.0462C204.755 94.0436 201.297 99.041 197.869 103.968L203.106 108.686C207.789 104.512 212.19 100.031 216.279 95.2729C218.457 92.7956 220.46 90.1707 222.276 87.417C222.746 86.6774 223.205 85.9178 223.655 85.0583C224.156 84.1175 224.58 83.1382 224.925 82.1298C225.149 81.4787 225.32 80.8101 225.434 80.1308C225.609 79.1054 225.609 78.0578 225.434 77.0324C225.276 76.1224 225.004 75.2358 224.625 74.3938C224.384 73.8287 224.11 73.278 223.805 72.7447C222.875 71.1366 221.823 69.6028 220.657 68.157C219.607 66.8077 218.558 65.5584 217.498 64.339C215.35 61.9403 213.201 59.6315 210.962 57.4226C206.524 52.9949 201.966 48.8371 197.129 44.8492L187.894 55.6735L201.197 67.6673C203.376 69.6663 205.565 71.6652 207.604 73.6642C208.603 74.6637 209.603 75.6631 210.602 76.6626C211.423 77.5298 212.197 78.4407 212.921 79.3912C212.861 79.5611 212.801 79.751 212.731 79.9309C212.521 80.4606 212.271 81.0403 212.011 81.63C210.758 84.1724 209.374 86.6478 207.863 89.0462Z" fill="#263238"/>
<path d="M198.257 101.759C198.257 101.759 192.35 103.958 191.441 105.108C190.531 106.257 196.328 112.794 198.577 113.703C200.826 114.613 199.676 111.904 199.676 111.904C199.676 111.904 202.585 112.584 203.934 110.375C205.284 108.166 203.694 102.129 198.257 101.759Z" fill="#FF8B7B"/>
<path d="M56.3516 274.25V289.702L62.5883 290.191L65.6467 275.729L56.3516 274.25Z" fill="#FFC3BD"/>
<path d="M60.7804 288.742C60.7804 288.742 62.7794 284.974 63.8988 285.374C65.0182 285.774 65.528 290.371 65.528 290.371C65.528 290.371 71.8247 292.47 73.5738 292.58C75.3229 292.69 76.7621 293.69 76.982 297.118H55.5032C55.5032 297.118 55.6531 289.372 55.6931 288.043C55.7331 286.713 57.6221 288.372 57.6221 288.372L60.7804 288.742Z" fill="#263238"/>
<path d="M55.7418 290.971C56.1249 291.183 56.4608 291.47 56.729 291.816C56.9971 292.162 57.1919 292.559 57.3013 292.983C57.4108 293.407 57.4327 293.849 57.3656 294.281C57.2985 294.714 57.1439 295.128 56.9112 295.499C56.8981 295.516 56.8888 295.537 56.8838 295.558C56.8789 295.579 56.8784 295.602 56.8824 295.623C56.8865 295.645 56.895 295.666 56.9074 295.684C56.9198 295.702 56.9358 295.718 56.9544 295.729C56.9731 295.741 56.9939 295.749 57.0157 295.752C57.0375 295.755 57.0597 295.754 57.081 295.748C57.1023 295.743 57.1222 295.733 57.1394 295.719C57.1566 295.705 57.1708 295.688 57.1811 295.669C57.4424 295.264 57.6182 294.81 57.6978 294.334C57.7774 293.859 57.7591 293.373 57.644 292.905C57.5289 292.437 57.3194 291.997 57.0284 291.613C56.7374 291.229 56.371 290.909 55.9517 290.671C55.7718 290.561 55.5619 290.861 55.7418 290.971Z" fill="white"/>
<path d="M55.7124 295.868L72.5637 296.048H76.4716C76.6915 296.048 76.7415 295.708 76.4716 295.708L59.6204 295.529H55.7024C55.4825 295.529 55.4426 295.868 55.7024 295.868H55.7124Z" fill="white"/>
<path d="M64.597 291.701C64.7613 291.452 64.9744 291.239 65.2235 291.075C65.4727 290.911 65.7525 290.8 66.0461 290.747C66.3396 290.695 66.6408 290.703 66.9312 290.77C67.2216 290.838 67.4952 290.964 67.7354 291.141C67.8953 291.281 68.1052 290.981 67.9452 290.851C66.8358 289.942 65.3266 290.331 64.3271 291.531C64.1772 291.711 64.4471 291.881 64.597 291.701Z" fill="white"/>
<path d="M66.3763 292.31C66.5406 292.061 66.7537 291.849 67.0028 291.685C67.252 291.521 67.5318 291.409 67.8254 291.357C68.1189 291.305 68.4201 291.312 68.7105 291.38C69.0009 291.448 69.2745 291.574 69.5147 291.751C69.6746 291.881 69.8845 291.591 69.7245 291.461C68.6151 290.551 67.1059 290.941 66.1064 292.14C65.9565 292.31 66.2264 292.49 66.3763 292.31Z" fill="white"/>
<path d="M68.2161 292.82C68.3794 292.57 68.5922 292.356 68.8412 292.191C69.0903 292.027 69.3704 291.915 69.6644 291.862C69.9584 291.81 70.26 291.818 70.5506 291.886C70.8413 291.955 71.1148 292.082 71.3545 292.26C71.5144 292.39 71.7243 292.1 71.5644 291.97C70.455 291.061 68.9458 291.451 67.9463 292.64C67.7963 292.82 68.0662 292.99 68.2161 292.82Z" fill="white"/>
<path d="M52.604 121.089C52.7839 123.848 52.4041 132.314 52.7739 136.861C53.4835 145.527 54.423 156.761 55.1727 168.015C56.0422 181.008 56.6619 194.091 56.3521 203.147C55.5525 226.405 55.7324 279.107 55.7324 279.107H65.8171C65.8171 279.107 77.661 226.734 79.8798 203.147C81.7288 183.607 80.7493 133.263 80.4395 121.089H52.604Z" fill="#263238"/>
<path opacity="0.2" d="M52.604 121.089C52.7839 123.848 52.4041 132.314 52.7739 136.861C53.4835 145.527 54.423 156.761 55.1727 168.015C56.0422 181.008 56.6619 194.091 56.3521 203.147C55.5525 226.405 55.7324 279.107 55.7324 279.107H65.8171C65.8171 279.107 77.661 226.734 79.8798 203.147C81.7288 183.607 80.7493 133.263 80.4395 121.089H52.604Z" fill="white"/>
<path opacity="0.2" d="M52.7729 136.861C53.4826 145.527 54.4221 156.761 55.1717 168.015C60.1691 153.323 55.5215 131.114 55.5215 131.114L52.7729 136.861Z" fill="black"/>
<path d="M54.853 279.457H66.6869L67.5564 275.679L54.5432 275.519L54.853 279.457Z" fill="url(#paint7_linear_33_956)"/>
<path d="M4.78895 271.361L2.43018 286.633L8.517 288.083L13.7443 274.25L4.78895 271.361Z" fill="#FFC3BD"/>
<path d="M6.94755 286.363C6.94755 286.363 9.46625 282.945 10.5457 283.515C11.6251 284.085 11.3952 288.682 11.3952 288.682C11.3952 288.682 17.2922 291.681 19.0113 292.1C20.7304 292.52 22.0097 293.68 21.6899 297.098L0.460938 293.82C0.460938 293.82 1.79024 286.184 2.03011 284.874C2.26999 283.565 3.87916 285.504 3.87916 285.504L6.94755 286.363Z" fill="#263238"/>
<path d="M1.63026 287.803C1.97659 288.07 2.26464 288.405 2.47671 288.787C2.68878 289.17 2.82038 289.592 2.86344 290.027C2.9065 290.462 2.86011 290.902 2.7271 291.319C2.59409 291.735 2.37729 292.12 2.09001 292.45C1.95008 292.63 2.18996 292.84 2.32989 292.66C2.64995 292.301 2.89314 291.88 3.04452 291.423C3.19589 290.966 3.25224 290.484 3.21011 290.004C3.16798 289.525 3.02828 289.059 2.79956 288.636C2.57084 288.213 2.25795 287.841 1.88013 287.543C1.72021 287.403 1.47034 287.663 1.63026 287.803Z" fill="white"/>
<path d="M0.850846 292.64L17.4722 295.379L21.3402 296.018C21.5601 296.018 21.65 295.728 21.4401 295.689L4.80878 292.94L0.940795 292.3C0.730905 292.3 0.63096 292.6 0.850846 292.64Z" fill="white"/>
<path d="M10.2754 289.872C10.4752 289.651 10.7178 289.474 10.9884 289.35C11.2591 289.226 11.5521 289.159 11.8495 289.153C12.147 289.146 12.4427 289.2 12.7185 289.312C12.9943 289.423 13.2445 289.59 13.4538 289.802C13.5937 289.951 13.8436 289.692 13.7036 289.542C12.7541 288.482 11.2049 288.632 10.0255 289.662C9.85564 289.812 10.0955 290.021 10.2754 289.872Z" fill="white"/>
<path d="M11.9445 290.691C12.1442 290.47 12.3871 290.292 12.6582 290.169C12.9293 290.045 13.2228 289.978 13.5207 289.973C13.8186 289.967 14.1145 290.023 14.39 290.136C14.6656 290.249 14.915 290.418 15.1229 290.631C15.2628 290.781 15.5127 290.521 15.3827 290.371C14.3833 289.302 12.8741 289.462 11.7047 290.481C11.5248 290.641 11.7746 290.851 11.9445 290.691Z" fill="white"/>
<path d="M13.6839 291.531C13.8828 291.309 14.1252 291.13 14.3959 291.006C14.6666 290.881 14.96 290.814 15.2579 290.807C15.5558 290.801 15.8518 290.855 16.1278 290.968C16.4037 291.08 16.6537 291.248 16.8622 291.461C17.0021 291.611 17.252 291.351 17.1121 291.201C16.1126 290.131 14.6034 290.291 13.434 291.321C13.2641 291.471 13.504 291.681 13.6839 291.531Z" fill="white"/>
<path d="M40.31 205.186C34.0733 228.024 13.1242 277.418 13.1242 277.418L3.12939 275.689C3.12939 275.689 13.484 224.296 18.2515 201.528C22.5593 180.978 27.2468 133.793 28.816 119.74L62.1787 122.739C60.3996 134.732 45.4374 186.236 40.2601 205.176L40.31 205.186Z" fill="#263238"/>
<path opacity="0.2" d="M40.31 205.186C34.0733 228.024 13.1242 277.418 13.1242 277.418L3.12939 275.689C3.12939 275.689 13.484 224.296 18.2515 201.528C22.5593 180.978 27.2468 133.793 28.816 119.74L62.1787 122.739C60.3996 134.732 45.4374 186.236 40.2601 205.176L40.31 205.186Z" fill="white"/>
<path d="M2.26001 275.889L13.9139 277.918L15.4232 274.35L2.42993 271.981L2.26001 275.889Z" fill="url(#paint8_linear_33_956)"/>
<path d="M85.4873 52.2653C84.9275 57.0928 84.008 67.2575 83.1085 78.7615C82.7787 83.0993 82.4389 87.6469 82.109 92.1446C81.7492 97.3518 81.4494 102.349 81.2195 106.897C81.1295 108.736 81.0496 110.505 80.9796 112.174C80.6598 120.46 80.6598 126.507 81.1195 128.326C55.303 138.78 27.2576 125.267 27.2576 125.267C28.9167 111.754 30.5858 96.3923 30.5858 96.3923C31.3754 90.6353 32.135 84.8184 32.8147 79.3312C32.8646 78.8915 32.9246 78.4417 32.9746 78.0119C33.3044 75.3133 33.6043 72.7147 33.8841 70.256L33.9841 69.3464C34.5238 64.4989 34.9835 60.2112 35.1834 56.783C35.6432 50.3163 39.5612 44.3094 45.4081 43.23C47.1772 42.9002 49.0862 42.6103 51.0652 42.3905C51.5349 42.3205 52.0647 42.2805 52.4944 42.2305C58.079 41.6138 63.6994 41.3834 69.3157 41.5409H70.1253H70.555C70.7849 41.5409 71.0248 41.5409 71.2547 41.5409C73.4862 41.6305 75.7114 41.8374 77.9212 42.1606C79.0826 42.3247 80.2002 42.7166 81.2097 43.3138C82.2193 43.9111 83.1009 44.7019 83.8039 45.6408C84.5069 46.5797 85.0176 47.6483 85.3064 48.7851C85.5953 49.922 85.6568 51.1047 85.4873 52.2653Z" fill="url(#paint9_linear_33_956)"/>
<path opacity="0.3" d="M68.0453 55.6334C68.0512 55.7978 68.0081 55.9602 67.9215 56.1C67.8349 56.2398 67.7087 56.3507 67.5589 56.4186C67.4091 56.4866 67.2425 56.5084 67.0803 56.4815C66.9181 56.4545 66.7675 56.3799 66.6477 56.2672C66.528 56.1545 66.4444 56.0087 66.4077 55.8484C66.3709 55.6881 66.3827 55.5205 66.4414 55.3669C66.5002 55.2133 66.6032 55.0806 66.7376 54.9856C66.8719 54.8907 67.0313 54.8379 67.1958 54.8338C67.4141 54.8284 67.6258 54.9093 67.7848 55.059C67.9439 55.2087 68.0375 55.4151 68.0453 55.6334Z" fill="white"/>
<path opacity="0.3" d="M68.1759 60.7508C68.1818 60.9152 68.1387 61.0776 68.0521 61.2174C67.9655 61.3572 67.8393 61.4681 67.6895 61.5361C67.5397 61.604 67.3732 61.6259 67.2109 61.5989C67.0487 61.5719 66.8981 61.4974 66.7783 61.3846C66.6586 61.2719 66.575 61.1261 66.5383 60.9658C66.5016 60.8055 66.5133 60.6379 66.572 60.4843C66.6308 60.3307 66.7338 60.198 66.8682 60.1031C67.0025 60.0082 67.162 59.9553 67.3264 59.9512C67.5447 59.9458 67.7564 60.0268 67.9155 60.1765C68.0745 60.3262 68.1681 60.5326 68.1759 60.7508Z" fill="white"/>
<path opacity="0.3" d="M68.3464 65.8681C68.3522 66.0325 68.3092 66.1949 68.2225 66.3347C68.1359 66.4745 68.0097 66.5854 67.8599 66.6534C67.7102 66.7213 67.5436 66.7432 67.3813 66.7162C67.2191 66.6892 67.0685 66.6147 66.9488 66.502C66.829 66.3892 66.7454 66.2435 66.7087 66.0832C66.672 65.9229 66.6837 65.7552 66.7425 65.6016C66.8012 65.448 66.9042 65.3153 67.0386 65.2204C67.1729 65.1255 67.3324 65.0726 67.4968 65.0686C67.7151 65.0631 67.9268 65.1441 68.0859 65.2938C68.2449 65.4435 68.3385 65.6499 68.3464 65.8681Z" fill="white"/>
<path opacity="0.2" d="M52.6045 66.2379C52.6045 66.2379 53.604 88.5063 55.3231 90.2254C57.0422 91.9445 77.9713 100.36 77.9713 100.36C65.9775 98.9709 55.2731 97.0819 49.9858 93.044C48.0568 87.6468 50.8254 76.3127 52.6045 66.2379Z" fill="black"/>
<path opacity="0.2" d="M81.2486 106.897C81.1587 108.736 81.0787 110.505 81.0087 112.174C73.6226 111.694 46.1969 111.315 38.6608 100.48C34.2531 94.1335 36.4119 68.257 36.4119 68.257C39.1152 77.1737 44.0573 85.2495 50.7671 91.7144C57.477 98.1793 65.7309 102.818 74.742 105.188L81.2486 106.897Z" fill="black"/>
<path d="M122.087 77.3323C118.869 77.1424 115.651 76.9625 112.542 76.6726C111.013 76.5227 109.464 76.3628 108.155 76.1629L107.545 76.053C107.466 75.9561 107.379 75.8659 107.285 75.7831C106.615 75.1434 105.586 74.074 104.656 72.9845C103.727 71.8951 102.727 70.6857 101.758 69.4764C99.809 67.0676 97.88 64.5389 95.951 62.0003C92.113 56.9129 88.245 51.6856 84.347 46.6483L71.3538 56.0234C75.1718 61.5605 79.1997 66.7678 83.5274 71.9151C85.6863 74.4838 87.9152 77.0025 90.2739 79.5211C91.4733 80.7705 92.6927 81.9998 94.012 83.2592C95.4425 84.6542 96.9724 85.9436 98.5896 87.1172C99.0693 87.457 99.5891 87.8268 100.339 88.2266L100.928 88.5464L101.668 88.8763C101.908 88.9762 102.308 89.1162 102.667 89.2161L103.017 89.306L103.317 89.376C104.487 89.6304 105.678 89.7776 106.875 89.8158C108.814 89.9157 110.543 89.8158 112.282 89.8158C115.721 89.6659 119.049 89.416 122.367 89.0762C126.432 88.6631 130.473 88.17 134.491 87.5969L135.58 87.1072L136.58 86.6374C136.79 86.342 136.984 86.035 137.16 85.7179C137.829 84.5985 138.539 83.2292 139.218 81.8299C139.758 80.7305 140.308 79.5911 140.828 78.4317C134.581 77.9619 128.284 77.6821 122.087 77.3323ZM106.855 75.853H106.915C107.044 75.8843 107.171 75.9244 107.295 75.973H107.405C107.217 75.9576 107.032 75.9173 106.855 75.853Z" fill="url(#paint10_linear_33_956)"/>
<path opacity="0.2" d="M86.0565 74.8335L83.7976 59.1917L83.3379 71.6752L86.0565 74.8335Z" fill="black"/>
<path d="M70.6643 6.86881C68.7992 6.31749 66.8409 6.15455 64.9103 6.39007C62.9798 6.62559 61.118 7.25455 59.4402 8.23809C57.2413 9.5674 55.3823 11.4964 55.6022 14.235C56.2675 19.8891 57.2485 25.5016 58.5407 31.0462L79.3098 20.0519C79.3098 20.0519 80.5392 14.6548 77.8206 11.4264C75.9701 9.19665 73.4675 7.60277 70.6643 6.86881Z" fill="#263238"/>
<path d="M62.6491 6.84887C61.3497 6.84081 60.0629 7.10323 58.8704 7.61944C57.678 8.13565 56.606 8.89436 55.7227 9.84731C53.4539 12.4959 56.2524 19.2924 56.2524 19.2924L62.6491 6.84887Z" fill="#263238"/>
<path d="M60.5396 7.64845C60.5396 7.64845 61.3391 4.8599 69.8147 4.8599C78.2903 4.8599 83.4576 4.75996 82.3882 9.64741C80.9789 16.124 70.6143 13.7553 70.6143 13.7553L60.5396 7.64845Z" fill="#263238"/>
<path d="M68.3755 38.3025V38.3725L67.2461 41.9606C67.1387 42.6884 67.0952 43.4242 67.1162 44.1595C67.1383 44.7529 67.2017 45.344 67.3061 45.9286C68.0557 47.058 68.3056 49.5567 65.487 49.4368C61.8989 49.2968 55.4922 44.0895 55.3523 42.5004C57.2313 37.6829 58.9304 31.696 58.8805 27.0084L62.7584 31.616L68.3755 38.3025Z" fill="#FFC3BD"/>
<g opacity="0.2">
<path d="M68.3464 38.3825L67.217 41.9706C65.0281 40.8512 62.7793 38.5324 62.3595 36.1237C62.0597 34.3946 62.9092 32.8154 63.6089 32.7554L68.3464 38.3825Z" fill="black"/>
</g>
<path d="M77.7613 31.1962C77.5115 31.9758 77.2416 32.7354 76.9518 33.495C74.3831 40.1615 65.9575 40.4014 61.03 35.1741C60.5804 34.6951 60.1662 34.1841 59.7907 33.6449C56.6923 29.1573 57.6718 25.849 58.5114 18.2929C58.6868 16.5333 59.3096 14.8479 60.3204 13.3969C61.3312 11.946 62.6964 10.7778 64.2862 10.0034C65.8759 9.22908 67.6374 8.87435 69.4029 8.97299C71.1685 9.07162 72.8795 9.62034 74.3731 10.5669C80.5299 14.4549 80.25 23.3903 77.7613 31.1962Z" fill="#FFC3BD"/>
<path d="M68.4853 27.8278C70.0758 28.7409 71.714 29.5684 73.3928 30.3065C73.1805 30.6217 72.9051 30.8895 72.584 31.0929C72.263 31.2962 71.9032 31.4308 71.5275 31.4881C71.1518 31.5454 70.7683 31.5242 70.4012 31.4257C70.0342 31.3273 69.6915 31.1538 69.3949 30.9162C68.9517 30.5515 68.6281 30.0622 68.466 29.5117C68.3038 28.9611 68.3106 28.3745 68.4853 27.8278Z" fill="white"/>
<path d="M74.9618 9.80733C71.4536 7.21868 64.2174 6.3991 61.129 9.80733C58.0406 13.2156 58.3804 18.9426 58.3804 18.9426C58.3759 19.5645 58.6082 20.1648 59.0301 20.6217C59.1168 20.7054 59.197 20.7956 59.27 20.8916L63.008 21.2714C63.2079 19.7222 63.6477 16.9036 64.6772 16.6937C66.6162 16.294 65.1469 14.225 65.4967 12.9957C66.6062 8.99774 77.4905 10.9967 79.0397 16.9236C78.5911 14.1345 77.1413 11.6045 74.9618 9.80733Z" fill="#263238"/>
<path d="M54.4126 22.7007C54.6298 24.5991 55.5892 26.3345 57.0812 27.5282C59.0801 29.0974 61.0791 27.5282 61.299 25.1594C61.5289 23.0106 60.7693 19.6123 58.3805 18.9727C57.8532 18.8383 57.3005 18.8386 56.7733 18.9735C56.2461 19.1084 55.7613 19.3736 55.3633 19.7448C54.9653 20.1159 54.6669 20.581 54.4956 21.0975C54.3242 21.614 54.2854 22.1653 54.3826 22.7007" fill="#FFC3BD"/>
<path d="M69.7148 22.1808C69.6148 22.7605 69.8447 23.2902 70.2245 23.3502C70.6043 23.4102 70.9941 23.0004 71.0941 22.4207C71.194 21.841 70.9641 21.3113 70.5843 21.2513C70.2045 21.1913 69.8147 21.6011 69.7148 22.1808Z" fill="#263238"/>
<path d="M75.8615 23.2303C75.7615 23.81 75.9814 24.3397 76.3612 24.3997C76.741 24.4597 77.1308 24.0499 77.2308 23.4702C77.3307 22.8905 77.1108 22.3608 76.731 22.3008C76.3512 22.2408 75.9614 22.6506 75.8615 23.2303Z" fill="#263238"/>
<path d="M78.3609 21.3313C78.3068 21.3222 78.256 21.2989 78.2139 21.2637C78.1717 21.2286 78.1397 21.1829 78.121 21.1314C78.0695 20.919 77.9733 20.72 77.8388 20.5476C77.7044 20.3753 77.5349 20.2336 77.3414 20.1319C76.941 19.9868 76.5024 19.9868 76.102 20.1319C76.0276 20.1586 75.9459 20.1559 75.8734 20.1243C75.8009 20.0928 75.7433 20.0347 75.7122 19.962C75.6977 19.9252 75.6905 19.886 75.6912 19.8465C75.6919 19.807 75.7004 19.768 75.7161 19.7317C75.7319 19.6955 75.7547 19.6628 75.7832 19.6354C75.8117 19.608 75.8453 19.5865 75.8821 19.5722C76.4316 19.3575 77.0418 19.3575 77.5913 19.5722C77.8554 19.7021 78.0896 19.8856 78.2789 20.111C78.4682 20.3365 78.6084 20.5988 78.6907 20.8815C78.705 20.9188 78.7117 20.9587 78.7103 20.9987C78.709 21.0387 78.6997 21.078 78.6829 21.1143C78.6661 21.1506 78.6423 21.1832 78.6127 21.2102C78.5831 21.2372 78.5485 21.2579 78.5108 21.2713C78.4657 21.3018 78.4146 21.3222 78.3609 21.3313Z" fill="#263238"/>
<path d="M68.3164 19.5921C68.2659 19.5827 68.2182 19.5622 68.1765 19.5322C68.1421 19.5074 68.113 19.4761 68.0909 19.44C68.0688 19.4039 68.054 19.3638 68.0475 19.3219C68.041 19.2801 68.0429 19.2374 68.053 19.1962C68.0631 19.1551 68.0813 19.1164 68.1065 19.0824C68.4835 18.562 69.0446 18.2046 69.6757 18.0829C69.9935 18.0441 70.3159 18.072 70.6222 18.1649C70.9286 18.2578 71.2122 18.4138 71.4548 18.6226C71.4944 18.6467 71.5285 18.6789 71.5548 18.717C71.5812 18.7552 71.5992 18.7984 71.6077 18.844C71.6162 18.8896 71.615 18.9364 71.6042 18.9815C71.5933 19.0266 71.5731 19.0688 71.5449 19.1056C71.5166 19.1423 71.4809 19.1727 71.4401 19.1947C71.3993 19.2167 71.3544 19.2299 71.3081 19.2334C71.2619 19.2369 71.2155 19.2306 71.1719 19.2149C71.1282 19.1992 71.0884 19.1745 71.055 19.1424C70.8823 18.9915 70.6807 18.8773 70.4625 18.8069C70.2442 18.7364 70.014 18.7112 69.7856 18.7326C69.3318 18.8286 68.9254 19.0795 68.6362 19.4422C68.6035 19.4959 68.5558 19.5387 68.4989 19.5653C68.442 19.592 68.3785 19.6013 68.3164 19.5921Z" fill="#263238"/>
<path d="M73.7127 22.0809C73.9881 23.6125 74.4548 25.1034 75.102 26.5186C76.0315 28.3176 72.7932 27.8279 72.7932 27.8279L73.7127 22.0809Z" fill="#ED847E"/>
<path d="M89.8646 103.309L89.1349 110.475C81.6988 110.531 74.2679 110.066 66.8965 109.086C63.0968 108.602 59.3288 107.894 55.6124 106.967C53.6225 106.485 51.666 105.874 49.7554 105.138C48.692 104.73 47.651 104.267 46.637 103.748C45.4343 103.145 44.2957 102.422 43.2388 101.589C42.929 101.33 42.6391 101.1 42.3193 100.79L41.8395 100.34L41.3598 99.8104C41.025 99.4245 40.7114 99.0208 40.4203 98.6011C40.0887 98.104 39.7947 97.5828 39.5407 97.0419C39.2496 96.4294 39.0186 95.79 38.8511 95.1329L38.6212 94.2233C38.4713 93.6336 38.3913 93.1339 38.2714 92.5842C37.8716 90.4753 37.6117 88.5863 37.3919 86.5873C36.9621 82.7693 36.7422 79.0412 36.5823 75.3332L36.4224 69.7861V64.2789C36.4224 60.5809 36.5323 56.9527 36.7922 53.2247L52.7838 53.8044C52.7838 60.8607 52.6139 68.047 52.544 75.0833C52.544 78.6015 52.544 82.0797 52.544 85.4979C52.544 87.177 52.6539 88.8561 52.8038 90.3154C52.8038 90.6252 52.8038 90.975 52.8938 91.2549C53.6245 91.7995 54.4002 92.281 55.2126 92.6941C56.6106 93.4145 58.0451 94.0617 59.5104 94.6331C62.5888 95.8525 65.887 96.9119 69.2353 97.9114C75.9618 99.9204 82.9681 101.639 89.8646 103.309Z" fill="url(#paint11_linear_33_956)"/>
<path d="M88.7947 103.469C88.7947 103.469 96.2308 101.52 97.79 101.839C99.5491 102.199 98.7395 111.464 96.4607 112.734C94.1819 114.003 88.5249 109.895 88.5249 109.895C87.2255 106.877 87.6353 104.408 88.7947 103.469Z" fill="#FFC3BD"/>
<path d="M88.7942 103.469C89.7568 102.444 90.9115 101.619 92.1924 101.04C93.8616 100.45 95.5007 99.5806 96.2603 99.8805C97.0199 100.18 94.4213 102.179 94.4213 102.179L88.7942 103.469Z" fill="#FFC3BD"/>
<path d="M97.8002 101.839C97.8002 101.839 102.368 103.129 103.797 105.018C105.226 106.907 101.158 105.757 101.158 105.757C101.158 105.757 105.916 107.497 103.957 111.135C102.958 112.914 97.5003 113.264 94.9617 112.944C95.0316 112.944 95.0316 105.198 97.8002 101.839Z" fill="#FFC3BD"/>
<path d="M56.4222 39.5118C55.342 39.5787 54.2943 39.9076 53.3696 40.4701C52.4449 41.0325 51.6711 41.8117 51.115 42.7402L60.9699 54.3341C60.9699 54.3341 60.8999 50.1463 66.3071 49.3367C66.3071 49.4367 59.0509 44.1094 56.4222 39.5118Z" fill="#407BFF"/>
<path d="M56.4222 39.5118C55.342 39.5787 54.2943 39.9076 53.3696 40.4701C52.4449 41.0325 51.6711 41.8117 51.115 42.7402L60.9699 54.3341C60.9699 54.3341 60.8999 50.1463 66.3071 49.3367C66.3071 49.4367 59.0509 44.1094 56.4222 39.5118Z" fill="url(#paint12_linear_33_956)"/>
<path d="M66.3066 49.4367C66.3066 49.4367 66.9363 42.9301 67.3661 41.5408L67.9258 39.7617C67.9258 39.7617 71.8038 39.8217 73.1331 41.7607L72.6134 51.6755C70.7761 50.3271 68.5829 49.5486 66.3066 49.4367Z" fill="#407BFF"/>
<path d="M66.3066 49.4367C66.3066 49.4367 66.9363 42.9301 67.3661 41.5408L67.9258 39.7617C67.9258 39.7617 71.8038 39.8217 73.1331 41.7607L72.6134 51.6755C70.7761 50.3271 68.5829 49.5486 66.3066 49.4367Z" fill="url(#paint13_linear_33_956)"/>
<defs>
<linearGradient id="paint0_linear_33_956" x1="145.857" y1="98.7166" x2="205.079" y2="108.226" gradientUnits="userSpaceOnUse">
<stop stop-color="#ED237F"/>
<stop offset="0.302083" stop-color="#E93068"/>
<stop offset="0.578125" stop-color="#F14272"/>
<stop offset="0.848958" stop-color="#DF5775"/>
<stop offset="1" stop-color="#DF5775"/>
</linearGradient>
<linearGradient id="paint1_linear_33_956" x1="170.071" y1="99.6442" x2="229.271" y2="109.197" gradientUnits="userSpaceOnUse">
<stop stop-color="#ED237F"/>
<stop offset="0.302083" stop-color="#E93068"/>
<stop offset="0.578125" stop-color="#F14272"/>
<stop offset="0.848958" stop-color="#DF5775"/>
<stop offset="1" stop-color="#DF5775"/>
</linearGradient>
<linearGradient id="paint2_linear_33_956" x1="166.172" y1="57.0879" x2="167.437" y2="58.1506" gradientUnits="userSpaceOnUse">
<stop stop-color="#ED237F"/>
<stop offset="0.302083" stop-color="#E93068"/>
<stop offset="0.578125" stop-color="#F14272"/>
<stop offset="0.848958" stop-color="#DF5775"/>
<stop offset="1" stop-color="#DF5775"/>
</linearGradient>
<linearGradient id="paint3_linear_33_956" x1="165.803" y1="62.4245" x2="167.078" y2="63.4962" gradientUnits="userSpaceOnUse">
<stop stop-color="#ED237F"/>
<stop offset="0.302083" stop-color="#E93068"/>
<stop offset="0.578125" stop-color="#F14272"/>
<stop offset="0.848958" stop-color="#DF5775"/>
<stop offset="1" stop-color="#DF5775"/>
</linearGradient>
<linearGradient id="paint4_linear_33_956" x1="165.813" y1="67.8623" x2="167.078" y2="68.925" gradientUnits="userSpaceOnUse">
<stop stop-color="#ED237F"/>
<stop offset="0.302083" stop-color="#E93068"/>
<stop offset="0.578125" stop-color="#F14272"/>
<stop offset="0.848958" stop-color="#DF5775"/>
<stop offset="1" stop-color="#DF5775"/>
</linearGradient>
<linearGradient id="paint5_linear_33_956" x1="167.575" y1="40.7511" x2="181.13" y2="57.38" gradientUnits="userSpaceOnUse">
<stop stop-color="#ED237F"/>
<stop offset="0.302083" stop-color="#E93068"/>
<stop offset="0.578125" stop-color="#F14272"/>
<stop offset="0.848958" stop-color="#DF5775"/>
<stop offset="1" stop-color="#DF5775"/>
</linearGradient>
<linearGradient id="paint6_linear_33_956" x1="161.214" y1="41.5155" x2="171.778" y2="46.9031" gradientUnits="userSpaceOnUse">
<stop stop-color="#ED237F"/>
<stop offset="0.302083" stop-color="#E93068"/>
<stop offset="0.578125" stop-color="#F14272"/>
<stop offset="0.848958" stop-color="#DF5775"/>
<stop offset="1" stop-color="#DF5775"/>
</linearGradient>
<linearGradient id="paint7_linear_33_956" x1="55.2868" y1="275.303" x2="58.0193" y2="282.891" gradientUnits="userSpaceOnUse">
<stop stop-color="#ED237F"/>
<stop offset="0.302083" stop-color="#E93068"/>
<stop offset="0.578125" stop-color="#F14272"/>
<stop offset="0.848958" stop-color="#DF5775"/>
<stop offset="1" stop-color="#DF5775"/>
</linearGradient>
<linearGradient id="paint8_linear_33_956" x1="3.01219" y1="271.655" x2="8.39712" y2="281.688" gradientUnits="userSpaceOnUse">
<stop stop-color="#ED237F"/>
<stop offset="0.302083" stop-color="#E93068"/>
<stop offset="0.578125" stop-color="#F14272"/>
<stop offset="0.848958" stop-color="#DF5775"/>
<stop offset="1" stop-color="#DF5775"/>
</linearGradient>
<linearGradient id="paint9_linear_33_956" x1="30.5903" y1="36.5039" x2="113.213" y2="81.1045" gradientUnits="userSpaceOnUse">
<stop stop-color="#ED237F"/>
<stop offset="0.302083" stop-color="#E93068"/>
<stop offset="0.578125" stop-color="#F14272"/>
<stop offset="0.848958" stop-color="#DF5775"/>
<stop offset="1" stop-color="#DF5775"/>
</linearGradient>
<linearGradient id="paint10_linear_33_956" x1="75.3237" y1="44.274" x2="120.304" y2="105.05" gradientUnits="userSpaceOnUse">
<stop stop-color="#ED237F"/>
<stop offset="0.302083" stop-color="#E93068"/>
<stop offset="0.578125" stop-color="#F14272"/>
<stop offset="0.848958" stop-color="#DF5775"/>
<stop offset="1" stop-color="#DF5775"/>
</linearGradient>
<linearGradient id="paint11_linear_33_956" x1="39.4762" y1="50.0788" x2="100.001" y2="97.5572" gradientUnits="userSpaceOnUse">
<stop stop-color="#ED237F"/>
<stop offset="0.302083" stop-color="#E93068"/>
<stop offset="0.578125" stop-color="#F14272"/>
<stop offset="0.848958" stop-color="#DF5775"/>
<stop offset="1" stop-color="#DF5775"/>
</linearGradient>
<linearGradient id="paint12_linear_33_956" x1="51.9831" y1="38.6974" x2="67.9381" y2="52.4406" gradientUnits="userSpaceOnUse">
<stop stop-color="#ED237F"/>
<stop offset="0.302083" stop-color="#E93068"/>
<stop offset="0.578125" stop-color="#F14272"/>
<stop offset="0.848958" stop-color="#DF5775"/>
<stop offset="1" stop-color="#DF5775"/>
</linearGradient>
<linearGradient id="paint13_linear_33_956" x1="66.6967" y1="39.1071" x2="76.8345" y2="43.9889" gradientUnits="userSpaceOnUse">
<stop stop-color="#ED237F"/>
<stop offset="0.302083" stop-color="#E93068"/>
<stop offset="0.578125" stop-color="#F14272"/>
<stop offset="0.848958" stop-color="#DF5775"/>
<stop offset="1" stop-color="#DF5775"/>
</linearGradient>
</defs>
</svg>
