<svg width="443" height="443" viewBox="0 0 443 443" fill="none" xmlns="http://www.w3.org/2000/svg">
<path d="M221.742 378.367C316.324 378.367 392.998 373.891 392.998 368.369C392.998 362.847 316.324 358.37 221.742 358.37C127.159 358.37 50.4854 362.847 50.4854 368.369C50.4854 373.891 127.159 378.367 221.742 378.367Z" fill="#F5F5F5"/>
<path d="M145.173 177.908C148.842 155.31 133.496 134.018 110.899 130.35C88.3016 126.682 67.0093 142.027 63.3412 164.625C59.6731 187.222 75.0184 208.514 97.6157 212.182C120.213 215.85 141.505 200.505 145.173 177.908Z" fill="#407BFF"/>
<path opacity="0.7" d="M145.173 177.908C148.842 155.31 133.496 134.018 110.899 130.35C88.3016 126.682 67.0093 142.027 63.3412 164.625C59.6731 187.222 75.0184 208.514 97.6157 212.182C120.213 215.85 141.505 200.505 145.173 177.908Z" fill="#FAFAFA"/>
<path d="M81.8412 170.562C81.8412 165.35 82.7804 161.702 84.6588 159.618C86.5372 157.533 89.3961 156.491 93.2353 156.491C94.78 156.445 96.3205 156.675 97.7841 157.171C98.8619 157.558 99.8504 158.159 100.69 158.938C101.392 159.609 101.988 160.384 102.457 161.234C102.917 162.127 103.264 163.073 103.49 164.052C104.008 166.147 104.266 168.298 104.258 170.456C104.258 175.425 103.416 179.067 101.732 181.382C100.048 183.696 97.1482 184.85 93.0322 184.844C91.1043 184.926 89.1847 184.548 87.4323 183.74C85.9848 183 84.764 181.883 83.8992 180.507C83.1363 179.229 82.6126 177.822 82.3535 176.356C81.9868 174.447 81.8152 172.505 81.8412 170.562ZM89.4019 170.562C89.4019 174.053 89.6964 176.438 90.2852 177.716C90.4835 178.264 90.8423 178.741 91.3149 179.082C91.7875 179.424 92.352 179.616 92.935 179.633C93.6872 179.638 94.4109 179.346 94.9488 178.82C95.6029 178.1 96.038 177.208 96.2031 176.25C96.5198 174.439 96.653 172.602 96.6006 170.765C96.6006 167.114 96.3061 164.664 95.7173 163.416C95.4984 162.859 95.1164 162.382 94.6215 162.046C94.1266 161.711 93.5419 161.532 92.9438 161.535C92.3425 161.525 91.7535 161.706 91.2615 162.052C90.7695 162.398 90.3999 162.891 90.2057 163.46C89.6699 164.75 89.4019 167.126 89.4019 170.588V170.562Z" fill="#FAFAFA"/>
<path d="M124.68 156.491V184.438H116.969V166.154C115.835 167.032 114.623 167.804 113.347 168.459C111.925 169.142 110.448 169.703 108.931 170.138V163.893C111.111 163.264 113.158 162.244 114.972 160.881C116.411 159.706 117.565 158.22 118.347 156.535L124.68 156.491Z" fill="#FAFAFA"/>
<path d="M227.486 180.773C232.745 158.492 218.946 136.166 196.665 130.908C174.384 125.649 152.059 139.448 146.8 161.729C141.541 184.01 155.34 206.335 177.621 211.594C199.902 216.853 222.228 203.054 227.486 180.773Z" fill="#407BFF"/>
<path opacity="0.7" d="M227.486 180.773C232.745 158.492 218.946 136.166 196.665 130.908C174.384 125.649 152.059 139.448 146.8 161.729C141.541 184.01 155.34 206.335 177.621 211.594C199.902 216.853 222.228 203.054 227.486 180.773Z" fill="#FAFAFA"/>
<path d="M163.031 170.562C163.031 165.35 163.97 161.702 165.849 159.618C167.727 157.533 170.586 156.491 174.425 156.491C175.97 156.445 177.51 156.675 178.974 157.171C180.05 157.556 181.036 158.157 181.871 158.938C182.575 159.607 183.171 160.382 183.638 161.234C184.098 162.127 184.445 163.073 184.671 164.052C185.189 166.147 185.447 168.298 185.439 170.456C185.439 175.425 184.597 179.067 182.913 181.382C181.229 183.696 178.329 184.85 174.213 184.844C172.285 184.927 170.365 184.549 168.613 183.74C167.166 183 165.945 181.883 165.08 180.507C164.317 179.229 163.794 177.822 163.534 176.356C163.171 174.446 163.002 172.505 163.031 170.562ZM170.592 170.562C170.592 174.053 170.886 176.438 171.475 177.716C171.673 178.265 172.032 178.741 172.505 179.082C172.977 179.424 173.542 179.616 174.125 179.633C174.496 179.636 174.864 179.566 175.208 179.426C175.553 179.287 175.866 179.081 176.13 178.82C176.791 178.105 177.227 177.211 177.384 176.25C177.709 174.44 177.846 172.602 177.79 170.765C177.79 167.114 177.481 164.664 176.863 163.416C176.643 162.858 176.26 162.38 175.764 162.044C175.267 161.708 174.68 161.53 174.081 161.535C173.481 161.527 172.894 161.709 172.404 162.054C171.913 162.4 171.545 162.892 171.351 163.46C170.866 164.758 170.592 167.126 170.592 170.588V170.562Z" fill="#FAFAFA"/>
<path d="M210.904 184.438H188.027C188.302 182.153 189.123 179.969 190.421 178.069C191.746 176.085 194.237 173.729 197.893 171.003C199.48 169.936 200.921 168.665 202.177 167.223C202.742 166.528 203.07 165.671 203.114 164.776C203.124 164.377 203.051 163.979 202.899 163.609C202.747 163.24 202.519 162.906 202.23 162.63C201.582 162.049 200.742 161.727 199.872 161.727C199.002 161.727 198.162 162.049 197.514 162.63C196.771 163.554 196.335 164.687 196.268 165.871L188.637 165.253C188.809 163.476 189.373 161.76 190.289 160.227C191.119 158.994 192.292 158.03 193.663 157.454C195.589 156.733 197.64 156.405 199.695 156.491C201.82 156.393 203.943 156.693 205.958 157.374C207.396 157.929 208.629 158.913 209.491 160.192C210.343 161.447 210.79 162.933 210.771 164.449C210.763 166.154 210.253 167.819 209.305 169.237C207.862 171.221 206.066 172.921 204.006 174.254C202.469 175.313 201.444 176.055 200.932 176.479C200.42 176.903 199.81 177.46 199.103 178.149H211.01L210.904 184.438Z" fill="#FAFAFA"/>
<path d="M269.259 188.55C292.123 187.4 309.726 167.932 308.576 145.068C307.426 122.204 287.958 104.601 265.094 105.752C242.23 106.902 224.627 126.369 225.777 149.234C226.928 172.098 246.395 189.7 269.259 188.55Z" fill="#407BFF"/>
<path opacity="0.7" d="M269.259 188.55C292.123 187.4 309.726 167.932 308.576 145.068C307.426 122.204 287.958 104.601 265.094 105.752C242.23 106.902 224.627 126.369 225.777 149.234C226.928 172.098 246.395 189.7 269.259 188.55Z" fill="#FAFAFA"/>
<path d="M246.005 155.131C244.021 150.308 243.499 146.578 244.442 143.94C245.384 141.302 247.63 139.241 251.181 137.757C252.593 137.126 254.107 136.755 255.65 136.662C256.794 136.605 257.938 136.789 259.007 137.201C259.912 137.552 260.758 138.04 261.515 138.649C262.284 139.298 262.969 140.04 263.555 140.857C264.83 142.597 265.886 144.487 266.7 146.484C268.602 151.083 269.211 154.772 268.528 157.551C267.845 160.33 265.605 162.521 261.807 164.123C260.052 164.925 258.135 165.306 256.207 165.235C254.596 165.086 253.055 164.513 251.737 163.575C250.55 162.683 249.532 161.585 248.734 160.333C247.65 158.696 246.735 156.953 246.005 155.131ZM253.009 152.269C254.334 155.502 255.535 157.569 256.586 158.531C256.984 158.967 257.503 159.272 258.077 159.406C258.651 159.54 259.253 159.497 259.802 159.282C260.148 159.145 260.464 158.939 260.731 158.679C260.998 158.418 261.21 158.107 261.356 157.763C261.691 156.849 261.753 155.858 261.533 154.91C261.144 153.112 260.57 151.36 259.819 149.681C258.424 146.313 257.205 144.167 256.162 143.242C255.747 142.811 255.211 142.516 254.624 142.396C254.037 142.276 253.428 142.337 252.877 142.571C252.325 142.794 251.857 143.186 251.54 143.69C251.223 144.194 251.072 144.785 251.11 145.38C251.063 146.775 251.696 149.072 253.009 152.269Z" fill="#FAFAFA"/>
<path d="M274.314 137.333L267.159 138.879C266.804 136.743 267.224 134.55 268.343 132.696C269.456 130.929 271.452 129.457 274.331 128.28C277.644 126.911 280.293 126.513 282.281 127.167C283.212 127.43 284.069 127.905 284.786 128.555C285.503 129.205 286.06 130.011 286.414 130.912C286.868 131.967 286.983 133.137 286.741 134.259C286.437 135.535 285.831 136.719 284.975 137.713C285.832 137.559 286.707 137.532 287.572 137.633C288.602 137.792 289.571 138.222 290.38 138.879C291.257 139.611 291.93 140.557 292.332 141.626C292.943 143.121 293.147 144.751 292.924 146.351C292.712 148.025 291.997 149.596 290.875 150.856C289.4 152.405 287.586 153.59 285.575 154.318C283.751 155.154 281.785 155.64 279.781 155.749C278.296 155.775 276.829 155.425 275.515 154.733C274.115 153.945 272.889 152.882 271.911 151.607L278.571 147.773C279.143 148.812 280.014 149.655 281.071 150.193C281.904 150.5 282.825 150.465 283.632 150.096C284.082 149.922 284.488 149.652 284.823 149.304C285.157 148.956 285.411 148.539 285.567 148.082C285.909 147.045 285.839 145.916 285.372 144.929C285.023 143.909 284.291 143.063 283.332 142.571C282.882 142.368 282.394 142.263 281.901 142.263C281.408 142.263 280.92 142.368 280.47 142.571C279.71 142.929 279 143.387 278.359 143.931L276.646 138.746C276.969 138.669 277.288 138.571 277.599 138.455C278.463 138.121 279.161 137.461 279.543 136.618C279.729 136.234 279.831 135.814 279.842 135.388C279.852 134.961 279.772 134.537 279.604 134.145C279.484 133.798 279.294 133.48 279.044 133.211C278.795 132.942 278.492 132.727 278.156 132.581C277.804 132.446 277.428 132.384 277.052 132.399C276.675 132.414 276.305 132.506 275.965 132.669C275.589 132.807 275.243 133.019 274.949 133.292C274.654 133.565 274.418 133.894 274.252 134.259C273.945 135.264 273.966 136.341 274.314 137.333Z" fill="#FAFAFA"/>
<path d="M393.283 180.781C398.542 158.5 384.743 136.175 362.462 130.916C340.181 125.657 317.856 139.456 312.597 161.737C307.338 184.018 321.137 206.344 343.418 211.602C365.699 216.861 388.024 203.062 393.283 180.781Z" fill="#407BFF"/>
<path opacity="0.7" d="M393.283 180.781C398.542 158.5 384.743 136.175 362.462 130.916C340.181 125.657 317.856 139.456 312.597 161.737C307.338 184.018 321.137 206.344 343.418 211.602C365.699 216.861 388.024 203.062 393.283 180.781Z" fill="#FAFAFA"/>
<path d="M328.034 170.562C328.034 165.35 328.973 161.702 330.852 159.618C332.73 157.533 335.589 156.491 339.428 156.491C340.973 156.445 342.513 156.675 343.977 157.171C345.053 157.556 346.039 158.157 346.874 158.938C347.578 159.607 348.174 160.382 348.641 161.234C349.101 162.127 349.448 163.073 349.674 164.052C350.192 166.147 350.45 168.298 350.442 170.456C350.442 175.425 349.6 179.067 347.916 181.382C346.232 183.696 343.332 184.856 339.216 184.862C337.288 184.945 335.368 184.566 333.616 183.758C332.169 183.018 330.948 181.901 330.083 180.525C329.32 179.246 328.796 177.84 328.537 176.373C328.173 174.458 328.004 172.511 328.034 170.562ZM335.595 170.562C335.595 174.053 335.904 176.438 336.522 177.716C336.72 178.264 337.079 178.741 337.552 179.082C338.024 179.424 338.589 179.616 339.172 179.633C339.543 179.636 339.911 179.566 340.256 179.426C340.6 179.287 340.913 179.081 341.177 178.82C341.838 178.105 342.274 177.211 342.431 176.25C342.757 174.44 342.893 172.602 342.837 170.765C342.837 167.114 342.528 164.664 341.91 163.416C341.691 162.858 341.307 162.38 340.811 162.044C340.314 161.708 339.727 161.53 339.128 161.535C338.528 161.527 337.941 161.709 337.451 162.054C336.96 162.4 336.592 162.892 336.398 163.46C335.869 164.75 335.601 167.126 335.595 170.588V170.562Z" fill="#FAFAFA"/>
<path d="M366.694 179.271H352.81V172.999L366.694 156.491H373.337V173.353H376.781V179.271H373.337V184.438H366.694V179.271ZM366.694 173.353V164.723L359.355 173.353H366.694Z" fill="#FAFAFA"/>
<path d="M352.951 216.544C351.779 216.544 350.656 216.079 349.828 215.251C349 214.423 348.534 213.299 348.534 212.128C348.534 210.957 349 209.833 349.828 209.005C350.656 208.177 351.779 207.712 352.951 207.712C360.276 207.713 367.437 205.543 373.529 201.474C379.62 197.406 384.369 191.622 387.173 184.855C389.978 178.088 390.712 170.641 389.284 163.457C387.856 156.272 384.33 149.672 379.151 144.492C373.971 139.311 367.372 135.783 360.188 134.353C353.004 132.924 345.557 133.656 338.789 136.459C332.021 139.262 326.236 144.009 322.166 150.1C318.097 156.19 315.924 163.351 315.924 170.676C315.924 182.841 311.092 194.508 302.49 203.11C293.888 211.712 282.221 216.544 270.056 216.544C257.891 216.544 246.225 211.712 237.623 203.11C229.021 194.508 224.188 182.841 224.188 170.676C224.188 160.854 220.286 151.434 213.341 144.488C206.395 137.543 196.975 133.641 187.153 133.641C177.331 133.641 167.91 137.543 160.965 144.488C154.02 151.434 150.118 160.854 150.118 170.676C150.118 179.749 147.427 188.618 142.386 196.161C137.345 203.704 130.181 209.583 121.798 213.055C113.416 216.526 104.193 217.433 95.2947 215.662C86.3967 213.89 78.2238 209.52 71.8098 203.104C65.3957 196.687 61.0286 188.513 59.2608 179.614C57.493 170.715 58.4038 161.492 61.8782 153.111C65.3525 144.73 71.2343 137.568 78.7796 132.53C86.3248 127.492 95.1947 124.805 104.267 124.808C105.439 124.808 106.562 125.274 107.39 126.102C108.218 126.93 108.684 128.053 108.684 129.225C108.684 130.396 108.218 131.519 107.39 132.348C106.562 133.176 105.439 133.641 104.267 133.641C96.9424 133.641 89.782 135.813 83.6915 139.883C77.6011 143.952 72.8542 149.736 70.0511 156.504C67.248 163.271 66.5145 170.717 67.9436 177.902C69.3726 185.086 72.8999 191.685 78.0793 196.864C83.2588 202.044 89.8579 205.571 97.042 207C104.226 208.429 111.673 207.696 118.44 204.893C125.207 202.089 130.992 197.342 135.061 191.252C139.131 185.162 141.303 178.001 141.303 170.676C141.303 158.511 146.135 146.845 154.737 138.243C163.339 129.641 175.006 124.808 187.171 124.808C199.336 124.808 211.002 129.641 219.604 138.243C228.206 146.845 233.039 158.511 233.039 170.676C233.039 175.54 233.997 180.356 235.858 184.849C237.719 189.342 240.447 193.425 243.886 196.864C247.325 200.303 251.408 203.031 255.901 204.893C260.394 206.754 265.21 207.712 270.074 207.712C274.937 207.712 279.753 206.754 284.247 204.893C288.74 203.031 292.823 200.303 296.262 196.864C299.701 193.425 302.429 189.342 304.29 184.849C306.151 180.356 307.109 175.54 307.109 170.676C307.109 161.604 309.8 152.736 314.84 145.193C319.88 137.649 327.045 131.77 335.426 128.299C343.808 124.828 353.031 123.92 361.929 125.69C370.827 127.461 378.999 131.83 385.414 138.246C391.828 144.662 396.196 152.835 397.965 161.733C399.734 170.631 398.824 179.854 395.351 188.235C391.878 196.617 385.998 203.779 378.454 208.818C370.91 213.857 362.041 216.546 352.968 216.544H352.951Z" fill="url(#paint0_linear_33_953)"/>
<path d="M308.099 201.458L307.418 200.902C309.43 198.414 311.191 195.734 312.674 192.899L313.46 193.314C311.942 196.197 310.146 198.925 308.099 201.458Z" fill="#407BFF"/>
<path d="M288.137 216.173L287.81 215.352C293.365 213.138 298.458 209.906 302.825 205.821L303.426 206.466C298.978 210.626 293.793 213.918 288.137 216.173Z" fill="#407BFF"/>
<path d="M168.905 361.744H175.388L176.033 346.711H169.549L168.905 361.744Z" fill="#FFC3BD"/>
<path opacity="0.2" d="M176.033 346.72L175.706 354.466H169.214L169.541 346.72H176.033Z" fill="black"/>
<path d="M121.341 356.648L127.683 358.017L134.051 344.026L127.709 342.648L121.341 356.648Z" fill="#FFC3BD"/>
<path opacity="0.2" d="M127.7 342.657L134.051 344.026L130.765 351.242L124.423 349.873L127.7 342.657Z" fill="black"/>
<path d="M155.029 150.211C152.803 154.124 150.559 158.161 148.413 162.179C146.267 166.198 144.164 170.244 142.38 174.271C141.912 175.287 141.497 176.285 141.108 177.283C141.108 177.283 141.108 177.345 141.108 177.416C141.076 177.671 141.076 177.929 141.108 178.184C141.269 179.02 141.533 179.833 141.894 180.604C142.304 181.532 142.764 182.438 143.272 183.316C145.569 187.123 148.122 190.771 150.913 194.233L147.574 197.766C143.619 194.853 140.057 191.442 136.975 187.617C135.183 185.455 133.797 182.986 132.885 180.33C132.613 179.471 132.447 178.581 132.39 177.681C132.343 177.146 132.343 176.608 132.39 176.073C132.42 175.776 132.468 175.481 132.532 175.19C132.532 175.049 132.602 174.898 132.638 174.748L132.753 174.368C133.141 173.185 133.521 171.984 133.954 170.835C135.648 166.336 137.582 161.931 139.748 157.639C141.886 153.382 144.12 149.266 146.611 145.15L155.029 150.211Z" fill="#FFC3BD"/>
<path d="M149.658 193.102L154.216 194.604L150.383 201.052C150.383 201.052 147.044 199.541 146.373 196.468L149.658 193.102Z" fill="#FFC3BD"/>
<path d="M160.425 197.095L155.991 202.059L150.383 201.052L154.216 194.604L160.425 197.095Z" fill="#FFC3BD"/>
<path d="M176.81 114.978C176.916 115.49 177.269 115.861 177.605 115.781C177.941 115.702 178.126 115.243 178.02 114.73C177.914 114.218 177.561 113.847 177.225 113.927C176.89 114.006 176.695 114.465 176.81 114.978Z" fill="#263238"/>
<path d="M177.225 115.861C178.155 117.303 179.278 118.611 180.564 119.747C180.265 120.069 179.898 120.321 179.491 120.486C179.083 120.651 178.644 120.724 178.206 120.701L177.225 115.861Z" fill="#ED847E"/>
<path d="M174.354 112.513C174.275 112.511 174.2 112.479 174.142 112.425C174.086 112.367 174.054 112.29 174.054 112.209C174.054 112.128 174.086 112.05 174.142 111.992C174.47 111.622 174.881 111.336 175.343 111.159C175.804 110.982 176.301 110.92 176.792 110.976C176.873 110.989 176.945 111.034 176.993 111.1C177.041 111.166 177.061 111.249 177.048 111.33C177.033 111.409 176.988 111.48 176.923 111.528C176.857 111.576 176.776 111.596 176.695 111.586C176.31 111.549 175.922 111.604 175.563 111.747C175.203 111.89 174.883 112.116 174.628 112.407C174.596 112.448 174.554 112.479 174.506 112.497C174.458 112.516 174.405 112.521 174.354 112.513Z" fill="#263238"/>
<path d="M162.201 122.185C163.084 126.937 164.056 135.637 160.734 138.799C160.734 138.799 162.033 143.613 170.857 143.613C180.573 143.613 175.494 138.799 175.494 138.799C170.194 137.536 170.336 133.615 171.254 129.923L162.201 122.185Z" fill="#FFC3BD"/>
<path d="M159.41 139.868C158.703 138.985 157.935 137.881 159.524 137.545C161.291 137.183 170.892 136.803 174.204 137.492C177.517 138.181 176.572 140.062 176.572 140.062L159.41 139.868Z" fill="white"/>
<path d="M130.156 358.9C130.418 358.993 130.695 359.033 130.973 359.018C131.25 359.003 131.522 358.933 131.772 358.812C131.869 358.723 131.935 358.607 131.962 358.478C131.989 358.35 131.975 358.216 131.922 358.097C131.894 357.997 131.843 357.904 131.775 357.826C131.706 357.748 131.621 357.687 131.525 357.646C130.642 357.222 128.637 358.044 128.548 358.079C128.521 358.092 128.497 358.111 128.48 358.136C128.463 358.161 128.453 358.19 128.451 358.22C128.452 358.249 128.461 358.278 128.477 358.303C128.492 358.327 128.514 358.348 128.539 358.362C129.058 358.597 129.6 358.778 130.156 358.9ZM131.207 357.858L131.392 357.92C131.448 357.944 131.498 357.98 131.537 358.026C131.577 358.072 131.606 358.126 131.622 358.185C131.71 358.459 131.622 358.547 131.569 358.573C131.225 358.874 129.926 358.574 129.016 358.229C129.711 357.947 130.458 357.821 131.207 357.858Z" fill="#407BFF"/>
<path d="M128.575 358.37H128.645C129.387 358.158 130.951 357.037 130.968 356.303C130.971 356.189 130.934 356.077 130.863 355.986C130.792 355.896 130.692 355.833 130.58 355.809C130.469 355.769 130.351 355.753 130.234 355.762C130.117 355.771 130.003 355.805 129.9 355.862C129.016 356.303 128.486 358.097 128.46 358.176C128.447 358.199 128.44 358.225 128.44 358.251C128.44 358.277 128.447 358.303 128.46 358.326C128.492 358.354 128.532 358.37 128.575 358.37ZM130.412 356.074H130.474C130.668 356.136 130.668 356.233 130.668 356.268C130.668 356.701 129.617 357.575 128.902 357.938C129.105 357.224 129.517 356.587 130.085 356.109C130.188 356.065 130.302 356.052 130.412 356.074Z" fill="#407BFF"/>
<path d="M177.994 362.071C178.833 362.071 179.636 361.956 179.901 361.585C179.971 361.487 180.008 361.37 180.008 361.25C180.008 361.13 179.971 361.012 179.901 360.914C179.847 360.824 179.776 360.745 179.691 360.683C179.606 360.621 179.509 360.576 179.407 360.552C178.329 360.261 176.059 361.55 175.971 361.612C175.941 361.625 175.917 361.648 175.903 361.677C175.889 361.706 175.884 361.739 175.891 361.771C175.898 361.801 175.913 361.829 175.935 361.851C175.957 361.873 175.985 361.888 176.015 361.895C176.668 362.009 177.33 362.068 177.994 362.071ZM179.027 360.817C179.124 360.803 179.222 360.803 179.318 360.817C179.381 360.828 179.44 360.853 179.492 360.889C179.544 360.926 179.587 360.974 179.619 361.029C179.734 361.223 179.689 361.32 179.619 361.373C179.318 361.789 177.676 361.797 176.465 361.63C177.258 361.195 178.128 360.919 179.027 360.817Z" fill="#407BFF"/>
<path d="M176.033 361.895H176.095C176.881 361.541 178.435 360.128 178.312 359.404C178.312 359.227 178.161 359.015 177.746 358.971C177.589 358.953 177.429 358.968 177.278 359.013C177.126 359.059 176.985 359.134 176.863 359.236C176.042 359.916 175.865 361.665 175.856 361.736C175.853 361.763 175.857 361.79 175.867 361.815C175.878 361.84 175.896 361.861 175.918 361.877C175.953 361.896 175.994 361.903 176.033 361.895ZM177.623 359.245H177.711C177.985 359.245 178.002 359.377 178.011 359.413C178.082 359.854 177.031 360.958 176.245 361.435C176.33 360.696 176.638 359.999 177.128 359.439C177.271 359.331 177.444 359.27 177.623 359.262V359.245Z" fill="#407BFF"/>
<path d="M128.292 357.381L121.164 355.844C121.039 355.815 120.908 355.831 120.793 355.889C120.678 355.947 120.588 356.044 120.537 356.162L118.064 361.524C118.004 361.654 117.974 361.796 117.977 361.94C117.98 362.083 118.015 362.224 118.081 362.352C118.147 362.48 118.24 362.591 118.355 362.677C118.47 362.763 118.603 362.821 118.744 362.848C121.244 363.352 122.48 363.467 125.616 364.147C127.541 364.562 131.896 365.622 134.555 366.196C137.213 366.77 138.132 364.218 137.098 363.741C132.444 361.612 130.5 359.739 129.237 357.999C129.008 357.685 128.672 357.465 128.292 357.381Z" fill="#263238"/>
<path d="M175.344 360.994H168.278C168.149 360.994 168.024 361.038 167.923 361.118C167.822 361.198 167.751 361.31 167.721 361.435L166.44 367.203C166.41 367.342 166.411 367.486 166.444 367.625C166.477 367.764 166.541 367.893 166.631 368.003C166.721 368.114 166.835 368.203 166.964 368.263C167.093 368.323 167.234 368.353 167.377 368.351C169.929 368.351 173.63 368.166 176.836 368.166C180.599 368.166 183.841 368.369 188.248 368.369C190.898 368.369 191.649 365.675 190.536 365.428C185.457 364.324 181.315 364.2 176.925 361.497C176.455 361.185 175.908 361.01 175.344 360.994Z" fill="#263238"/>
<path d="M177.676 140.398C182.71 139.877 187.921 139.214 192.965 138.42C197.925 137.717 202.822 136.625 207.609 135.151C208.166 134.966 208.696 134.763 209.226 134.551C209.664 134.375 210.089 134.168 210.498 133.933C211.469 133.385 212.538 132.722 213.58 132.025C215.682 130.62 217.82 129.136 219.931 127.608L232.747 118.396L235.998 122.026C232.394 126.01 228.64 129.79 224.692 133.438C222.713 135.257 220.699 137.059 218.509 138.79C217.422 139.674 216.336 140.557 215.055 141.361C214.353 141.84 213.618 142.271 212.856 142.65C212.167 142.977 211.478 143.286 210.798 143.534C208.164 144.599 205.461 145.484 202.707 146.183C200.057 146.908 197.346 147.482 194.67 147.994C189.311 149.021 183.9 149.758 178.462 150.202L177.676 140.398Z" fill="#FFC3BD"/>
<path d="M149.12 140.274C143.034 141.67 132.823 171.869 132.823 171.869L142.76 175.172C142.76 175.172 152.9 160.157 156.345 152.905C159.913 145.309 155.338 138.844 149.12 140.274Z" fill="#263238"/>
<path d="M144.491 173.679C144.491 173.679 134.775 171.825 132.541 170.447C131.763 171.568 130.774 175.658 131.463 176.859C132.152 178.06 141.179 179.809 142.389 179.094C143.599 178.378 144.491 173.679 144.491 173.679Z" fill="#263238"/>
<path opacity="0.2" d="M144.491 173.679C144.491 173.679 134.775 171.825 132.541 170.447C131.763 171.568 130.774 175.658 131.463 176.859C132.152 178.06 141.179 179.809 142.389 179.094C143.599 178.378 144.491 173.679 144.491 173.679Z" fill="#FAFAFA"/>
<path d="M185.475 140.601C185.475 140.601 192.373 148.4 185.855 196.689H151.151C150.913 191.389 154.26 165.368 149.12 140.266C152.956 139.527 156.835 139.037 160.735 138.799C165.65 138.517 170.578 138.517 175.494 138.799C178.863 139.14 182.2 139.742 185.475 140.601Z" fill="#263238"/>
<path d="M173.162 150.927C179.389 157.348 210.604 144.541 210.604 144.541L205.596 134.904C205.596 134.904 186.075 138.958 178.055 138.799C168.163 138.596 168.454 146.042 173.162 150.927Z" fill="#263238"/>
<path d="M204.076 134.719C204.076 134.719 209.049 143.295 209.447 145.865C210.816 145.724 214.525 143.772 215.011 142.483C215.497 141.193 210.886 133.226 209.544 132.767C208.201 132.307 204.076 134.719 204.076 134.719Z" fill="#263238"/>
<path opacity="0.2" d="M204.076 134.719C204.076 134.719 209.049 143.295 209.447 145.865C210.816 145.724 214.525 143.772 215.011 142.483C215.497 141.193 210.886 133.226 209.544 132.767C208.201 132.307 204.076 134.719 204.076 134.719Z" fill="#FAFAFA"/>
<path d="M232.544 118.484L236.96 113.282L241.712 118.581C241.712 118.581 238.78 123.501 234.125 122.724L232.544 118.484Z" fill="#FFC3BD"/>
<path d="M243.17 110.826L247.453 113.282L241.756 118.555L236.996 113.282L243.17 110.826Z" fill="#FFC3BD"/>
<path d="M159.48 117.362C161.15 123.59 161.812 127.308 165.663 129.896C171.44 133.791 178.629 129.322 178.85 122.733C179.053 116.797 176.298 107.62 169.62 106.366C168.148 106.077 166.627 106.171 165.201 106.637C163.776 107.103 162.493 107.927 161.476 109.03C160.46 110.133 159.742 111.477 159.393 112.936C159.043 114.395 159.073 115.919 159.48 117.362Z" fill="#FFC3BD"/>
<path d="M173.109 93.7086C177.525 103.001 154.605 97.8511 154.446 106.286C154.446 106.64 154.446 106.958 154.446 107.267C153.792 106.657 152.476 105.986 150.206 106.905C151.537 107.407 152.743 108.194 153.739 109.21C152.856 109.961 151.513 110.358 152.087 113.953C152.361 115.72 154.119 118.369 156.406 120.719C157.405 122.318 160.646 125.948 160.584 126.822C161.08 126.824 161.571 126.722 162.024 126.522C162.167 126.853 162.23 127.213 162.21 127.573C163.411 127.803 164.356 127.635 164.462 126.805C165.442 126.893 166.149 126.628 166.184 125.842C167.12 125.974 167.765 125.674 167.721 124.667C169.947 123.448 170.707 120.878 171.113 118.007C171.585 114.375 173.403 111.052 176.209 108.698C180.705 105.103 182.472 99.4322 173.109 93.7086Z" fill="#263238"/>
<path d="M168.419 117.036C168.849 118.583 169.781 119.944 171.069 120.904C172.765 122.159 174.019 120.904 173.904 119.014C173.798 117.248 172.782 114.598 170.919 114.059C169.055 113.52 167.933 115.163 168.419 117.036Z" fill="#FFC3BD"/>
<path d="M173.542 196.689C173.542 196.689 166.175 246.266 162.139 264.815C157.723 285.13 134.033 350.386 134.033 350.386L122.418 347.868C122.418 347.868 140.146 286.808 142.672 266.661C145.41 244.8 151.151 196.653 151.151 196.653L173.542 196.689Z" fill="#407BFF"/>
<path d="M173.542 196.689C173.542 196.689 166.175 246.266 162.139 264.815C157.723 285.13 134.033 350.386 134.033 350.386L122.418 347.868C122.418 347.868 140.146 286.808 142.672 266.661C145.41 244.8 151.151 196.653 151.151 196.653L173.542 196.689Z" fill="url(#paint1_linear_33_953)"/>
<path opacity="0.3" d="M168.887 214.354C160.372 216.023 161.273 247.777 162.298 264.108C164.753 252.564 168.348 230.35 170.804 214.584C170.21 214.291 169.533 214.21 168.887 214.354Z" fill="black"/>
<path d="M185.855 196.689C185.855 196.689 186.738 245.206 186.04 264.991C185.307 285.572 178.091 352.965 178.091 352.965H167.129C167.129 352.965 166.723 286.773 166.246 266.564C165.707 244.482 163.049 196.689 163.049 196.689H185.855Z" fill="#407BFF"/>
<path d="M185.855 196.689C185.855 196.689 186.738 245.206 186.04 264.991C185.307 285.572 178.091 352.965 178.091 352.965H167.129C167.129 352.965 166.723 286.773 166.246 266.564C165.707 244.482 163.049 196.689 163.049 196.689H185.855Z" fill="url(#paint2_linear_33_953)"/>
<path opacity="0.2" d="M175.812 345.068C175.797 345.067 175.783 345.063 175.77 345.056C175.756 345.049 175.745 345.04 175.736 345.028C175.727 345.016 175.72 345.003 175.716 344.989C175.713 344.974 175.712 344.959 175.715 344.945C177.649 326.308 182.215 281.191 182.781 264.983C183.373 248.43 182.843 211.386 182.657 200.425C182.657 200.394 182.669 200.365 182.691 200.344C182.712 200.322 182.742 200.31 182.772 200.31C182.8 200.31 182.827 200.321 182.847 200.341C182.867 200.361 182.878 200.388 182.878 200.416C183.063 211.377 183.593 248.43 183.002 264.991C182.427 281.208 177.861 326.325 175.935 344.971C175.934 344.986 175.93 345 175.923 345.013C175.916 345.027 175.907 345.038 175.895 345.047C175.884 345.056 175.87 345.063 175.856 345.067C175.841 345.07 175.826 345.071 175.812 345.068Z" fill="#FAFAFA"/>
<path d="M136.816 346.543C136.869 346.543 134.652 350.739 134.652 350.739L121.588 347.912L122.683 343.982L136.816 346.543Z" fill="#263238"/>
<path d="M180.228 348.584C180.281 348.584 179.61 353.15 179.61 353.15H166.246L165.884 349.078L180.228 348.584Z" fill="#263238"/>
<defs>
<linearGradient id="paint0_linear_33_953" x1="77.8367" y1="119.768" x2="135.894" y2="300.85" gradientUnits="userSpaceOnUse">
<stop stop-color="#ED237F"/>
<stop offset="0.302083" stop-color="#E93068"/>
<stop offset="0.578125" stop-color="#F14272"/>
<stop offset="0.848958" stop-color="#DF5775"/>
<stop offset="1" stop-color="#DF5775"/>
</linearGradient>
<linearGradient id="paint1_linear_33_953" x1="125.34" y1="188.206" x2="212.091" y2="212.451" gradientUnits="userSpaceOnUse">
<stop stop-color="#ED237F"/>
<stop offset="0.302083" stop-color="#E93068"/>
<stop offset="0.578125" stop-color="#F14272"/>
<stop offset="0.848958" stop-color="#DF5775"/>
<stop offset="1" stop-color="#DF5775"/>
</linearGradient>
<linearGradient id="paint2_linear_33_953" x1="164.378" y1="188.102" x2="206.275" y2="193.343" gradientUnits="userSpaceOnUse">
<stop stop-color="#ED237F"/>
<stop offset="0.302083" stop-color="#E93068"/>
<stop offset="0.578125" stop-color="#F14272"/>
<stop offset="0.848958" stop-color="#DF5775"/>
<stop offset="1" stop-color="#DF5775"/>
</linearGradient>
</defs>
</svg>
