<svg width="1440" height="1086" viewBox="0 0 1440 1086" fill="none" xmlns="http://www.w3.org/2000/svg">
<path d="M314.989 17.9055C133.032 -36.6957 -135.405 50.9973 -135.405 50.9973C-356.947 153.374 -67.8284 318.419 -69.828 343.652C-71.8275 368.884 -41.0014 718.173 -25.3383 889.664C-4.17662 888.802 69.6394 874.049 195.61 821.93C353.073 756.78 409.06 918.619 641.506 972.393C873.952 1026.17 967.43 955.33 1166.88 862.777C1326.45 788.734 1458.65 869.154 1504.8 918.619C1507.97 760.917 1512.4 415.419 1504.8 295.048C1495.31 144.585 1372.24 -107.222 927.939 95.9817C694.401 202.791 542.436 86.157 314.989 17.9055Z" fill="url(#paint0_linear_145_2837)"/>
<circle cx="281.352" cy="113.167" r="72.1665" fill="url(#paint1_radial_145_2837)"/>
<circle cx="1303.35" cy="973.754" r="111.352" fill="url(#paint2_radial_145_2837)"/>
<circle cx="557" cy="670.288" r="111.352" fill="url(#paint3_radial_145_2837)"/>
<defs>
<linearGradient id="paint0_linear_145_2837" x1="-120.257" y1="-54.4506" x2="884.144" y2="1417.4" gradientUnits="userSpaceOnUse">
<stop stop-color="#ED237F"/>
<stop offset="0.302083" stop-color="#E93068"/>
<stop offset="0.578125" stop-color="#F14272"/>
<stop offset="0.848958" stop-color="#DF5775"/>
</linearGradient>
<radialGradient id="paint1_radial_145_2837" cx="0" cy="0" r="1" gradientUnits="userSpaceOnUse" gradientTransform="translate(328.242 166.999) rotate(-129.912) scale(141.115 161.88)">
<stop stop-color="#DD2378"/>
<stop offset="0.382166" stop-color="#FC1D61"/>
<stop offset="0.702943" stop-color="#F3688F"/>
<stop offset="1" stop-color="#FDC6D3"/>
</radialGradient>
<radialGradient id="paint2_radial_145_2837" cx="0" cy="0" r="1" gradientUnits="userSpaceOnUse" gradientTransform="translate(1375.7 1056.82) rotate(-129.912) scale(217.739 249.779)">
<stop stop-color="#DD2378"/>
<stop offset="0.382166" stop-color="#FC1D61"/>
<stop offset="0.702943" stop-color="#F3688F"/>
<stop offset="1" stop-color="#FDC6D3"/>
</radialGradient>
<radialGradient id="paint3_radial_145_2837" cx="0" cy="0" r="1" gradientUnits="userSpaceOnUse" gradientTransform="translate(629.35 753.351) rotate(-129.912) scale(217.739 249.779)">
<stop stop-color="#DD2378"/>
<stop offset="0.382166" stop-color="#FC1D61"/>
<stop offset="0.702943" stop-color="#F3688F"/>
<stop offset="1" stop-color="#FDC6D3"/>
</radialGradient>
</defs>
</svg>
