<svg width="462" height="461" viewBox="0 0 462 461" fill="none" xmlns="http://www.w3.org/2000/svg">
<g style="mix-blend-mode:multiply" opacity="0.7">
<path d="M95.4487 294.975H96.4977V274.188H95.4487V294.975Z" fill="#E6E6E6"/>
</g>
<path d="M231.039 393.638C329.576 393.638 409.455 388.975 409.455 383.222C409.455 377.469 329.576 372.805 231.039 372.805C132.502 372.805 52.6228 377.469 52.6228 383.222C52.6228 388.975 132.502 393.638 231.039 393.638Z" fill="#F5F5F5"/>
<path d="M341.757 139.057C344.03 131.696 320.776 130.021 315.172 143.244C307.323 161.768 318.77 172.184 318.77 172.184C325.442 168.605 338.49 168.071 345.622 170.436L341.757 139.057Z" fill="#263238"/>
<path d="M343.551 375.621L336.373 375.897L336.337 368.14L343.505 367.864L343.551 375.621Z" fill="#B55B52"/>
<path d="M336.088 374.415H344.223C344.367 374.416 344.508 374.464 344.622 374.552C344.737 374.64 344.82 374.764 344.858 374.903L346.625 381.344C346.67 381.496 346.678 381.656 346.65 381.811C346.621 381.967 346.556 382.113 346.46 382.239C346.364 382.365 346.24 382.466 346.097 382.534C345.955 382.603 345.798 382.636 345.64 382.633C342.797 382.577 341.416 382.412 337.846 382.412C335.647 382.412 329.978 382.642 326.942 382.642C323.905 382.642 323.353 379.642 324.586 379.375C330.107 378.151 333.254 376.477 334.957 374.875C335.26 374.582 335.666 374.417 336.088 374.415Z" fill="url(#paint0_linear_33_1038)"/>
<path opacity="0.2" d="M336.337 368.149L336.355 372.142L343.533 372.179L343.514 367.864L336.337 368.149Z" fill="black"/>
<path d="M319.939 224.562C318.77 233.396 322.755 275.301 326.113 293.576C330.576 317.86 334.8 370.514 334.8 370.514L344.471 369.934C344.471 369.934 345.64 312.21 342.677 292.638C342.484 266.955 342.944 221.976 342.944 221.976L319.939 224.562Z" fill="#263238"/>
<path opacity="0.2" d="M342.723 249.968C342.723 243.453 337.901 238.31 336.696 250.751C335.932 258.673 339.014 271.961 342.631 281.163C342.622 271.142 342.668 259.916 342.723 249.968Z" fill="black"/>
<path d="M386.248 376.421L379.669 376.596L376.568 367.624L383.156 367.449L386.248 376.421Z" fill="#B55B52"/>
<path d="M386.092 374.415H377.976C377.911 374.411 377.847 374.42 377.787 374.444C377.728 374.467 377.674 374.503 377.63 374.55C377.586 374.597 377.552 374.653 377.533 374.714C377.513 374.775 377.507 374.839 377.515 374.903L378.114 381.344C378.176 381.693 378.354 382.01 378.62 382.244C378.886 382.478 379.223 382.615 379.577 382.633C382.392 382.577 383.718 382.412 387.288 382.412C389.487 382.412 392.377 382.642 395.413 382.642C398.45 382.642 397.898 379.642 396.573 379.375C390.619 378.151 389.69 376.477 387.371 374.875C387 374.597 386.555 374.436 386.092 374.415Z" fill="url(#paint1_linear_33_1038)"/>
<path opacity="0.2" d="M376.577 367.633L378.169 372.253L384.886 372.446L383.165 367.449L376.577 367.633Z" fill="black"/>
<path d="M330.981 223.32C330.981 223.32 345.898 277.933 353.388 294.046C358.256 318.937 375.675 371.103 375.675 371.103L385.797 370.403C385.797 370.403 374.755 317.621 367.964 293.107C364.283 270.332 361.881 232.374 351.4 221.019L330.981 223.32Z" fill="#263238"/>
<path d="M316.525 183.945C316.332 188.545 315.936 193.008 315.393 197.527C314.85 202.045 314.188 206.517 313.313 210.998L312.973 212.682L312.789 213.602C312.674 214.145 312.498 214.673 312.264 215.176C311.91 215.967 311.362 216.657 310.672 217.182C309.815 217.811 308.772 218.134 307.709 218.102C307.02 218.075 306.341 217.926 305.703 217.66C305.264 217.478 304.842 217.256 304.443 216.998C303.287 216.211 302.233 215.283 301.305 214.237C300.467 213.317 299.704 212.397 298.977 211.477C296.204 207.801 293.742 203.901 291.615 199.818C291.392 199.387 291.335 198.889 291.455 198.419C291.574 197.949 291.863 197.539 292.265 197.268C292.667 196.996 293.155 196.882 293.635 196.947C294.116 197.011 294.557 197.251 294.873 197.619C297.707 200.968 300.569 204.4 303.569 207.419C304.305 208.173 305.059 208.9 305.814 209.544C306.44 210.123 307.132 210.626 307.875 211.044C307.995 211.09 308.105 211.145 308.114 211.127C308.123 211.109 308.059 211.063 307.737 211.035C307.238 211.026 306.75 211.182 306.348 211.477C306.092 211.653 305.881 211.886 305.731 212.158L305.841 211.394L306.071 209.765C306.651 205.431 307.111 201.051 307.535 196.671C307.958 192.291 308.28 187.855 308.574 183.53V183.475C308.633 182.422 309.107 181.435 309.894 180.732C310.68 180.029 311.713 179.667 312.766 179.725C313.819 179.784 314.806 180.259 315.509 181.045C316.212 181.831 316.574 182.864 316.516 183.917L316.525 183.945Z" fill="#B55B52"/>
<path d="M313.148 177.798C306.32 181.138 307.387 189.99 307.387 189.99L318.31 197.683C318.31 197.683 322.304 188.067 321.476 183.457C320.62 178.718 318.209 175.359 313.148 177.798Z" fill="url(#paint2_linear_33_1038)"/>
<path opacity="0.2" d="M312.016 185.214C313.617 182.693 316.369 183.3 319.571 185.306C320.315 185.952 320.938 186.724 321.411 187.588C320.724 191.052 319.708 194.441 318.375 197.711L310.673 192.291C310.366 189.849 310.836 187.374 312.016 185.214Z" fill="black"/>
<path d="M295.388 198.87L293.759 192.64L288.238 197.609C288.238 197.609 290.235 200.94 293.447 201.391L295.388 198.87Z" fill="#B55B52"/>
<path d="M289.527 190.101L288.404 191.214C287.551 192.049 287.056 193.183 287.023 194.376C286.99 195.57 287.423 196.729 288.229 197.609L293.75 192.64L292.204 190.367C292.06 190.156 291.87 189.978 291.65 189.848C291.429 189.717 291.183 189.636 290.928 189.61C290.672 189.585 290.415 189.616 290.173 189.7C289.931 189.785 289.71 189.922 289.527 190.101Z" fill="#B55B52"/>
<path d="M292.324 190.524C290.929 188.653 289.666 186.689 288.542 184.644C288.192 183.945 287.06 184.92 287.622 185.941C288.183 186.963 289.223 190.294 290.327 191.509C291.431 192.723 292.324 190.524 292.324 190.524Z" fill="#B55B52"/>
<path d="M310.617 182.85C312.559 200.628 318.356 213.023 319.939 224.562L351.354 221.047C349.578 209.498 348.676 201.944 350.885 180.558C350.982 179.628 350.885 178.688 350.599 177.798C350.313 176.908 349.844 176.087 349.224 175.387C348.603 174.688 347.844 174.125 346.994 173.736C346.144 173.346 345.222 173.137 344.287 173.123C342.373 173.123 340.257 173.123 338.122 173.261C333.335 173.45 328.568 173.985 323.859 174.862C320.546 175.543 317.022 176.5 314.501 177.236C313.301 177.574 312.258 178.32 311.549 179.344C310.84 180.369 310.511 181.608 310.617 182.85Z" fill="url(#paint3_linear_33_1038)"/>
<path d="M323.859 174.844C323.859 174.844 318.816 180.301 326.334 187.727C329.133 182.071 333.16 177.113 338.122 173.215L323.859 174.844Z" fill="white"/>
<path d="M334.911 157.333C334.524 162.026 334.57 170.537 338.122 173.243C338.122 173.243 330.273 177.512 326.04 185.021C320.519 179.5 323.859 174.844 323.859 174.844C328.837 173.003 328.285 169.258 326.988 165.798L334.911 157.333Z" fill="#B55B52"/>
<path opacity="0.2" d="M334.045 158.262C334.284 161 333.936 163.758 333.024 166.35C332.389 168.136 330.199 169.157 327.88 169.59C327.769 168.286 327.459 167.008 326.96 165.798L334.045 158.262Z" fill="black"/>
<path d="M341.573 150.772C340.211 158.372 339.787 161.621 335.463 165.099C328.948 170.326 319.911 166.985 318.982 159.127C318.145 152.051 320.528 140.806 328.377 138.634C330.107 138.148 331.932 138.113 333.679 138.531C335.426 138.949 337.037 139.807 338.36 141.023C339.682 142.239 340.671 143.773 341.233 145.48C341.796 147.186 341.913 149.008 341.573 150.772Z" fill="#B55B52"/>
<path d="M335.711 144.671C333.871 148.738 335.481 155.639 341.315 155.216C336.594 160.599 337.717 172.405 337.717 172.405C340.669 172.616 343.619 171.977 346.22 170.565C346.22 170.565 344.379 159.403 346.321 151.572C347.904 145.204 347.674 132.846 333.871 135.533C332.26 135.846 321.77 138.597 320.712 144.109C320.629 144.606 331.911 147.873 335.711 144.671Z" fill="#263238"/>
<path d="M343.303 155.087C343.139 155.809 342.835 156.49 342.407 157.094C341.979 157.697 341.436 158.21 340.809 158.602C339.125 159.642 337.735 158.271 337.745 156.394C337.745 154.701 338.665 152.124 340.551 151.848C340.97 151.793 341.396 151.844 341.791 151.996C342.185 152.149 342.535 152.397 342.808 152.719C343.082 153.041 343.27 153.427 343.357 153.84C343.443 154.254 343.425 154.683 343.303 155.087Z" fill="#B55B52"/>
<path opacity="0.2" d="M345.944 185.656C345.822 187.226 346.115 188.8 346.793 190.222C347.472 191.643 348.511 192.861 349.808 193.754C349.974 190.57 350.25 187 350.655 182.896C349.054 181.175 346.321 182.675 345.944 185.656Z" fill="black"/>
<path d="M351.584 219.142L353.314 221.792C353.452 222.004 353.222 222.252 352.854 222.289L319.911 225.97C319.626 225.97 319.378 225.887 319.341 225.712L318.733 222.952C318.733 222.758 318.927 222.565 319.23 222.528L351.051 218.958C351.148 218.94 351.248 218.947 351.342 218.979C351.435 219.012 351.519 219.068 351.584 219.142Z" fill="#263238"/>
<path d="M347.747 223.182L348.603 223.08C348.769 223.08 348.888 222.961 348.87 222.86L348.06 219.243C348.06 219.142 347.876 219.068 347.701 219.087L346.855 219.188C346.68 219.188 346.56 219.308 346.588 219.409L347.397 223.016C347.416 223.126 347.581 223.2 347.747 223.182Z" fill="#407BFF"/>
<path d="M322.377 226.025L323.224 225.933C323.399 225.933 323.518 225.804 323.491 225.703L322.681 222.096C322.681 221.985 322.497 221.921 322.331 221.939L321.476 222.031C321.31 222.031 321.19 222.151 321.209 222.261L322.018 225.869C322.046 225.97 322.202 226.043 322.377 226.025Z" fill="#407BFF"/>
<path d="M335.021 224.599L335.877 224.507C336.042 224.507 336.162 224.387 336.144 224.277L335.334 220.669C335.334 220.568 335.15 220.495 334.984 220.513L334.128 220.605C333.963 220.605 333.843 220.725 333.861 220.835L334.671 224.442C334.736 224.553 334.892 224.617 335.021 224.599Z" fill="#407BFF"/>
<path d="M328.579 151.545C328.506 152.17 328.119 152.64 327.714 152.594C327.31 152.548 327.033 151.995 327.107 151.379C327.181 150.762 327.567 150.284 327.981 150.33C328.395 150.376 328.681 150.928 328.579 151.545Z" fill="#263238"/>
<path d="M321.558 150.716C321.485 151.342 321.098 151.811 320.693 151.765C320.289 151.719 320.012 151.167 320.086 150.551C320.16 149.934 320.546 149.456 321.006 149.502C321.466 149.548 321.632 150.1 321.558 150.716Z" fill="#263238"/>
<path d="M321.135 149.557L319.681 148.95C319.681 148.95 320.298 150.192 321.135 149.557Z" fill="#263238"/>
<path d="M323.298 152.032C322.574 153.376 321.67 154.614 320.611 155.713C320.901 155.977 321.246 156.175 321.622 156.291C321.997 156.407 322.393 156.439 322.782 156.385L323.298 152.032Z" fill="#A02724"/>
<path d="M324.531 158.584C324.501 158.564 324.478 158.536 324.463 158.504C324.449 158.471 324.443 158.435 324.448 158.4C324.451 158.376 324.459 158.352 324.472 158.331C324.484 158.31 324.501 158.292 324.521 158.277C324.54 158.263 324.563 158.252 324.587 158.246C324.611 158.241 324.635 158.24 324.659 158.244C325.429 158.378 326.219 158.329 326.966 158.1C327.712 157.872 328.395 157.47 328.957 156.928C328.973 156.91 328.993 156.895 329.015 156.884C329.037 156.874 329.061 156.868 329.085 156.866C329.109 156.865 329.134 156.869 329.157 156.877C329.18 156.885 329.201 156.898 329.219 156.914C329.237 156.93 329.252 156.95 329.262 156.972C329.273 156.994 329.279 157.018 329.28 157.042C329.282 157.066 329.278 157.091 329.27 157.114C329.262 157.137 329.249 157.158 329.233 157.176C328.636 157.764 327.907 158.202 327.106 158.451C326.306 158.701 325.458 158.756 324.632 158.612L324.531 158.584Z" fill="#263238"/>
<path d="M331.957 148.269C331.901 148.24 331.856 148.195 331.828 148.14C331.603 147.734 331.286 147.387 330.903 147.126C330.519 146.866 330.079 146.699 329.619 146.64C329.522 146.64 329.428 146.601 329.359 146.532C329.29 146.463 329.251 146.369 329.251 146.272C329.251 146.174 329.29 146.081 329.359 146.012C329.428 145.943 329.522 145.904 329.619 145.904C330.199 145.966 330.757 146.165 331.245 146.485C331.733 146.805 332.137 147.237 332.426 147.744C332.451 147.786 332.467 147.832 332.474 147.88C332.481 147.928 332.479 147.977 332.467 148.024C332.455 148.071 332.434 148.115 332.405 148.154C332.375 148.193 332.339 148.226 332.297 148.25C332.245 148.278 332.188 148.295 332.129 148.298C332.07 148.301 332.011 148.291 331.957 148.269Z" fill="#263238"/>
<path d="M319.7 147.054L319.644 147.008C319.61 146.974 319.583 146.934 319.564 146.89C319.545 146.846 319.535 146.798 319.535 146.75C319.535 146.702 319.545 146.655 319.564 146.61C319.583 146.566 319.61 146.526 319.644 146.493C320.014 146.038 320.486 145.679 321.022 145.443C321.558 145.208 322.143 145.104 322.727 145.14C322.825 145.152 322.914 145.203 322.974 145.28C323.034 145.358 323.061 145.456 323.049 145.554C323.037 145.652 322.987 145.74 322.909 145.801C322.831 145.861 322.733 145.888 322.635 145.876C322.172 145.85 321.709 145.936 321.287 146.127C320.864 146.317 320.493 146.607 320.206 146.971C320.147 147.046 320.063 147.096 319.969 147.112C319.875 147.127 319.779 147.106 319.7 147.054Z" fill="#263238"/>
<path d="M350.526 177.972C353.231 180.733 355.799 183.494 358.302 186.411C359.553 187.865 360.814 189.328 361.982 190.874C363.255 192.465 364.432 194.13 365.507 195.861C365.848 196.4 366.155 196.959 366.427 197.536C366.622 197.981 366.776 198.443 366.887 198.916C366.929 199.107 366.96 199.301 366.979 199.496V199.855C366.988 200.014 366.988 200.174 366.979 200.333V200.582V200.692V200.784L366.933 200.968C366.694 201.962 366.519 202.965 366.206 203.94C365.655 205.929 364.932 207.866 364.044 209.728C363.133 211.619 362.006 213.398 360.685 215.029C360.007 215.855 359.262 216.625 358.458 217.329C358.053 217.688 357.639 218.028 357.188 218.36C356.967 218.516 356.728 218.673 356.489 218.82C356.25 218.967 356.029 219.096 355.642 219.298L353.646 215.903C353.646 215.857 353.848 215.691 353.949 215.562L354.336 215.13C354.593 214.826 354.842 214.504 355.081 214.21C355.554 213.53 355.987 212.823 356.378 212.093C357.163 210.62 357.816 209.08 358.329 207.492C358.559 206.664 358.817 205.864 358.992 205.008C359.167 204.152 359.36 203.333 359.498 202.486C359.636 201.64 359.737 200.766 359.866 199.91V199.744V199.671V199.836C359.866 199.937 359.866 200.076 359.866 200.14C359.861 200.198 359.861 200.257 359.866 200.315V200.545C359.866 200.729 359.866 200.674 359.866 200.6C359.866 200.526 359.572 200.122 359.36 199.818C358.44 198.557 357.28 197.131 356.102 195.778C354.925 194.426 353.692 193.018 352.422 191.665L344.83 183.512L350.526 177.972Z" fill="#B55B52"/>
<path d="M357.63 218.065L352.109 223.191L348.529 217.366C348.529 217.366 351.971 214.891 355.063 215.82L357.63 218.065Z" fill="#B55B52"/>
<path d="M347.903 224.267L346.063 222.344C345.713 221.975 345.523 221.484 345.534 220.976C345.544 220.468 345.754 219.984 346.118 219.63L348.474 217.32L352.044 223.191L350.508 224.451C350.128 224.75 349.651 224.896 349.17 224.862C348.689 224.828 348.237 224.616 347.903 224.267Z" fill="#B55B52"/>
<path d="M338.076 177.715C337.653 181 346.404 190.598 346.404 190.598L354.593 180.347C354.593 180.347 350.775 174.991 347.858 173.776C343.174 171.798 338.554 173.97 338.076 177.715Z" fill="url(#paint4_linear_33_1038)"/>
<path d="M328.184 150.385L326.73 149.778C326.73 149.778 327.365 151.038 328.184 150.385Z" fill="#263238"/>
<path d="M119.346 143.944C115.95 147.707 111.727 158.989 124.812 156.725C137.897 154.462 119.346 143.944 119.346 143.944Z" fill="#263238"/>
<path d="M123.514 133.573C124.315 128.567 115.159 117.074 111.552 124.169C107.126 132.708 123.514 133.573 123.514 133.573Z" fill="#263238"/>
<path d="M123.542 136.61C127.692 133.702 129.551 119.126 121.923 121.463C112.73 124.27 123.542 136.61 123.542 136.61Z" fill="#263238"/>
<path d="M144.541 181.258C144.458 182.031 144.384 182.997 144.32 183.88C144.256 184.763 144.219 185.72 144.191 186.641C144.191 188.481 144.081 190.321 144.136 192.116C144.213 195.751 144.542 199.376 145.121 202.965C145.249 203.885 145.452 204.732 145.617 205.615L145.673 205.919C145.671 205.952 145.671 205.986 145.673 206.02C145.673 206.02 145.673 206.02 145.673 206.103C145.673 206.186 146.114 206.406 146.74 206.471C147.471 206.557 148.209 206.557 148.939 206.471C152.476 205.9 155.934 204.921 159.246 203.554L161.031 206.729C160.175 207.345 159.356 207.86 158.491 208.376C157.626 208.891 156.77 209.388 155.859 209.83C154.004 210.791 152.051 211.553 150.034 212.102C148.893 212.407 147.719 212.577 146.538 212.609C144.994 212.653 143.47 212.261 142.139 211.477C141.339 210.98 140.657 210.314 140.142 209.526C139.897 209.155 139.691 208.761 139.526 208.348C139.442 208.156 139.368 207.959 139.305 207.759L139.213 207.465L139.167 207.281C138.918 206.305 138.624 205.321 138.412 204.336C137.53 200.404 137.004 196.4 136.839 192.373C136.738 190.377 136.701 188.389 136.774 186.392C136.774 185.389 136.857 184.395 136.931 183.392C137.004 182.389 137.097 181.432 137.244 180.31L144.541 181.258Z" fill="#FFB573"/>
<path d="M143.621 172.58C146.381 173.832 146.381 186.208 146.381 186.208L133.885 191.877C133.885 191.877 131.75 176.831 134.557 174.006C137.363 171.181 139.581 170.758 143.621 172.58Z" fill="#263238"/>
<path opacity="0.2" d="M142.931 175.221L144.808 186.954L138.026 190.018L142.931 175.221Z" fill="black"/>
<path d="M157.644 205.1L162.862 199.385L164.5 205.68C164.5 205.68 161.16 208.873 158.316 207.952L157.644 205.1Z" fill="#FFB573"/>
<path d="M166.221 199.201L166.993 202.321C167.051 202.566 167.045 202.823 166.974 203.065C166.903 203.307 166.77 203.526 166.589 203.701L164.5 205.68L162.862 199.385L163.874 198.465C164.058 198.298 164.283 198.183 164.526 198.13C164.768 198.076 165.021 198.088 165.258 198.162C165.495 198.236 165.709 198.371 165.877 198.554C166.046 198.736 166.165 198.959 166.221 199.201Z" fill="#FFB573"/>
<path d="M145.194 175.433C144.845 179.638 142.737 189.889 134.152 214.734L105.35 209.756C107.733 198.714 108.985 191.665 107.88 169.654C107.854 169.157 107.93 168.66 108.103 168.194C108.277 167.728 108.545 167.302 108.89 166.944C109.236 166.586 109.651 166.303 110.11 166.112C110.57 165.921 111.064 165.827 111.561 165.835C114.449 165.861 117.333 166.042 120.202 166.378C124.607 166.809 128.977 167.55 133.278 168.596C136.793 169.516 140.556 170.859 142.829 171.688C143.583 171.961 144.224 172.478 144.652 173.156C145.08 173.834 145.271 174.635 145.194 175.433Z" fill="#263238"/>
<path opacity="0.2" d="M108.423 175.81C110.917 176.914 112.84 180.172 111.644 185.362C111.072 187.716 109.843 189.861 108.101 191.545C108.34 187.432 108.377 182.619 108.184 176.417L108.423 175.81Z" fill="black"/>
<path d="M124.03 151.876C124.131 156.228 123.625 164.078 120.193 166.378C120.193 166.378 122.686 169.497 129.652 174.871C136.296 171.191 133.278 168.633 133.278 168.633C128.778 166.709 129.496 163.249 130.876 160.121L124.03 151.876Z" fill="#FFB573"/>
<path opacity="0.2" d="M126.827 155.244L130.876 160.112C130.543 160.838 130.275 161.592 130.075 162.366C128.327 161.795 125.769 159.78 125.723 157.765C125.695 156.817 126.597 155.649 126.827 155.244Z" fill="black"/>
<path d="M120.616 143.861C121.012 150.992 121.021 153.983 124.6 157.664C129.983 163.185 138.652 161.161 140.4 154.057C141.974 147.615 141.063 137.07 134.106 134.19C132.571 133.546 130.897 133.306 129.243 133.493C127.59 133.679 126.011 134.287 124.659 135.256C123.306 136.226 122.225 137.526 121.517 139.032C120.809 140.538 120.499 142.201 120.616 143.861Z" fill="#FFB573"/>
<path d="M120.551 148.637C123.625 148.793 127.149 142.867 125.723 140.189C127.333 139.83 134.198 140.603 134.17 138.073C137.271 140.235 144.081 140.346 145.213 137.41C146.344 134.475 143.768 131.742 140.418 132.809C137.998 126.57 126.358 125.282 122.015 131.208C116.512 131.07 104.558 140.07 120.551 148.637Z" fill="#263238"/>
<path d="M132.946 145.83C132.946 146.41 133.241 146.879 133.627 146.879C134.014 146.879 134.308 146.419 134.318 145.839C134.327 145.26 134.014 144.781 133.637 144.781C133.259 144.781 132.946 145.25 132.946 145.83Z" fill="#263238"/>
<path d="M139.498 145.867C139.498 146.447 139.802 146.916 140.179 146.925C140.556 146.934 140.869 146.456 140.878 145.876C140.888 145.296 140.575 144.827 140.198 144.818C139.82 144.809 139.507 145.287 139.498 145.867Z" fill="#263238"/>
<path d="M140.032 144.855L141.421 144.459C141.421 144.459 140.704 145.591 140.032 144.855Z" fill="#263238"/>
<path d="M137.474 146.898C137.982 148.213 138.67 149.451 139.517 150.578C139.22 150.788 138.881 150.93 138.523 150.995C138.165 151.06 137.798 151.047 137.446 150.956L137.474 146.898Z" fill="#ED893E"/>
<path d="M134.069 153.247C134.352 153.293 134.638 153.314 134.925 153.311C134.947 153.313 134.97 153.309 134.991 153.301C135.012 153.294 135.032 153.282 135.048 153.266C135.064 153.251 135.077 153.232 135.086 153.211C135.095 153.191 135.1 153.168 135.1 153.146C135.097 153.1 135.078 153.057 135.046 153.025C135.014 152.992 134.97 152.973 134.925 152.971C134.201 152.979 133.486 152.817 132.837 152.498C132.187 152.178 131.623 151.709 131.189 151.13C131.178 151.11 131.162 151.093 131.144 151.079C131.125 151.065 131.104 151.055 131.081 151.05C131.059 151.045 131.036 151.044 131.013 151.049C130.99 151.053 130.969 151.062 130.95 151.075C130.919 151.108 130.902 151.15 130.902 151.195C130.902 151.239 130.919 151.282 130.95 151.314C131.317 151.826 131.782 152.259 132.317 152.591C132.852 152.923 133.448 153.145 134.069 153.247Z" fill="#263238"/>
<path d="M133.103 154.222C133.347 154.368 133.602 154.494 133.867 154.6C133.887 154.609 133.909 154.613 133.931 154.613C133.954 154.614 133.976 154.609 133.997 154.601C134.017 154.592 134.036 154.579 134.052 154.563C134.067 154.547 134.079 154.528 134.087 154.508C134.096 154.487 134.101 154.465 134.101 154.443C134.101 154.42 134.097 154.398 134.089 154.377C134.08 154.357 134.067 154.338 134.051 154.323C134.035 154.307 134.016 154.295 133.995 154.287C133.326 154.024 132.728 153.609 132.249 153.073C131.77 152.538 131.422 151.898 131.235 151.204C131.23 151.182 131.222 151.161 131.209 151.143C131.196 151.124 131.18 151.108 131.161 151.096C131.142 151.084 131.121 151.076 131.099 151.073C131.077 151.069 131.054 151.07 131.032 151.075C130.989 151.084 130.951 151.109 130.926 151.145C130.9 151.181 130.889 151.225 130.894 151.268C131.049 151.882 131.324 152.459 131.703 152.966C132.082 153.473 132.558 153.9 133.103 154.222Z" fill="#263238"/>
<path d="M118.435 149.419C118.831 150.74 119.73 151.853 120.938 152.52C122.548 153.385 123.754 152.032 123.643 150.302C123.542 148.747 122.576 146.419 120.791 146.272C120.401 146.247 120.011 146.319 119.657 146.482C119.302 146.646 118.994 146.895 118.76 147.207C118.526 147.52 118.374 147.886 118.317 148.272C118.261 148.658 118.301 149.052 118.435 149.419Z" fill="#FFB573"/>
<path d="M129.965 142.591C130.03 142.622 130.104 142.632 130.175 142.619C130.246 142.606 130.311 142.57 130.361 142.517C131.474 141.404 133.48 141.726 133.499 141.726C133.587 141.74 133.678 141.719 133.752 141.667C133.825 141.616 133.876 141.538 133.894 141.45C133.902 141.405 133.901 141.359 133.891 141.315C133.881 141.271 133.862 141.229 133.835 141.192C133.808 141.155 133.775 141.124 133.736 141.1C133.697 141.077 133.654 141.061 133.609 141.054C133.517 141.054 131.235 140.677 129.882 142.039C129.85 142.071 129.824 142.109 129.806 142.15C129.788 142.192 129.779 142.237 129.779 142.283C129.779 142.328 129.788 142.373 129.806 142.415C129.824 142.457 129.85 142.495 129.882 142.527L129.965 142.591Z" fill="#263238"/>
<path d="M141.716 142.72C141.774 142.728 141.833 142.721 141.887 142.7C141.942 142.679 141.991 142.645 142.029 142.6C142.086 142.531 142.113 142.441 142.105 142.351C142.096 142.262 142.052 142.179 141.983 142.122C141.575 141.766 141.089 141.513 140.564 141.383C140.039 141.254 139.491 141.251 138.964 141.376C138.879 141.404 138.809 141.464 138.767 141.543C138.726 141.622 138.718 141.714 138.744 141.8C138.755 141.843 138.775 141.884 138.803 141.92C138.831 141.955 138.866 141.984 138.906 142.006C138.945 142.027 138.989 142.041 139.034 142.045C139.079 142.049 139.124 142.044 139.167 142.03C139.584 141.934 140.019 141.941 140.434 142.048C140.848 142.155 141.231 142.36 141.55 142.646C141.598 142.685 141.655 142.711 141.716 142.72Z" fill="#263238"/>
<path d="M131.401 374.13H138.596L138.136 357.465H130.94L131.401 374.13Z" fill="#FFB573"/>
<path d="M139.02 373.293H130.931C130.794 373.288 130.66 373.337 130.558 373.43C130.456 373.523 130.395 373.652 130.388 373.79L129.79 380.185C129.784 380.35 129.811 380.515 129.87 380.669C129.928 380.823 130.017 380.964 130.131 381.083C130.246 381.203 130.383 381.298 130.534 381.363C130.686 381.429 130.849 381.463 131.014 381.464C133.83 381.418 135.173 381.252 138.734 381.252C140.915 381.252 145.452 381.473 148.47 381.473C151.488 381.473 151.507 378.492 150.228 378.216C144.532 377.001 142.222 375.336 140.244 373.734C139.897 373.453 139.466 373.298 139.02 373.293Z" fill="url(#paint5_linear_33_1038)"/>
<g opacity="0.2">
<path d="M138.136 357.465L138.376 366.06H131.18L130.94 357.465H138.136Z" fill="black"/>
</g>
<path d="M134.17 214.734C134.17 214.734 138.661 259.667 140.06 281.586C141.513 304.379 139.609 364.404 139.609 364.404H129.882C129.882 364.404 123.873 296.788 123.873 283.298C120.045 258.848 109.491 233.525 113.079 211.099L134.17 214.734Z" fill="#407BFF"/>
<path d="M134.17 214.734C134.17 214.734 138.661 259.667 140.06 281.586C141.513 304.379 139.609 364.404 139.609 364.404H129.882C129.882 364.404 123.873 296.788 123.873 283.298C120.045 258.848 109.491 233.525 113.079 211.099L134.17 214.734Z" fill="url(#paint6_linear_33_1038)"/>
<g style="mix-blend-mode:difference" opacity="0.2">
<path d="M118.886 232.522C116.84 233.071 115.016 234.245 113.668 235.88C115.15 245.202 117.653 254.763 119.953 264.333C121.6 253.934 120.616 236.414 118.886 232.522Z" fill="url(#paint7_linear_33_1038)"/>
</g>
<path d="M129.036 364.744H140.455L141.293 361.1L128.502 360.658L129.036 364.744Z" fill="#263238"/>
<path d="M141.78 374.553C142.396 374.606 143.012 374.45 143.529 374.112C143.644 374.01 143.733 373.881 143.786 373.736C143.839 373.592 143.855 373.436 143.832 373.283C143.827 373.189 143.799 373.097 143.749 373.017C143.699 372.936 143.629 372.87 143.547 372.823C142.627 372.345 139.793 373.808 139.471 373.974C139.439 373.989 139.414 374.015 139.399 374.047C139.384 374.078 139.38 374.114 139.388 374.148C139.392 374.183 139.407 374.216 139.43 374.242C139.453 374.268 139.483 374.287 139.517 374.296C140.262 374.45 141.019 374.537 141.78 374.553ZM143.068 373.063C143.177 373.056 143.285 373.078 143.381 373.127C143.417 373.143 143.447 373.169 143.468 373.201C143.489 373.234 143.501 373.272 143.501 373.311C143.515 373.411 143.504 373.513 143.469 373.608C143.433 373.703 143.375 373.788 143.299 373.854C142.866 374.25 141.679 374.314 140.087 374.056C141.008 373.56 142.007 373.224 143.041 373.063H143.068Z" fill="url(#paint8_linear_33_1038)"/>
<path d="M139.526 374.296H139.59C140.455 373.909 142.148 372.354 142.02 371.535C142.02 371.342 141.845 371.103 141.375 371.057C141.21 371.042 141.044 371.061 140.886 371.111C140.728 371.162 140.581 371.243 140.455 371.351C139.535 372.106 139.388 374.038 139.379 374.112C139.378 374.142 139.384 374.171 139.397 374.199C139.41 374.226 139.429 374.25 139.452 374.268C139.474 374.283 139.5 374.292 139.526 374.296ZM141.237 371.379H141.339C141.651 371.379 141.67 371.535 141.679 371.572C141.762 372.069 140.612 373.283 139.737 373.817C139.806 372.998 140.128 372.22 140.658 371.59C140.821 371.455 141.026 371.38 141.237 371.379Z" fill="url(#paint9_linear_33_1038)"/>
<path d="M71.7628 362.83L78.4158 365.572L85.216 350.352L78.5722 347.61L71.7628 362.83Z" fill="#FFB573"/>
<path d="M78.9403 365.517L71.91 361.523C71.7908 361.453 71.6496 361.429 71.5137 361.456C71.3778 361.483 71.2567 361.56 71.1738 361.671L67.2446 366.741C67.1502 366.874 67.0847 367.025 67.0525 367.184C67.0203 367.344 67.022 367.508 67.0576 367.667C67.0932 367.826 67.1618 367.976 67.259 368.106C67.3563 368.237 67.4799 368.345 67.6219 368.425C70.0972 369.768 71.3579 370.265 74.4497 372.05C76.3453 373.136 80.1733 375.566 82.7959 377.056C85.4184 378.547 87.038 376.035 86.081 375.216C81.7745 371.37 80.6702 368.821 79.8053 366.502C79.6475 366.078 79.3396 365.728 78.9403 365.517Z" fill="url(#paint10_linear_33_1038)"/>
<g opacity="0.2">
<path d="M85.2159 350.361L81.71 358.202L75.057 355.459L78.5629 347.61L85.2159 350.361Z" fill="black"/>
</g>
<path d="M126.082 213.335C126.082 213.335 114.322 264.977 112.334 286.841C107.337 307.149 83.8081 357.235 83.8081 357.235L74.8086 353.555C74.8086 353.555 88.9152 300.045 96.6632 285.304C97.3993 260.863 97.2705 231.417 105.037 209.71L126.082 213.335Z" fill="#407BFF"/>
<path d="M126.082 213.335C126.082 213.335 114.322 264.977 112.334 286.841C107.337 307.149 83.8081 357.235 83.8081 357.235L74.8086 353.555C74.8086 353.555 88.9152 300.045 96.6632 285.304C97.3993 260.863 97.2705 231.417 105.037 209.71L126.082 213.335Z" fill="url(#paint11_linear_33_1038)"/>
<path d="M73.8516 353.536L84.4062 357.889L86.5686 354.843L74.919 349.552L73.8516 353.536Z" fill="#263238"/>
<path d="M80.6703 367.91C81.1801 368.259 81.7925 368.428 82.4095 368.388C82.5602 368.357 82.7007 368.288 82.8181 368.188C82.9354 368.089 83.0259 367.961 83.0812 367.818C83.1263 367.736 83.15 367.644 83.15 367.551C83.15 367.457 83.1263 367.366 83.0812 367.284C82.5567 366.419 79.336 366.281 78.9771 366.272C78.9422 366.267 78.9068 366.275 78.8767 366.293C78.8467 366.312 78.8237 366.34 78.8115 366.373C78.7913 366.401 78.7804 366.435 78.7804 366.469C78.7804 366.504 78.7913 366.538 78.8115 366.566C79.3888 367.07 80.011 367.519 80.6703 367.91ZM82.5107 367.247C82.6085 367.298 82.6934 367.37 82.7591 367.459C82.7795 367.492 82.7902 367.53 82.7902 367.569C82.7902 367.608 82.7795 367.646 82.7591 367.68C82.7224 367.772 82.6639 367.855 82.5887 367.921C82.5135 367.986 82.4236 368.033 82.3266 368.057C81.7469 368.176 80.6887 367.652 79.428 366.64C80.4856 366.666 81.531 366.871 82.5199 367.247H82.5107Z" fill="url(#paint12_linear_33_1038)"/>
<path d="M78.8575 366.585C78.8575 366.585 78.8575 366.585 78.9219 366.585C79.8421 366.667 82.1058 366.152 82.3911 365.379C82.4555 365.195 82.4555 364.919 82.069 364.643C81.9366 364.55 81.7871 364.484 81.6291 364.45C81.4712 364.415 81.3079 364.412 81.1488 364.44C79.9893 364.643 78.8943 366.281 78.8483 366.281C78.8328 366.306 78.8246 366.334 78.8246 366.364C78.8246 366.393 78.8328 366.422 78.8483 366.446C78.8384 366.468 78.8341 366.493 78.8357 366.517C78.8373 366.541 78.8448 366.564 78.8575 366.585ZM81.7837 364.901C81.8181 364.912 81.8495 364.931 81.8757 364.956C82.1242 365.131 82.0874 365.25 82.069 365.287C81.8941 365.756 80.293 366.207 79.3084 366.281C79.7703 365.601 80.4331 365.083 81.204 364.799C81.4031 364.769 81.6068 364.804 81.7837 364.901Z" fill="url(#paint13_linear_33_1038)"/>
<path d="M133.499 144.809L134.888 144.422C134.888 144.422 134.143 145.499 133.499 144.809Z" fill="#263238"/>
<path d="M105.23 207.998L104.052 210.446C103.914 210.63 104.117 210.869 104.448 210.934L134.087 216.05C134.345 216.096 134.584 216.05 134.63 215.838L135.339 213.308C135.385 213.133 135.182 212.94 134.897 212.894L105.736 207.86C105.647 207.838 105.554 207.839 105.465 207.863C105.376 207.887 105.296 207.934 105.23 207.998Z" fill="#263238"/>
<path d="M108.653 211.946L107.871 211.817C107.715 211.817 107.614 211.688 107.641 211.587L108.561 208.302C108.561 208.21 108.736 208.155 108.893 208.182L109.675 208.311C109.831 208.311 109.932 208.44 109.905 208.541L108.985 211.826C108.985 211.918 108.837 211.974 108.653 211.946Z" fill="#407BFF"/>
<g opacity="0.6">
<path d="M108.653 211.946L107.871 211.817C107.715 211.817 107.614 211.688 107.641 211.587L108.561 208.302C108.561 208.21 108.736 208.155 108.893 208.182L109.675 208.311C109.831 208.311 109.932 208.44 109.905 208.541L108.985 211.826C108.985 211.918 108.837 211.974 108.653 211.946Z" fill="white"/>
</g>
<path d="M131.842 215.949L131.069 215.811C130.913 215.811 130.802 215.682 130.83 215.59L131.75 212.305C131.75 212.204 131.925 212.148 132.081 212.176L132.864 212.314C133.02 212.314 133.121 212.443 133.094 212.535L132.173 215.82C132.155 215.921 131.999 215.976 131.842 215.949Z" fill="#407BFF"/>
<g opacity="0.6">
<path d="M131.842 215.949L131.069 215.811C130.913 215.811 130.802 215.682 130.83 215.59L131.75 212.305C131.75 212.204 131.925 212.148 132.081 212.176L132.864 212.314C133.02 212.314 133.121 212.443 133.094 212.535L132.173 215.82C132.155 215.921 131.999 215.976 131.842 215.949Z" fill="white"/>
</g>
<path d="M120.312 213.961L119.53 213.823C119.374 213.823 119.272 213.694 119.3 213.602L120.22 210.308C120.22 210.216 120.395 210.161 120.551 210.188L121.334 210.317C121.481 210.317 121.591 210.446 121.564 210.547L120.643 213.832C120.616 213.924 120.469 213.98 120.312 213.961Z" fill="#407BFF"/>
<g opacity="0.6">
<path d="M120.312 213.961L119.53 213.823C119.374 213.823 119.272 213.694 119.3 213.602L120.22 210.308C120.22 210.216 120.395 210.161 120.551 210.188L121.334 210.317C121.481 210.317 121.591 210.446 121.564 210.547L120.643 213.832C120.616 213.924 120.469 213.98 120.312 213.961Z" fill="white"/>
</g>
<path d="M102.083 213.612L107.476 219.206L100.178 219.694C100.178 219.694 97.6847 215.802 99.1386 213.188L102.083 213.612Z" fill="#FFB573"/>
<path d="M109.813 175.571C107.733 178.883 105.58 182.178 103.427 185.444C101.273 188.711 99.0741 192.024 97.1049 195.189L96.7921 195.686C96.7921 195.686 96.7921 195.741 96.7184 195.806C96.6428 196.016 96.5964 196.236 96.5804 196.459C96.5221 197.187 96.5561 197.92 96.6816 198.64C96.9902 200.399 97.4458 202.129 98.0435 203.812C98.6324 205.578 99.3226 207.354 100.086 209.112C100.85 210.869 101.641 212.655 102.442 214.375L99.3502 216.308C96.8808 213.065 94.7241 209.596 92.9088 205.946C91.9422 204.007 91.1715 201.975 90.6084 199.882C90.2904 198.681 90.1235 197.444 90.1115 196.202C90.1143 195.441 90.2101 194.684 90.3967 193.947C90.5162 193.518 90.6701 193.1 90.8568 192.696L91.0777 192.254L91.2617 191.895C92.2371 190.055 93.2125 188.343 94.2247 186.613C95.2369 184.883 96.2491 183.208 97.2798 181.524C99.341 178.147 101.439 174.825 103.638 171.54L109.813 175.571Z" fill="#FFB573"/>
<path d="M111.764 166.001C104.696 164.786 99.387 175.69 99.387 175.69L107.669 185.886C107.669 185.886 112.978 179.951 114.156 176.15C115.408 172.194 115.205 166.599 111.764 166.001Z" fill="#263238"/>
<path d="M108.101 225.224L101.964 225.298L100.178 219.694L107.475 219.206L108.101 225.224Z" fill="#FFB573"/>
<path d="M350.775 93.7564C353.108 93.7588 355.417 94.2209 357.572 95.1162C359.726 96.0115 361.683 97.3225 363.331 98.9743C364.978 100.626 366.284 102.586 367.174 104.743C368.063 106.9 368.52 109.211 368.516 111.544V246.665C368.511 251.369 366.64 255.878 363.314 259.205C359.988 262.531 355.478 264.401 350.775 264.406H305.777C302.116 264.406 298.606 265.86 296.017 268.449C293.429 271.038 291.974 274.548 291.974 278.209V291.294L264.451 267.719C261.949 265.579 258.763 264.404 255.47 264.406H111.304C106.6 264.401 102.09 262.531 98.7639 259.205C95.4378 255.878 93.567 251.369 93.5622 246.665V111.544C93.567 106.84 95.4378 102.33 98.7639 99.0041C102.09 95.678 106.6 93.8073 111.304 93.8024H350.775M350.775 79.9995H111.304C102.945 80.0238 94.9356 83.355 89.0252 89.2654C83.1148 95.1758 79.7836 103.185 79.7593 111.544V246.665C79.7836 255.023 83.1148 263.033 89.0252 268.943C94.9356 274.854 102.945 278.185 111.304 278.209H255.47L305.777 321.293V278.209H350.775C359.133 278.185 367.143 274.854 373.053 268.943C378.963 263.033 382.295 255.023 382.319 246.665V111.544C382.295 103.185 378.963 95.1758 373.053 89.2654C367.143 83.355 359.133 80.0238 350.775 79.9995Z" fill="url(#paint14_linear_33_1038)"/>
<path d="M220.788 376.872C221.635 376.872 222.435 376.762 222.693 376.385C222.763 376.285 222.801 376.166 222.801 376.044C222.801 375.922 222.763 375.803 222.693 375.704C222.637 375.613 222.563 375.535 222.476 375.473C222.389 375.412 222.291 375.368 222.187 375.345C221.092 375.05 218.856 376.348 218.754 376.403C218.727 376.42 218.706 376.445 218.694 376.475C218.683 376.505 218.681 376.538 218.69 376.569C218.696 376.6 218.711 376.628 218.735 376.65C218.758 376.671 218.787 376.685 218.819 376.688C219.468 376.811 220.127 376.872 220.788 376.872ZM221.782 375.612C221.883 375.602 221.984 375.602 222.085 375.612C222.211 375.644 222.32 375.723 222.389 375.832C222.509 376.026 222.472 376.118 222.435 376.173C222.15 376.596 220.494 376.605 219.27 376.44C220.047 376.011 220.9 375.739 221.782 375.639V375.612Z" fill="url(#paint15_linear_33_1038)"/>
<path d="M218.81 376.697H218.874C219.647 376.348 221.156 374.931 221.009 374.194C221.009 374.02 220.843 373.799 220.42 373.762C220.267 373.743 220.112 373.757 219.965 373.801C219.818 373.846 219.681 373.92 219.564 374.02C218.764 374.71 218.644 376.467 218.644 376.541C218.645 376.569 218.652 376.597 218.664 376.623C218.677 376.648 218.695 376.671 218.718 376.688C218.747 376.7 218.779 376.704 218.81 376.697ZM220.3 374.047H220.402C220.678 374.047 220.696 374.185 220.705 374.222C220.797 374.664 219.785 375.777 218.985 376.265C219.025 375.526 219.303 374.819 219.776 374.25C219.919 374.118 220.106 374.046 220.3 374.047Z" fill="url(#paint16_linear_33_1038)"/>
<path d="M211.604 376.541H218.147L218.23 361.395H211.687L211.604 376.541Z" fill="#CE7A63"/>
<path d="M218.083 375.786H210.933C210.806 375.785 210.682 375.828 210.584 375.909C210.487 375.99 210.421 376.103 210.399 376.228L209.322 382.081C209.297 382.224 209.303 382.372 209.341 382.512C209.378 382.653 209.447 382.784 209.541 382.896C209.635 383.007 209.752 383.097 209.884 383.158C210.017 383.219 210.161 383.25 210.307 383.249C212.884 383.203 216.601 383.047 219.84 383.047C223.622 383.047 224.091 383.258 228.536 383.258C231.223 383.258 231.858 380.544 230.726 380.295C225.573 379.173 224.202 379.053 219.684 376.329C219.209 376.006 218.656 375.818 218.083 375.786Z" fill="#263238"/>
<path opacity="0.2" d="M218.23 361.395L218.193 369.207H211.641L211.687 361.395H218.23Z" fill="black"/>
<path d="M168.3 374.618C168.35 373.924 168.137 373.237 167.702 372.695C167.603 372.623 167.484 372.584 167.362 372.584C167.239 372.584 167.12 372.623 167.021 372.695C166.934 372.747 166.859 372.818 166.802 372.902C166.744 372.986 166.706 373.082 166.69 373.182C166.451 374.268 167.877 376.559 167.941 376.661C167.959 376.688 167.984 376.709 168.013 376.722C168.043 376.735 168.075 376.739 168.107 376.734C168.137 376.73 168.166 376.717 168.187 376.695C168.209 376.673 168.223 376.645 168.227 376.615C168.304 375.952 168.329 375.284 168.3 374.618ZM166.975 373.569C166.961 373.471 166.961 373.372 166.975 373.274C166.983 373.213 167.004 373.153 167.038 373.101C167.071 373.048 167.116 373.004 167.168 372.971C167.362 372.86 167.454 372.906 167.509 372.971C167.951 373.274 168.052 374.931 167.951 376.145C167.463 375.357 167.132 374.482 166.975 373.569Z" fill="url(#paint17_linear_33_1038)"/>
<path d="M168.227 376.559C168.232 376.538 168.232 376.516 168.227 376.495C167.831 375.704 166.331 374.13 165.595 374.24C165.42 374.24 165.208 374.388 165.19 374.82C165.18 375.135 165.292 375.442 165.503 375.676C166.239 376.27 167.137 376.63 168.079 376.707C168.106 376.711 168.134 376.707 168.158 376.695C168.183 376.684 168.203 376.665 168.217 376.642C168.23 376.616 168.233 376.587 168.227 376.559ZM165.466 374.94V374.848C165.466 374.572 165.586 374.553 165.623 374.553C166.064 374.48 167.233 375.547 167.767 376.394C167.004 376.317 166.283 376.012 165.696 375.52C165.569 375.366 165.494 375.176 165.484 374.977L165.466 374.94Z" fill="url(#paint18_linear_33_1038)"/>
<path d="M168.125 376.633L174.539 377.084L177.18 361.818L170.775 361.367L168.125 376.633Z" fill="#CE7A63"/>
<path d="M168.061 375.17L175.137 374.544C175.269 374.532 175.402 374.565 175.513 374.637C175.625 374.708 175.709 374.815 175.754 374.94L177.907 380.617C177.957 380.748 177.976 380.889 177.964 381.029C177.951 381.168 177.907 381.303 177.834 381.423C177.761 381.543 177.662 381.645 177.544 381.72C177.426 381.796 177.292 381.844 177.152 381.86C174.594 382.044 170.877 382.219 167.665 382.504C163.92 382.835 166.359 382.826 161.96 383.222C159.301 383.461 158.16 380.82 159.199 380.461C164.095 378.897 164.932 377.82 166.561 375.805C166.756 375.604 166.989 375.444 167.247 375.335C167.504 375.226 167.781 375.17 168.061 375.17Z" fill="#263238"/>
<path opacity="0.2" d="M177.18 361.827L175.818 369.695L169.405 369.244L170.766 361.367L177.18 361.827Z" fill="black"/>
<path d="M220.586 210.142C220.586 210.142 208.623 260.394 204.096 279.047C199.099 299.466 179.508 367.229 179.508 367.229L167.822 364.698C167.822 364.698 180.52 306.477 185.517 277.988C189.354 256.115 198.023 210.142 198.023 210.142H220.586Z" fill="#263238"/>
<path d="M181.349 363.677L180.484 368.176L166.524 366.686L166.331 362.563L181.349 363.677Z" fill="url(#paint19_linear_33_1038)"/>
<path opacity="0.3" d="M213.693 233.433C205.412 234.528 203.912 263.55 203.719 280.574L204.096 279.037C206.58 268.86 211.264 249.232 215.018 233.525C214.589 233.396 214.136 233.364 213.693 233.433Z" fill="black"/>
<path d="M232.999 210.142C232.999 210.142 229.806 259.078 228.398 279.001C226.916 299.723 221.036 367.689 221.036 367.689H209.874C209.874 367.689 208.706 300.966 208.384 280.583C208.025 258.37 209.985 210.142 209.985 210.142H232.999Z" fill="#263238"/>
<path d="M222.536 363.281C222.582 363.281 222.085 367.882 222.085 367.882H208.605L208.08 363.769L222.536 363.281Z" fill="url(#paint20_linear_33_1038)"/>
<path d="M202.053 163.075C200.268 166.691 198.455 170.491 196.78 174.227C195.105 177.963 193.458 181.745 192.179 185.518L191.682 186.926L191.241 188.325L191.038 188.96C191.054 188.81 191.054 188.659 191.038 188.509C190.976 187.889 190.68 187.316 190.21 186.908C189.851 186.668 189.842 186.77 189.98 186.843C190.236 186.962 190.504 187.051 190.78 187.11C191.605 187.283 192.442 187.397 193.283 187.45C197.311 187.574 201.343 187.455 205.356 187.092H205.467C206.061 187.047 206.651 187.218 207.129 187.573C207.607 187.928 207.941 188.444 208.07 189.025C208.199 189.607 208.113 190.216 207.829 190.739C207.546 191.263 207.082 191.667 206.525 191.877C202.347 193.562 197.966 194.694 193.495 195.245C192.211 195.376 190.917 195.389 189.63 195.281C188.852 195.218 188.082 195.083 187.33 194.876C186.224 194.589 185.198 194.054 184.33 193.312C183.702 192.774 183.186 192.117 182.812 191.38C182.435 190.614 182.21 189.783 182.149 188.932C182.111 188.253 182.163 187.572 182.305 186.908L182.508 185.987L182.894 184.322L183.336 182.693C184.545 178.46 186.005 174.303 187.707 170.243C189.4 166.212 191.195 162.338 193.283 158.418C193.897 157.271 194.936 156.411 196.178 156.023C197.419 155.635 198.764 155.751 199.921 156.344C201.078 156.938 201.956 157.963 202.365 159.198C202.774 160.432 202.682 161.778 202.108 162.946L202.053 163.075Z" fill="#CF7A64"/>
<path d="M205.541 187.34L209.608 185.739L209.405 193.303C207.764 193.188 206.179 192.652 204.804 191.748C204.467 191.503 204.213 191.162 204.077 190.768C203.94 190.375 203.927 189.949 204.041 189.549L204.271 188.72C204.357 188.406 204.518 188.117 204.739 187.877C204.96 187.637 205.234 187.453 205.541 187.34Z" fill="#CE7A63"/>
<path d="M216.307 184.883L214.844 191.435L209.405 193.294L209.608 185.739L216.307 184.883Z" fill="#CE7A63"/>
<path d="M223.88 129.23C223.99 129.745 224.349 130.104 224.68 130.04C225.012 129.975 225.214 129.497 225.104 128.981C224.993 128.466 224.644 128.061 224.303 128.162C223.963 128.264 223.779 128.705 223.88 129.23Z" fill="#263238"/>
<path d="M224.294 130.113C225.232 131.57 226.369 132.89 227.671 134.033C227.368 134.358 226.998 134.612 226.586 134.779C226.174 134.946 225.731 135.021 225.288 134.999L224.294 130.113Z" fill="#BA4D3C"/>
<path d="M221.405 126.736C221.326 126.735 221.251 126.706 221.193 126.653C221.164 126.625 221.142 126.591 221.126 126.554C221.111 126.517 221.103 126.477 221.103 126.437C221.103 126.397 221.111 126.357 221.126 126.32C221.142 126.283 221.164 126.249 221.193 126.221C221.519 125.851 221.929 125.564 222.388 125.385C222.848 125.206 223.343 125.139 223.834 125.19C223.914 125.206 223.985 125.252 224.031 125.319C224.078 125.386 224.096 125.469 224.082 125.549C224.077 125.589 224.063 125.628 224.043 125.662C224.022 125.697 223.994 125.727 223.962 125.751C223.929 125.775 223.892 125.793 223.853 125.802C223.814 125.812 223.773 125.813 223.733 125.807C223.344 125.769 222.953 125.825 222.591 125.971C222.229 126.117 221.907 126.348 221.653 126.644C221.621 126.676 221.582 126.701 221.539 126.717C221.496 126.733 221.45 126.739 221.405 126.736Z" fill="#263238"/>
<path d="M209.525 138.634C210.445 143.419 211.025 150.054 207.685 153.247C207.685 153.247 209 158.096 217.89 158.096C227.662 158.096 222.592 153.836 222.592 153.836C218.524 152.575 218.561 147.947 219.491 144.229L209.525 138.634Z" fill="#CE7A63"/>
<path d="M195.97 153.265C189.833 154.673 185.793 171.218 185.793 171.218L196.072 178.911C199.876 176.18 202.573 172.173 203.672 167.62C205.734 159.394 202.237 151.83 195.97 153.265Z" fill="url(#paint21_linear_33_1038)"/>
<path opacity="0.2" d="M201.225 164.777C197.722 168.506 195.683 173.375 195.483 178.488L196.026 178.911C199.827 176.177 202.524 172.171 203.626 167.62C203.746 167.133 203.856 166.636 203.948 166.157L201.225 164.777Z" fill="black"/>
<path d="M234.72 159.826C236.045 166.829 238.042 183.448 234.306 211.698C234.271 211.929 234.163 212.144 233.997 212.309C233.831 212.475 233.617 212.583 233.385 212.618C230.179 212.996 226.937 212.953 223.742 212.489C217.3 211.569 211.954 211.964 205.706 212.489C202.951 212.703 200.185 212.743 197.424 212.609C197.276 212.601 197.131 212.563 196.998 212.496C196.865 212.43 196.748 212.337 196.653 212.223C196.557 212.109 196.487 211.976 196.446 211.833C196.404 211.691 196.393 211.541 196.412 211.394C197.378 204.124 200.884 177.098 196.016 153.293C199.882 152.552 203.792 152.06 207.721 151.821C212.677 151.531 217.645 151.531 222.601 151.821C224.239 151.968 225.849 152.207 227.285 152.456C229.122 152.793 230.815 153.676 232.141 154.992C233.468 156.307 234.367 157.992 234.72 159.826Z" fill="url(#paint22_linear_33_1038)"/>
<path d="M206.415 131.632C208.089 137.907 208.761 141.662 212.626 144.266C218.451 148.195 225.693 143.686 225.923 137.042C226.125 131.061 223.346 121.813 216.62 120.543C215.137 120.256 213.605 120.353 212.17 120.825C210.735 121.297 209.445 122.128 208.422 123.239C207.4 124.351 206.678 125.705 206.327 127.174C205.975 128.643 206.006 130.178 206.415 131.632Z" fill="#CE7A63"/>
<path d="M221.092 133.555C223.052 137.88 222.435 141.836 219.997 143.677C217.236 145.775 209.497 146.097 206.562 143.125C207.675 142.011 208.292 140.622 206.865 138.643C205.439 136.665 200.203 133.592 200.102 129.368C200.001 125.144 202.798 124.666 202.633 124.666C200.157 123.561 200.314 119.586 203.037 117.396C205.927 115.068 210.62 114.424 216.205 115.556C219.73 116.255 223.19 116.191 222.582 113.964C226.732 116.347 224.671 125.172 220.659 126.331C221.294 127.923 224.073 130.454 224.073 130.454C224.073 130.454 223.392 133.085 221.092 133.555Z" fill="#263238"/>
<path d="M203.037 123.81C203.037 123.81 201.528 124.73 197.562 123.571C198.63 125.549 202.596 125.623 203.553 125.172C204.51 124.721 203.037 123.81 203.037 123.81Z" fill="#263238"/>
<path d="M218.57 131.972C218.931 133.451 219.773 134.768 220.963 135.717C222.536 136.959 223.724 135.818 223.724 133.996C223.659 132.358 222.803 129.745 221.018 129.211C219.233 128.678 218.156 130.187 218.57 131.972Z" fill="#CE7A63"/>
<path d="M234.968 158.869C235.787 160.774 236.56 162.697 237.351 164.611C238.143 166.525 238.916 168.448 239.68 170.372L244.225 181.865C244.989 183.76 245.753 185.647 246.526 187.46L247.115 188.766L247.262 189.088V189.162C247.262 189.162 247.262 189.162 247.207 189.07C247.076 188.84 246.925 188.621 246.756 188.417C246.413 188.039 246.005 187.727 245.55 187.496C245.217 187.31 244.857 187.177 244.483 187.101C244.253 187.049 244.019 187.019 243.784 187.009C243.64 186.999 243.495 186.999 243.351 187.009C243.208 187.018 243.066 187.043 242.928 187.082C242.85 187.097 242.775 187.125 242.707 187.165C242.983 187.113 243.25 187.02 243.498 186.889C243.866 186.724 244.281 186.521 244.685 186.3C246.36 185.38 248.127 184.377 249.885 183.356C251.642 182.334 253.464 181.304 255.286 180.328H255.341C255.852 180.053 256.443 179.964 257.012 180.077C257.581 180.191 258.093 180.499 258.459 180.949C258.826 181.399 259.023 181.963 259.019 182.544C259.014 183.124 258.807 183.684 258.433 184.129C255.681 187.468 252.598 190.52 249.231 193.238C248.78 193.588 248.311 193.938 247.786 194.297C247.162 194.735 246.496 195.111 245.799 195.419C245.5 195.547 245.193 195.651 244.879 195.732C244.616 195.801 244.348 195.847 244.078 195.87C243.867 195.884 243.655 195.884 243.443 195.87C243.133 195.865 242.825 195.828 242.523 195.76C242.09 195.663 241.672 195.509 241.281 195.3C240.764 195.024 240.305 194.652 239.928 194.205C239.737 193.977 239.565 193.734 239.413 193.478L239.33 193.321L239.275 193.229L239.072 192.852C238.787 192.346 238.548 191.867 238.281 191.37C237.278 189.438 236.367 187.533 235.52 185.619C233.744 181.8 232.079 177.991 230.45 174.163C229.64 172.249 228.843 170.329 228.058 168.402C227.275 166.479 226.493 164.556 225.748 162.624C225.251 161.403 225.26 160.036 225.771 158.822C226.283 157.608 227.256 156.647 228.476 156.15C229.696 155.653 231.064 155.662 232.278 156.174C233.492 156.685 234.453 157.658 234.95 158.878L234.968 158.869Z" fill="#CF7A64"/>
<path d="M258.985 176.519C257.81 177.192 256.779 178.09 255.952 179.162C255.124 180.234 254.517 181.459 254.163 182.767L256.436 185.684L261.405 184.147C261.799 184.023 262.139 183.77 262.371 183.429L264.92 179.666C265.119 179.299 265.209 178.884 265.179 178.468C265.15 178.053 265.003 177.654 264.755 177.319L262.059 173.694L258.985 176.519Z" fill="#CE7A63"/>
<path d="M221.46 163.461C222.03 170.758 230.064 180.291 230.064 180.291L241.391 171.798C241.391 171.798 239.67 161.538 233.8 155.971C226.539 149.097 220.917 156.633 221.46 163.461Z" fill="url(#paint23_linear_33_1038)"/>
<path d="M224.211 151.793C223.162 148.72 211.098 148.186 203.829 148.922C196.559 149.658 200.222 155.317 201.446 156.109C198.151 157.333 199.909 163.148 206.047 166.001C212.184 168.853 225.518 155.501 224.211 151.793Z" fill="#263238"/>
<defs>
<linearGradient id="paint0_linear_33_1038" x1="325.27" y1="373.963" x2="331.783" y2="389.062" gradientUnits="userSpaceOnUse">
<stop stop-color="#ED237F"/>
<stop offset="0.302083" stop-color="#E93068"/>
<stop offset="0.578125" stop-color="#F14272"/>
<stop offset="0.848958" stop-color="#DF5775"/>
<stop offset="1" stop-color="#DF5775"/>
</linearGradient>
<linearGradient id="paint1_linear_33_1038" x1="378.662" y1="373.962" x2="385.707" y2="388.445" gradientUnits="userSpaceOnUse">
<stop stop-color="#ED237F"/>
<stop offset="0.302083" stop-color="#E93068"/>
<stop offset="0.578125" stop-color="#F14272"/>
<stop offset="0.848958" stop-color="#DF5775"/>
<stop offset="1" stop-color="#DF5775"/>
</linearGradient>
<linearGradient id="paint2_linear_33_1038" x1="308.142" y1="175.844" x2="327.683" y2="187.157" gradientUnits="userSpaceOnUse">
<stop stop-color="#ED237F"/>
<stop offset="0.302083" stop-color="#E93068"/>
<stop offset="0.578125" stop-color="#F14272"/>
<stop offset="0.848958" stop-color="#DF5775"/>
<stop offset="1" stop-color="#DF5775"/>
</linearGradient>
<linearGradient id="paint3_linear_33_1038" x1="312.927" y1="170.297" x2="364.584" y2="204.694" gradientUnits="userSpaceOnUse">
<stop stop-color="#ED237F"/>
<stop offset="0.302083" stop-color="#E93068"/>
<stop offset="0.578125" stop-color="#F14272"/>
<stop offset="0.848958" stop-color="#DF5775"/>
<stop offset="1" stop-color="#DF5775"/>
</linearGradient>
<linearGradient id="paint4_linear_33_1038" x1="339.006" y1="172.064" x2="357.613" y2="186.78" gradientUnits="userSpaceOnUse">
<stop stop-color="#ED237F"/>
<stop offset="0.302083" stop-color="#E93068"/>
<stop offset="0.578125" stop-color="#F14272"/>
<stop offset="0.848958" stop-color="#DF5775"/>
<stop offset="1" stop-color="#DF5775"/>
</linearGradient>
<linearGradient id="paint5_linear_33_1038" x1="131.003" y1="372.843" x2="137.748" y2="387.561" gradientUnits="userSpaceOnUse">
<stop stop-color="#ED237F"/>
<stop offset="0.302083" stop-color="#E93068"/>
<stop offset="0.578125" stop-color="#F14272"/>
<stop offset="0.848958" stop-color="#DF5775"/>
<stop offset="1" stop-color="#DF5775"/>
</linearGradient>
<linearGradient id="paint6_linear_33_1038" x1="113.961" y1="202.676" x2="164.449" y2="210.498" gradientUnits="userSpaceOnUse">
<stop stop-color="#ED237F"/>
<stop offset="0.302083" stop-color="#E93068"/>
<stop offset="0.578125" stop-color="#F14272"/>
<stop offset="0.848958" stop-color="#DF5775"/>
<stop offset="1" stop-color="#DF5775"/>
</linearGradient>
<linearGradient id="paint7_linear_33_1038" x1="114.076" y1="230.774" x2="126.67" y2="233.146" gradientUnits="userSpaceOnUse">
<stop stop-color="#ED237F"/>
<stop offset="0.302083" stop-color="#E93068"/>
<stop offset="0.578125" stop-color="#F14272"/>
<stop offset="0.848958" stop-color="#DF5775"/>
<stop offset="1" stop-color="#DF5775"/>
</linearGradient>
<linearGradient id="paint8_linear_33_1038" x1="139.639" y1="372.627" x2="141.217" y2="375.849" gradientUnits="userSpaceOnUse">
<stop stop-color="#ED237F"/>
<stop offset="0.302083" stop-color="#E93068"/>
<stop offset="0.578125" stop-color="#F14272"/>
<stop offset="0.848958" stop-color="#DF5775"/>
<stop offset="1" stop-color="#DF5775"/>
</linearGradient>
<linearGradient id="paint9_linear_33_1038" x1="139.53" y1="370.874" x2="142.824" y2="373.133" gradientUnits="userSpaceOnUse">
<stop stop-color="#ED237F"/>
<stop offset="0.302083" stop-color="#E93068"/>
<stop offset="0.578125" stop-color="#F14272"/>
<stop offset="0.848958" stop-color="#DF5775"/>
<stop offset="1" stop-color="#DF5775"/>
</linearGradient>
<linearGradient id="paint10_linear_33_1038" x1="68.1341" y1="360.562" x2="85.6292" y2="378.241" gradientUnits="userSpaceOnUse">
<stop stop-color="#ED237F"/>
<stop offset="0.302083" stop-color="#E93068"/>
<stop offset="0.578125" stop-color="#F14272"/>
<stop offset="0.848958" stop-color="#DF5775"/>
<stop offset="1" stop-color="#DF5775"/>
</linearGradient>
<linearGradient id="paint11_linear_33_1038" x1="77.7385" y1="201.604" x2="164.166" y2="226.848" gradientUnits="userSpaceOnUse">
<stop stop-color="#ED237F"/>
<stop offset="0.302083" stop-color="#E93068"/>
<stop offset="0.578125" stop-color="#F14272"/>
<stop offset="0.848958" stop-color="#DF5775"/>
<stop offset="1" stop-color="#DF5775"/>
</linearGradient>
<linearGradient id="paint12_linear_33_1038" x1="79.0301" y1="366.154" x2="81.033" y2="369.618" gradientUnits="userSpaceOnUse">
<stop stop-color="#ED237F"/>
<stop offset="0.302083" stop-color="#E93068"/>
<stop offset="0.578125" stop-color="#F14272"/>
<stop offset="0.848958" stop-color="#DF5775"/>
<stop offset="1" stop-color="#DF5775"/>
</linearGradient>
<linearGradient id="paint13_linear_33_1038" x1="79.0302" y1="364.302" x2="81.2708" y2="367.421" gradientUnits="userSpaceOnUse">
<stop stop-color="#ED237F"/>
<stop offset="0.302083" stop-color="#E93068"/>
<stop offset="0.578125" stop-color="#F14272"/>
<stop offset="0.848958" stop-color="#DF5775"/>
<stop offset="1" stop-color="#DF5775"/>
</linearGradient>
<linearGradient id="paint14_linear_33_1038" x1="97.0484" y1="66.7416" x2="359.318" y2="343.119" gradientUnits="userSpaceOnUse">
<stop stop-color="#ED237F"/>
<stop offset="0.302083" stop-color="#E93068"/>
<stop offset="0.578125" stop-color="#F14272"/>
<stop offset="0.848958" stop-color="#DF5775"/>
<stop offset="1" stop-color="#DF5775"/>
</linearGradient>
<linearGradient id="paint15_linear_33_1038" x1="218.92" y1="375.215" x2="220.207" y2="378.05" gradientUnits="userSpaceOnUse">
<stop stop-color="#ED237F"/>
<stop offset="0.302083" stop-color="#E93068"/>
<stop offset="0.578125" stop-color="#F14272"/>
<stop offset="0.848958" stop-color="#DF5775"/>
<stop offset="1" stop-color="#DF5775"/>
</linearGradient>
<linearGradient id="paint16_linear_33_1038" x1="218.78" y1="373.592" x2="221.758" y2="375.609" gradientUnits="userSpaceOnUse">
<stop stop-color="#ED237F"/>
<stop offset="0.302083" stop-color="#E93068"/>
<stop offset="0.578125" stop-color="#F14272"/>
<stop offset="0.848958" stop-color="#DF5775"/>
<stop offset="1" stop-color="#DF5775"/>
</linearGradient>
<linearGradient id="paint17_linear_33_1038" x1="166.757" y1="372.356" x2="169.471" y2="373.262" gradientUnits="userSpaceOnUse">
<stop stop-color="#ED237F"/>
<stop offset="0.302083" stop-color="#E93068"/>
<stop offset="0.578125" stop-color="#F14272"/>
<stop offset="0.848958" stop-color="#DF5775"/>
<stop offset="1" stop-color="#DF5775"/>
</linearGradient>
<linearGradient id="paint18_linear_33_1038" x1="165.363" y1="374.099" x2="168.054" y2="376.88" gradientUnits="userSpaceOnUse">
<stop stop-color="#ED237F"/>
<stop offset="0.302083" stop-color="#E93068"/>
<stop offset="0.578125" stop-color="#F14272"/>
<stop offset="0.848958" stop-color="#DF5775"/>
<stop offset="1" stop-color="#DF5775"/>
</linearGradient>
<linearGradient id="paint19_linear_33_1038" x1="167.189" y1="362.255" x2="171.726" y2="372.456" gradientUnits="userSpaceOnUse">
<stop stop-color="#ED237F"/>
<stop offset="0.302083" stop-color="#E93068"/>
<stop offset="0.578125" stop-color="#F14272"/>
<stop offset="0.848958" stop-color="#DF5775"/>
<stop offset="1" stop-color="#DF5775"/>
</linearGradient>
<linearGradient id="paint20_linear_33_1038" x1="208.906" y1="363.028" x2="212.223" y2="371.788" gradientUnits="userSpaceOnUse">
<stop stop-color="#ED237F"/>
<stop offset="0.302083" stop-color="#E93068"/>
<stop offset="0.578125" stop-color="#F14272"/>
<stop offset="0.848958" stop-color="#DF5775"/>
<stop offset="1" stop-color="#DF5775"/>
</linearGradient>
<linearGradient id="paint21_linear_33_1038" x1="186.849" y1="151.67" x2="211.67" y2="166.593" gradientUnits="userSpaceOnUse">
<stop stop-color="#ED237F"/>
<stop offset="0.302083" stop-color="#E93068"/>
<stop offset="0.578125" stop-color="#F14272"/>
<stop offset="0.848958" stop-color="#DF5775"/>
<stop offset="1" stop-color="#DF5775"/>
</linearGradient>
<linearGradient id="paint22_linear_33_1038" x1="198.327" y1="148.237" x2="254.901" y2="179.616" gradientUnits="userSpaceOnUse">
<stop stop-color="#ED237F"/>
<stop offset="0.302083" stop-color="#E93068"/>
<stop offset="0.578125" stop-color="#F14272"/>
<stop offset="0.848958" stop-color="#DF5775"/>
<stop offset="1" stop-color="#DF5775"/>
</linearGradient>
<linearGradient id="paint23_linear_33_1038" x1="222.565" y1="151.768" x2="248.936" y2="168.136" gradientUnits="userSpaceOnUse">
<stop stop-color="#ED237F"/>
<stop offset="0.302083" stop-color="#E93068"/>
<stop offset="0.578125" stop-color="#F14272"/>
<stop offset="0.848958" stop-color="#DF5775"/>
<stop offset="1" stop-color="#DF5775"/>
</linearGradient>
</defs>
</svg>
