<svg id="Layer_2" data-name="Layer 2" xmlns="http://www.w3.org/2000/svg" viewBox="0 0 1000 1000"><defs><style>.cls-1{fill:#fff;}</style></defs><title>White Logo - for Dark Background</title><path class="cls-1" d="M602.44,432.36c24.79-159.85-221.86-90.49-192.91,17.39,21.85,81.4,256.33,39,186.64,135.58C594,482.6,344.56,573,351.06,411.52c2.95-73.13,93.49-124,174.47-114.51C579.12,303.28,651.17,342.32,602.44,432.36Z"/><circle class="cls-1" cx="456.01" cy="431.11" r="9.5"/><circle class="cls-1" cx="504.13" cy="431.11" r="9.5"/><circle class="cls-1" cx="552.26" cy="431.11" r="9.5"/><path class="cls-1" d="M190.36,683.91q-11.1,0-17-5.46t-5.91-16.15V646.21q0-10.76,5.95-16.23t17.06-5.47A31.09,31.09,0,0,1,203.31,627a17.11,17.11,0,0,1,8.05,7,16.43,16.43,0,0,1,1.75,10.8,2.78,2.78,0,0,1-.31.83.78.78,0,0,1-.74.4h-8.49q-1,0-1-1.14.18-5.25-2.84-8.22t-9.23-3q-6,0-9.32,3.19t-3.28,9.58V662q0,6.39,3.28,9.58t9.32,3.2q6.3,0,9.4-3.11a9.67,9.67,0,0,0,2.67-8.09q-.09-1.14,1-1.14H212q1,0,1.14,1.23a17.17,17.17,0,0,1-2.06,10.67,17.62,17.62,0,0,1-8,7A29.71,29.71,0,0,1,190.36,683.91Z"/><path class="cls-1" d="M248.36,683.91q-11.46,0-17.23-5.55t-5.77-16V646q0-10.49,5.77-16t17.23-5.51q11.55,0,17.37,5.51t5.82,16v16.36q0,10.41-5.82,16T248.36,683.91Zm0-9.18q6.3,0,9.45-3.28t3.15-9.58V646.56q0-6.3-3.15-9.58t-9.45-3.28q-6.12,0-9.31,3.28t-3.2,9.58v15.31q0,6.3,3.2,9.58T248.36,674.73Z"/><path class="cls-1" d="M286.5,682.86q-1,0-1-1.05v-55.2q0-1.05,1-1.05h12.43a1.26,1.26,0,0,1,1.22.7l14.09,28.43q1.49,2.89,2.75,5.56t2.32,5.16q1.05,2.49,1.84,4.59h.17c-.06-1.57-.12-3.28-.17-5.11s-.11-3.69-.13-5.56,0-3.56,0-5.07V626.61q0-1.05,1-1.05h8.23a.93.93,0,0,1,1,1.05v55.2a.93.93,0,0,1-1,1.05H317.91a1.24,1.24,0,0,1-1.22-.7L303,654.69q-1.32-2.62-2.58-5.38c-.85-1.83-1.66-3.67-2.45-5.51s-1.53-3.54-2.23-5.11h-.26c.05,1.8.11,3.64.17,5.51s.09,3.73.09,5.59v32a.93.93,0,0,1-1,1.05Z"/><path class="cls-1" d="M359.38,682.86c-.65,0-1-.35-1-1.05v-47H343.28a.93.93,0,0,1-1-1.05v-7.18a.93.93,0,0,1,1-1.05H384a.93.93,0,0,1,1.05,1.05v7.18a.93.93,0,0,1-1.05,1.05H368.82v47q0,1.05-1,1.05Z"/><path class="cls-1" d="M397.08,682.86q-1,0-1-1.05v-55.2q0-1.05,1-1.05h18.37q11.3,0,16.49,4.33t5.21,12.64a17.89,17.89,0,0,1-2.8,10.2,14.34,14.34,0,0,1-8.23,5.73v.17l14.09,23c.23.35.28.64.13.87a.89.89,0,0,1-.83.35H429.8a1.38,1.38,0,0,1-1.23-.7L415.36,660h-8.74v21.78a.93.93,0,0,1-1.05,1.05Zm9.54-31.14H415q6,0,8.8-2.1c1.83-1.4,2.75-3.64,2.75-6.74s-.84-5.19-2.53-6.47-4.55-1.92-8.58-1.92h-8.83Z"/><path class="cls-1" d="M446.59,682.86c-.81,0-1.1-.38-.87-1.13l18.9-55.38a1.08,1.08,0,0,1,1.13-.79H477a1.14,1.14,0,0,1,1.22.79l19.08,55.38c.17.75-.12,1.13-.88,1.13h-9.18a1.15,1.15,0,0,1-1.23-.78L474.68,646c-.59-1.86-1.16-3.76-1.71-5.68s-1.09-3.82-1.62-5.69h-.17q-.8,2.8-1.62,5.64T467.85,646l-11.11,36a1.09,1.09,0,0,1-1.14.87Zm12-12,2-8.58h21.26l2.1,8.58Z"/><path class="cls-1" d="M516.14,682.86a1.23,1.23,0,0,1-1.22-.78L496.55,626.7q-.27-1.14.87-1.14h9.19a1.14,1.14,0,0,1,1.22.79L518.33,661c.64,2,1.25,4.11,1.84,6.21s1.1,4.17,1.57,6.22H522c.53-2,1.1-4.1,1.71-6.17s1.21-4.16,1.79-6.26l10.85-34.55a1.11,1.11,0,0,1,1.14-.88h9.18c.76,0,1,.38.79,1.14l-18.63,55.38a1.16,1.16,0,0,1-1.23.78Z"/><path class="cls-1" d="M558.13,682.86q-1,0-1-1.05v-55.2q0-1.05,1-1.05h33.51q1,0,1,1.05v7.18q0,1.05-1,1.05h-24v14.61h21.87c.64,0,1,.34,1,1v6.73q0,1-1,1H567.67v15.31h24q1,0,1,1v7.17q0,1.05-1,1.05Z"/><path class="cls-1" d="M607.56,682.86q-1,0-1-1.05v-55.2q0-1.05,1-1.05h18.37q11.28,0,16.49,4.33t5.21,12.64a17.89,17.89,0,0,1-2.8,10.2,14.34,14.34,0,0,1-8.23,5.73v.17l14.09,23a.79.79,0,0,1,.13.87.9.9,0,0,1-.83.35h-9.71a1.37,1.37,0,0,1-1.23-.7L625.84,660h-8.75v21.78a.93.93,0,0,1-1.05,1.05Zm9.53-31.14h8.4q6,0,8.79-2.1c1.84-1.4,2.76-3.64,2.76-6.74s-.85-5.19-2.54-6.47-4.55-1.92-8.57-1.92h-8.84Z"/><path class="cls-1" d="M680.17,683.91q-11.11,0-16.23-4.5t-4.42-12.56c.12-.93.53-1.4,1.23-1.4H669q1.14,0,1,1.23c0,2.86.88,4.94,2.62,6.25s4.44,2,8.05,2,6.13-.57,7.88-1.7a5.87,5.87,0,0,0,2.62-5.3,6.67,6.67,0,0,0-.61-2.93,6,6,0,0,0-2.1-2.27,22.83,22.83,0,0,0-4-2.06l-12.68-5.42a26.35,26.35,0,0,1-6.78-4,12.55,12.55,0,0,1-3.59-4.94,17.47,17.47,0,0,1-1.09-6.39q.09-7.44,5-11.37T680,624.6a31.69,31.69,0,0,1,11.59,1.88,14.55,14.55,0,0,1,7.13,5.51,13.72,13.72,0,0,1,1.84,9.06c-.12,1.05-.47,1.57-1,1.57h-8.31a.92.92,0,0,1-.79-.35,1.82,1.82,0,0,1-.17-1.22,6,6,0,0,0-2.49-5.56q-2.76-2.06-7.75-2-4.54,0-6.82,1.57a5.36,5.36,0,0,0-2.27,4.73,6.33,6.33,0,0,0,.61,2.88,6.48,6.48,0,0,0,2.14,2.32,23.13,23.13,0,0,0,4.16,2.23l12.51,5.34a24.77,24.77,0,0,1,6.78,3.89,12.52,12.52,0,0,1,3.58,4.94,17.15,17.15,0,0,1,1,6.65q0,7.62-5.16,11.77T680.17,683.91Z"/><path class="cls-1" d="M736.5,683.91q-10.93,0-16.7-5.42T714,662.3V626.61q0-1.05,1-1.05h8.49a.93.93,0,0,1,1,1.05v35.52c0,4,1,7.15,3,9.36s5,3.33,9,3.33,7-1.11,9-3.33,3-5.34,3-9.36V626.61q0-1.05,1-1.05h8.49a.93.93,0,0,1,1,1.05v35.78q0,10.5-5.86,16T736.5,683.91Z"/><path class="cls-1" d="M773.33,682.86a.93.93,0,0,1-1.05-1.05l1.23-55.2a.93.93,0,0,1,1-1.05h11.28a1.18,1.18,0,0,1,1.14.79l14.52,31.84,14.44-31.84a1.36,1.36,0,0,1,1.22-.79h11.29q1,0,1,1.05l1.22,55.2q0,1.05-1,1.05h-8.31q-1,0-1-1.05l-.79-28.25c-.06-2.34,0-4.68.09-7s.2-4.68.26-7h-.26c-.94,2.27-1.91,4.56-2.93,6.87s-2.09,4.56-3.19,6.78l-10.77,22.66a1.25,1.25,0,0,1-1.22.69h-.35a1.18,1.18,0,0,1-1.14-.69l-10.93-22.93c-1-2.15-2-4.38-3-6.69s-2-4.53-2.84-6.69H783q.18,3.33.27,6.87t0,6.86l-.7,28.52a.93.93,0,0,1-1.05,1.05Z"/></svg>